<svg xmlns="http://www.w3.org/2000/svg" viewBox="0 0 300 53"><title>9520-legend</title><g id="Work_area" data-name="Work area"><rect x="148.7" y="28.95" width="17.91" height="8" fill="#fde0ef"/><rect x="130.97" y="28.95" width="17.91" height="8" fill="#f1b6da"/><rect x="113.24" y="28.95" width="17.91" height="8" fill="#de77ae"/><rect x="95.51" y="28.95" width="17.91" height="8" fill="#c51b7d"/><rect x="77.78" y="28.95" width="17.91" height="8" fill="#8e0152"/><rect x="166.8" y="28.95" width="17.91" height="8" fill="#e6f5d0"/><line x1="95.67" y1="29.64" x2="95.67" y2="42.64" fill="none" stroke="#666" stroke-linecap="round" stroke-linejoin="round" stroke-width="0.7"/><line x1="113.45" y1="29.64" x2="113.45" y2="42.64" fill="none" stroke="#666" stroke-linecap="round" stroke-linejoin="round" stroke-width="0.7"/><line x1="131.23" y1="29.64" x2="131.23" y2="42.64" fill="none" stroke="#666" stroke-linecap="round" stroke-linejoin="round" stroke-width="0.7"/><line x1="149.01" y1="29.64" x2="149.01" y2="42.64" fill="none" stroke="#666" stroke-linecap="round" stroke-linejoin="round" stroke-width="0.7"/><line x1="166.8" y1="29.64" x2="166.8" y2="42.64" fill="none" stroke="#666" stroke-linecap="round" stroke-linejoin="round" stroke-width="0.7"/><path d="M88.08,51.41v-.5l1.74-2a2.94,2.94,0,0,0,.93-1.87,1,1,0,0,0-1.14-1.12,2.08,2.08,0,0,0-1.24.38l-.23-.64a2.67,2.67,0,0,1,1.56-.43A1.66,1.66,0,0,1,91.57,47a3.77,3.77,0,0,1-1.31,2.45l-1.18,1.3h2.5v.67Z" fill="#656565"/><path d="M92.25,51.12l.23-.65a2.29,2.29,0,0,0,1.31.35A1.12,1.12,0,0,0,95,49.7c0-.67-.41-1.09-1.3-1.09h-.32v-.68h.32c.76,0,1.2-.41,1.2-1s-.39-1-1.13-1a2.1,2.1,0,0,0-1.13.32l-.23-.61a2.5,2.5,0,0,1,1.44-.4c1.12,0,1.84.56,1.84,1.6a1.41,1.41,0,0,1-1.09,1.37,1.46,1.46,0,0,1,1.22,1.52,1.83,1.83,0,0,1-2,1.79A2.89,2.89,0,0,1,92.25,51.12Z" fill="#656565"/><path d="M97.91,48.38a1.37,1.37,0,0,1-1.31-1.56c0-1.05.63-1.61,1.31-1.61a1.42,1.42,0,0,1,1.32,1.61A1.38,1.38,0,0,1,97.91,48.38Zm3.26-3h.59l-4.07,6.07h-.6Zm-3.26,2.49c.34,0,.63-.29.63-1s-.29-1.05-.63-1.05-.62.33-.62,1.05S97.58,47.83,97.91,47.83Zm3,3.67a1.38,1.38,0,0,1-1.31-1.57c0-1.05.63-1.6,1.31-1.6s1.31.55,1.31,1.6A1.39,1.39,0,0,1,100.93,51.51Zm0-.55c.32,0,.63-.3.63-1s-.31-1.05-.63-1.05-.63.33-.63,1.05S100.59,51,100.93,51Z" fill="#656565"/><path d="M107.82,46.41l-1.21,1v-.82l1.55-1.34h.52v6.12h-.86Z" fill="#656565"/><path d="M110,49a4.2,4.2,0,0,1,2.26-3.63h1v0a4.72,4.72,0,0,0-2.35,2.81,1.82,1.82,0,0,1,1.39-.63A1.73,1.73,0,0,1,114,49.46a1.9,1.9,0,0,1-1.93,2.07C110.76,51.53,110,50.58,110,49Zm3.23.48A1.12,1.12,0,0,0,112,48.18a1.53,1.53,0,0,0-1.24.62,1.64,1.64,0,0,0,0,.21c0,1.21.5,1.86,1.28,1.86S113.18,50.32,113.18,49.45Z" fill="#656565"/><path d="M116,48.38a1.37,1.37,0,0,1-1.31-1.56c0-1.05.63-1.61,1.31-1.61a1.42,1.42,0,0,1,1.32,1.61A1.38,1.38,0,0,1,116,48.38Zm3.26-3h.59l-4.07,6.07h-.6ZM116,47.83c.34,0,.63-.29.63-1s-.29-1.05-.63-1.05-.62.33-.62,1.05S115.67,47.83,116,47.83Zm3,3.67a1.38,1.38,0,0,1-1.31-1.57c0-1.05.63-1.6,1.31-1.6s1.31.55,1.31,1.6A1.39,1.39,0,0,1,119,51.51Zm0-.55c.32,0,.63-.3.63-1s-.31-1.05-.63-1.05-.63.33-.63,1.05S118.68,51,119,51Z" fill="#656565"/><path d="M127.15,51.36a4.84,4.84,0,0,0,2.3-2.8,1.84,1.84,0,0,1-1.38.61,1.73,1.73,0,0,1-1.76-1.88,1.93,1.93,0,0,1,2-2.07c1.27,0,2.06.95,2.06,2.56a4.5,4.5,0,0,1-2.08,3.63h-1.13ZM129.53,48a1.54,1.54,0,0,0,0-.21c0-1.21-.48-1.86-1.25-1.86s-1.15.54-1.15,1.42a1.12,1.12,0,0,0,1.16,1.27A1.53,1.53,0,0,0,129.53,48Z" fill="#656565"/><path d="M132.48,48.38a1.37,1.37,0,0,1-1.31-1.56c0-1.05.63-1.61,1.31-1.61a1.42,1.42,0,0,1,1.32,1.61A1.38,1.38,0,0,1,132.48,48.38Zm3.26-3h.59l-4.07,6.07h-.6Zm-3.26,2.49c.34,0,.63-.29.63-1s-.29-1.05-.63-1.05-.62.33-.62,1.05S132.15,47.83,132.48,47.83Zm3,3.67a1.38,1.38,0,0,1-1.31-1.57c0-1.05.63-1.6,1.31-1.6s1.31.55,1.31,1.6A1.39,1.39,0,0,1,135.51,51.51Zm0-.55c.32,0,.63-.3.63-1s-.31-1.05-.63-1.05-.63.33-.63,1.05S135.17,51,135.51,51Z" fill="#656565"/><path d="M144.21,49a4.2,4.2,0,0,1,2.26-3.63h1v0a4.72,4.72,0,0,0-2.35,2.81,1.82,1.82,0,0,1,1.39-.63,1.73,1.73,0,0,1,1.76,1.89,1.9,1.9,0,0,1-1.93,2.07C145,51.53,144.21,50.58,144.21,49Zm3.23.48a1.12,1.12,0,0,0-1.16-1.27,1.53,1.53,0,0,0-1.24.62,1.64,1.64,0,0,0,0,.21c0,1.21.5,1.86,1.28,1.86S147.44,50.32,147.44,49.45Z" fill="#656565"/><path d="M150.26,48.38a1.37,1.37,0,0,1-1.31-1.56c0-1.05.63-1.61,1.31-1.61a1.42,1.42,0,0,1,1.32,1.61A1.38,1.38,0,0,1,150.26,48.38Zm3.26-3h.59L150,51.41h-.6Zm-3.26,2.49c.34,0,.63-.29.63-1s-.29-1.05-.63-1.05-.62.33-.62,1.05S149.93,47.83,150.26,47.83Zm3,3.67A1.38,1.38,0,0,1,152,49.94c0-1.05.63-1.6,1.31-1.6s1.31.55,1.31,1.6A1.39,1.39,0,0,1,153.28,51.51Zm0-.55c.32,0,.63-.3.63-1s-.31-1.05-.63-1.05-.63.33-.63,1.05S152.94,51,153.28,51Z" fill="#656565"/><path d="M166.72,51.54c-1.21,0-2.32-.91-2.31-3.12s1.11-3.19,2.31-3.19,2.33,1,2.32,3.19S167.93,51.54,166.72,51.54Zm0-.68c.82,0,1.43-.76,1.43-2.45s-.61-2.49-1.43-2.49-1.41.81-1.42,2.49S165.91,50.85,166.72,50.85Z" fill="#656565"/><line x1="170.4" y1="23.67" x2="184.44" y2="23.67" fill="none" stroke="#666" stroke-linecap="round" stroke-linejoin="round" stroke-width="0.7"/><polygon points="187.9 23.67 183.02 25.66 184.18 23.67 183.02 21.68 187.9 23.67" fill="#666"/><line x1="149.63" y1="23.67" x2="163.17" y2="23.67" fill="none" stroke="#666" stroke-linecap="round" stroke-linejoin="round" stroke-width="0.7"/><polygon points="146.17 23.67 151.04 25.66 149.88 23.67 151.04 21.68 146.17 23.67" fill="#666"/><path d="M132.31,13.6h.88v6.07h-.88Z" fill="#666"/><path d="M134.64,19.67V15.3h.83v.62a1.74,1.74,0,0,1,1.41-.76c.95,0,1.42.55,1.42,1.54v3h-.83V16.79c0-.7-.31-1-.89-1a1.38,1.38,0,0,0-1.12.7v3.14Z" fill="#666"/><path d="M142.76,19.47a2.81,2.81,0,0,1-1.32.28,2.1,2.1,0,0,1-2.22-2.24,2.18,2.18,0,0,1,2.28-2.3,2.9,2.9,0,0,1,1.28.26l-.21.67a2.14,2.14,0,0,0-1-.24,1.45,1.45,0,0,0-1.47,1.61,1.39,1.39,0,0,0,1.45,1.57,2.38,2.38,0,0,0,1.06-.23Z" fill="#666"/><path d="M143.71,15.3h.83v.87a1.86,1.86,0,0,1,1.51-.94V16a1.72,1.72,0,0,0-1.51.76v2.86h-.83Z" fill="#666"/><path d="M148.84,19.75a2.14,2.14,0,0,1-2.29-2.31,2.08,2.08,0,0,1,2-2.27c1.11,0,1.84.73,1.84,2.11v.32h-3a1.39,1.39,0,0,0,1.53,1.49,2.83,2.83,0,0,0,1.2-.24l.14.61A3.2,3.2,0,0,1,148.84,19.75ZM147.42,17h2.2c-.05-.87-.46-1.22-1.07-1.22S147.53,16.22,147.42,17Z" fill="#666"/><path d="M153.62,19.23a1.45,1.45,0,0,1-1.14.53A1.37,1.37,0,0,1,151,18.32a1.42,1.42,0,0,1,1.57-1.41,1.54,1.54,0,0,1,1,.33v-.47c0-.72-.4-1-1.05-1a2.5,2.5,0,0,0-1.07.25l-.18-.59a3,3,0,0,1,1.4-.31c1.18,0,1.74.54,1.74,1.54v3h-.83Zm0-.48v-1a1.34,1.34,0,0,0-.86-.31c-.52,0-.93.24-.93.83a.82.82,0,0,0,.87.89A1.14,1.14,0,0,0,153.62,18.76Z" fill="#666"/><path d="M156.89,15.86c-.49,0-.78.14-.78.55,0,.6.88.58,1.56.91a1.08,1.08,0,0,1,.64,1.08c0,.83-.62,1.36-1.66,1.36a3,3,0,0,1-1.44-.3l.19-.65a2.5,2.5,0,0,0,1.19.29c.68,0,.91-.28.91-.65,0-.64-.95-.59-1.58-1a1.1,1.1,0,0,1-.57-1c0-.81.6-1.25,1.51-1.25a3.5,3.5,0,0,1,1.34.23l-.18.65A2.83,2.83,0,0,0,156.89,15.86Z" fill="#666"/><path d="M161.28,19.75A2.14,2.14,0,0,1,159,17.43a2.08,2.08,0,0,1,2-2.27c1.11,0,1.84.73,1.84,2.11v.32h-3a1.39,1.39,0,0,0,1.53,1.49,2.83,2.83,0,0,0,1.2-.24l.14.61A3.2,3.2,0,0,1,161.28,19.75ZM159.85,17h2.2c-.05-.87-.46-1.22-1.07-1.22S160,16.22,159.85,17Z" fill="#666"/><path d="M171.18,13.6h1.72a2.87,2.87,0,0,1,3,3.07,2.81,2.81,0,0,1-3,3h-1.73Zm.89.67V19h.79a2,2,0,0,0,2.08-2.32,2.1,2.1,0,0,0-2.1-2.39Z" fill="#666"/><path d="M178.86,19.75a2.14,2.14,0,0,1-2.29-2.31,2.08,2.08,0,0,1,2-2.27c1.11,0,1.84.73,1.84,2.11v.32h-3a1.39,1.39,0,0,0,1.53,1.49,2.83,2.83,0,0,0,1.2-.24l.14.61A3.2,3.2,0,0,1,178.86,19.75ZM177.43,17h2.2c-.05-.87-.46-1.22-1.07-1.22S177.55,16.22,177.43,17Z" fill="#666"/><path d="M184.63,19.47a2.81,2.81,0,0,1-1.32.28,2.1,2.1,0,0,1-2.22-2.24,2.18,2.18,0,0,1,2.28-2.3,2.9,2.9,0,0,1,1.28.26l-.21.67a2.14,2.14,0,0,0-1-.24,1.45,1.45,0,0,0-1.47,1.61,1.39,1.39,0,0,0,1.45,1.57,2.38,2.38,0,0,0,1.06-.23Z" fill="#666"/><path d="M185.58,15.3h.83v.87a1.86,1.86,0,0,1,1.51-.94V16a1.72,1.72,0,0,0-1.51.76v2.86h-.83Z" fill="#666"/><path d="M190.71,19.75a2.14,2.14,0,0,1-2.29-2.31,2.08,2.08,0,0,1,2-2.27c1.11,0,1.84.73,1.84,2.11v.32h-3a1.39,1.39,0,0,0,1.53,1.49,2.83,2.83,0,0,0,1.2-.24l.14.61A3.2,3.2,0,0,1,190.71,19.75ZM189.29,17h2.2c-.05-.87-.46-1.22-1.07-1.22S189.4,16.22,189.29,17Z" fill="#666"/><path d="M195.49,19.23a1.45,1.45,0,0,1-1.14.53,1.37,1.37,0,0,1-1.45-1.44,1.42,1.42,0,0,1,1.57-1.41,1.54,1.54,0,0,1,1,.33v-.47c0-.72-.4-1-1.05-1a2.5,2.5,0,0,0-1.07.25l-.18-.59a3,3,0,0,1,1.4-.31c1.18,0,1.74.54,1.74,1.54v3h-.83Zm0-.48v-1a1.34,1.34,0,0,0-.86-.31c-.52,0-.93.24-.93.83a.82.82,0,0,0,.87.89A1.14,1.14,0,0,0,195.49,18.76Z" fill="#666"/><path d="M198.76,15.86c-.49,0-.78.14-.78.55,0,.6.88.58,1.56.91a1.08,1.08,0,0,1,.64,1.08c0,.83-.62,1.36-1.66,1.36a3,3,0,0,1-1.44-.3l.19-.65a2.5,2.5,0,0,0,1.19.29c.68,0,.91-.28.91-.65,0-.64-.95-.59-1.58-1a1.1,1.1,0,0,1-.57-1c0-.81.6-1.25,1.51-1.25a3.5,3.5,0,0,1,1.34.23l-.18.65A2.83,2.83,0,0,0,198.76,15.86Z" fill="#666"/><path d="M203.15,19.75a2.14,2.14,0,0,1-2.29-2.31,2.08,2.08,0,0,1,2-2.27c1.11,0,1.84.73,1.84,2.11v.32h-3a1.39,1.39,0,0,0,1.53,1.49,2.83,2.83,0,0,0,1.2-.24l.14.61A3.2,3.2,0,0,1,203.15,19.75ZM201.72,17h2.2c-.05-.87-.46-1.22-1.07-1.22S201.84,16.22,201.72,17Z" fill="#666"/><path d="M76.89,1.26h1.93V8.75H76.89Z" fill="#231f20"/><path d="M80,8.75V3.36h1.81V4a1.94,1.94,0,0,1,1.58-.78c1.27,0,1.73.87,1.73,2V8.75H83.31V5.38c0-.51-.2-.75-.67-.75a.94.94,0,0,0-.83.52v3.6Z" fill="#231f20"/><path d="M90.25,8.5a3.44,3.44,0,0,1-1.61.34,2.67,2.67,0,0,1-2.89-2.77,2.77,2.77,0,0,1,3-2.84,3.7,3.7,0,0,1,1.53.28l-.45,1.4a2.22,2.22,0,0,0-1-.21,1.2,1.2,0,0,0-1.24,1.35,1.19,1.19,0,0,0,1.24,1.33,2.58,2.58,0,0,0,1-.22Z" fill="#231f20"/><path d="M93.37,8.9a2.68,2.68,0,0,1-2.81-2.81,2.81,2.81,0,1,1,5.63,0A2.68,2.68,0,0,1,93.37,8.9Zm0-1.41c.51,0,1-.35,1-1.42s-.48-1.47-1-1.47-1,.41-1,1.47S92.88,7.49,93.37,7.49Z" fill="#231f20"/><path d="M96.84,8.75V3.36h1.81V4a1.69,1.69,0,0,1,1.48-.78,1.4,1.4,0,0,1,1.44.92,1.85,1.85,0,0,1,1.63-.92c1.2,0,1.73.88,1.73,2V8.75h-1.81V5.39c0-.51-.2-.76-.65-.76a.79.79,0,0,0-.68.37V8.75H100V5.39c0-.51-.21-.76-.66-.76a.83.83,0,0,0-.67.33V8.75Z" fill="#231f20"/><path d="M108.58,8.84c-1.67,0-3-.8-3-2.86a2.63,2.63,0,0,1,2.7-2.8,2.27,2.27,0,0,1,2.39,2.55V6.5H107.4c.13.64.56.94,1.44.94a3.53,3.53,0,0,0,1.37-.32l.27,1.29A3.86,3.86,0,0,1,108.58,8.84Zm-1.19-3.46h1.55c0-.59-.24-.92-.72-.92S107.47,4.84,107.39,5.39Z" fill="#231f20"/><path d="M115.45,10.77c-1.68,0-2.6-.4-2.6-1.22,0-.44.39-.75.85-.95a1.06,1.06,0,0,1-.44-.87,1.31,1.31,0,0,1,.81-1.23,1.64,1.64,0,0,1-.84-1.45,2,2,0,0,1,2.23-1.87,2.4,2.4,0,0,1,1.42.42,2.28,2.28,0,0,1,1.47-.41V4.44a4,4,0,0,0-.83,0,1.36,1.36,0,0,1,.12.61c0,1.14-1,1.76-2.18,1.76a3.2,3.2,0,0,1-.63-.06.35.35,0,0,0-.15.28c0,.17.13.26.41.26h1.51a1.55,1.55,0,0,1,1.75,1.56C118.34,10.18,117.25,10.77,115.45,10.77Zm1.21-1.56c0-.2-.11-.41-.54-.41h-1.63a.47.47,0,0,0-.22.39c0,.3.33.49,1.14.49C116.39,9.68,116.65,9.5,116.65,9.21Zm-1.22-3.41c.3,0,.61-.16.61-.76s-.31-.79-.61-.79-.61.2-.62.79S115.14,5.81,115.44,5.81Z" fill="#231f20"/><path d="M121.38,8.29a1.49,1.49,0,0,1-1.22.57,1.59,1.59,0,0,1-1.65-1.72,1.85,1.85,0,0,1,2.87-1.43V5.48c0-.71-.48-.88-1-.88a2.83,2.83,0,0,0-1.2.29l-.36-1.28a4.22,4.22,0,0,1,2-.42c1.8,0,2.45.85,2.45,2.2V8.75h-1.81Zm0-.77V6.61a1,1,0,0,0-.57-.18.57.57,0,0,0-.6.64.57.57,0,0,0,.6.64A1,1,0,0,0,121.38,7.53Z" fill="#231f20"/><path d="M125.89,8.18v2.47h-1.81V3.36h1.81v.51a2,2,0,0,1,1.48-.68c1.32,0,2.28.89,2.28,2.81s-1,2.88-2.31,2.88A1.72,1.72,0,0,1,125.89,8.18ZM127.81,6c0-1.07-.56-1.39-1-1.39a1.13,1.13,0,0,0-.9.37V7.11a1.19,1.19,0,0,0,.9.35C127.25,7.46,127.81,7.07,127.81,6Z" fill="#231f20"/><path d="M136.57,8.5a3.44,3.44,0,0,1-1.61.34,2.67,2.67,0,0,1-2.89-2.77,2.77,2.77,0,0,1,3-2.84,3.7,3.7,0,0,1,1.53.28l-.45,1.4a2.22,2.22,0,0,0-1-.21,1.2,1.2,0,0,0-1.24,1.35,1.19,1.19,0,0,0,1.24,1.33,2.58,2.58,0,0,0,1-.22Z" fill="#231f20"/><path d="M137.17,8.75V1H139V4a1.94,1.94,0,0,1,1.58-.78c1.27,0,1.73.87,1.73,2V8.75h-1.81V5.38c0-.51-.2-.75-.67-.75a.94.94,0,0,0-.83.52v3.6Z" fill="#231f20"/><path d="M145.75,8.29a1.49,1.49,0,0,1-1.22.57,1.59,1.59,0,0,1-1.65-1.72,1.85,1.85,0,0,1,2.87-1.43V5.48c0-.71-.48-.88-1-.88a2.83,2.83,0,0,0-1.2.29l-.36-1.28a4.22,4.22,0,0,1,2-.42c1.8,0,2.45.85,2.45,2.2V8.75h-1.81Zm0-.77V6.61a1,1,0,0,0-.57-.18.57.57,0,0,0-.6.64.57.57,0,0,0,.6.64A1,1,0,0,0,145.75,7.53Z" fill="#231f20"/><path d="M148.46,8.75V3.36h1.81V4a1.94,1.94,0,0,1,1.58-.78c1.27,0,1.73.87,1.73,2V8.75h-1.81V5.38c0-.51-.2-.75-.67-.75a.94.94,0,0,0-.83.52v3.6Z" fill="#231f20"/><path d="M156.54,10.77c-1.68,0-2.6-.4-2.6-1.22,0-.44.39-.75.85-.95a1.06,1.06,0,0,1-.44-.87,1.31,1.31,0,0,1,.81-1.23,1.64,1.64,0,0,1-.84-1.45,2,2,0,0,1,2.23-1.87,2.4,2.4,0,0,1,1.42.42,2.28,2.28,0,0,1,1.47-.41V4.44a4,4,0,0,0-.83,0,1.36,1.36,0,0,1,.12.61c0,1.14-1,1.76-2.18,1.76a3.2,3.2,0,0,1-.63-.06.35.35,0,0,0-.15.28c0,.17.13.26.41.26h1.51a1.55,1.55,0,0,1,1.75,1.56C159.44,10.18,158.35,10.77,156.54,10.77Zm1.21-1.56c0-.2-.11-.41-.54-.41h-1.63a.47.47,0,0,0-.22.39c0,.3.33.49,1.14.49C157.48,9.68,157.75,9.5,157.75,9.21Zm-1.22-3.41c.3,0,.61-.16.61-.76s-.31-.79-.61-.79-.61.2-.62.79S156.23,5.81,156.53,5.81Z" fill="#231f20"/><path d="M162.59,8.84c-1.67,0-3-.8-3-2.86a2.63,2.63,0,0,1,2.7-2.8,2.27,2.27,0,0,1,2.39,2.55V6.5h-3.23c.13.64.56.94,1.44.94a3.53,3.53,0,0,0,1.37-.32l.27,1.29A3.86,3.86,0,0,1,162.59,8.84Zm-1.19-3.46H163c0-.59-.24-.92-.72-.92S161.49,4.84,161.41,5.39Z" fill="#231f20"/><path d="M169.06,5.47a7,7,0,0,0,1.47,4.39v.09H169a6.48,6.48,0,0,1-1.7-4.48A6.5,6.5,0,0,1,169,1h1.5V1A7.69,7.69,0,0,0,169.06,5.47Z" fill="#231f20"/><path d="M170.8,8.75V7.65l2-2.24a3,3,0,0,0,.9-1.77.93.93,0,0,0-1.07-1,2.42,2.42,0,0,0-1.41.38l-.43-1.39a3.88,3.88,0,0,1,2.08-.52c1.72,0,2.56.91,2.56,2.29,0,1-.42,1.81-1.6,3l-.82.86h2.38V8.75Z" fill="#231f20"/><path d="M179.21,8.92c-1.58,0-3.08-1-3.08-3.87s1.5-3.95,3.08-3.95S182.3,2.24,182.3,5,180.8,8.92,179.21,8.92Zm0-1.48c.71,0,1.17-.66,1.17-2.41s-.46-2.45-1.17-2.45-1.16.69-1.16,2.45S178.51,7.44,179.21,7.44Z" fill="#231f20"/><path d="M186,8.92c-1.58,0-3.08-1-3.08-3.87S184.45,1.1,186,1.1s3.09,1.14,3.09,3.95S187.62,8.92,186,8.92Zm0-1.48c.71,0,1.17-.66,1.17-2.41s-.46-2.45-1.17-2.45-1.16.69-1.16,2.45S185.33,7.44,186,7.44Z" fill="#231f20"/><path d="M190,8.75l2.28-6.08h-2.77V1.26h4.79v1.1l-2.4,6.39Z" fill="#231f20"/><path d="M194.88,6.25V5h2.83V6.25Z" fill="#231f20"/><path d="M198.32,8.75V7.65l2-2.24a3,3,0,0,0,.9-1.77.93.93,0,0,0-1.07-1,2.42,2.42,0,0,0-1.41.38l-.43-1.39a3.88,3.88,0,0,1,2.08-.52c1.72,0,2.56.91,2.56,2.29,0,1-.42,1.81-1.6,3l-.82.86h2.38V8.75Z" fill="#231f20"/><path d="M206.73,8.92c-1.58,0-3.08-1-3.08-3.87s1.5-3.95,3.08-3.95,3.09,1.14,3.09,3.95S208.32,8.92,206.73,8.92Zm0-1.48c.71,0,1.17-.66,1.17-2.41s-.46-2.45-1.17-2.45-1.16.69-1.16,2.45S206,7.44,206.73,7.44Z" fill="#231f20"/><path d="M211.62,3.25l-1.18.85V2.55l1.92-1.35h1.14V8.75h-1.88Z" fill="#231f20"/><path d="M217.21,7.23h-2.95V6.13l2.27-4.87H219V5.94h.85V7.23H219V8.75h-1.79Zm0-4.36-1.43,3.07h1.43Z" fill="#231f20"/><path d="M220,1h1.5a6.5,6.5,0,0,1,1.7,4.51,6.48,6.48,0,0,1-1.7,4.48H220V9.85a7,7,0,0,0,1.47-4.39A7.69,7.69,0,0,0,220,1Z" fill="#231f20"/><rect x="200.88" y="29.17" width="27" height="8" fill="#efefef" stroke="#dedddd" stroke-miterlimit="10" stroke-width="0.5"/><path d="M203.43,35.38V30.66h.69l2.32,3.68V30.66H207v4.72h-.65L204,31.62v3.76Z" fill="#666"/><path d="M209.55,35.48a1.68,1.68,0,0,1-1.69-1.78,1.7,1.7,0,1,1,3.39,0A1.67,1.67,0,0,1,209.55,35.48Zm0-.52c.55,0,1-.43,1-1.26s-.49-1.31-1-1.31-1,.48-1,1.31S209,35,209.55,35Z" fill="#666"/><path d="M215.83,34.91a1.44,1.44,0,0,1-1.09.56c-.84,0-1.5-.57-1.5-1.76a1.65,1.65,0,0,1,1.54-1.83,1.33,1.33,0,0,1,1,.49V30.43h.65v5h-.65Zm0-.45V32.8a1.16,1.16,0,0,0-.9-.41c-.53,0-1,.43-1,1.32s.48,1.24,1,1.24A1.17,1.17,0,0,0,215.83,34.46Z" fill="#666"/><path d="M219.21,35a1.13,1.13,0,0,1-.89.41,1.07,1.07,0,0,1-1.13-1.12,1.1,1.1,0,0,1,1.22-1.1,1.19,1.19,0,0,1,.8.26v-.36c0-.56-.31-.74-.82-.74a2,2,0,0,0-.83.2l-.14-.46a2.31,2.31,0,0,1,1.09-.25c.92,0,1.35.42,1.35,1.2v2.3h-.64Zm0-.37v-.76a1,1,0,0,0-.67-.24c-.41,0-.72.19-.72.64a.64.64,0,0,0,.68.69A.89.89,0,0,0,219.21,34.67Z" fill="#666"/><path d="M220.88,34.32V32.48h-.43V32h.43V31h.64v1h.81v.5h-.81v1.8c0,.5.17.63.49.63a1.1,1.1,0,0,0,.32,0v.5a1.55,1.55,0,0,1-.44.06C221.26,35.41,220.88,35.09,220.88,34.32Z" fill="#666"/><path d="M224.88,35a1.13,1.13,0,0,1-.89.41,1.07,1.07,0,0,1-1.13-1.12,1.1,1.1,0,0,1,1.22-1.1,1.19,1.19,0,0,1,.8.26v-.36c0-.56-.31-.74-.82-.74a2,2,0,0,0-.83.2l-.14-.46a2.31,2.31,0,0,1,1.09-.25c.92,0,1.35.42,1.35,1.2v2.3h-.64Zm0-.37v-.76a1,1,0,0,0-.67-.24c-.41,0-.72.19-.72.64a.64.64,0,0,0,.68.69A.89.89,0,0,0,224.88,34.67Z" fill="#666"/></g></svg>