<svg xmlns="http://www.w3.org/2000/svg" viewBox="0 0 300 53"><title>9520-legend</title><g id="Work_area" data-name="Work area"><rect x="148.7" y="28.95" width="17.91" height="8" fill="#fde0ef"/><rect x="130.97" y="28.95" width="17.91" height="8" fill="#f1b6da"/><rect x="113.24" y="28.95" width="17.91" height="8" fill="#de77ae"/><rect x="95.51" y="28.95" width="17.91" height="8" fill="#c51b7d"/><rect x="77.78" y="28.95" width="17.91" height="8" fill="#8e0152"/><rect x="166.8" y="28.95" width="17.91" height="8" fill="#e6f5d0"/><line x1="95.67" y1="29.64" x2="95.67" y2="42.64" fill="none" stroke="#666" stroke-linecap="round" stroke-linejoin="round" stroke-width="0.7"/><line x1="113.45" y1="29.64" x2="113.45" y2="42.64" fill="none" stroke="#666" stroke-linecap="round" stroke-linejoin="round" stroke-width="0.7"/><line x1="131.23" y1="29.64" x2="131.23" y2="42.64" fill="none" stroke="#666" stroke-linecap="round" stroke-linejoin="round" stroke-width="0.7"/><line x1="149.01" y1="29.64" x2="149.01" y2="42.64" fill="none" stroke="#666" stroke-linecap="round" stroke-linejoin="round" stroke-width="0.7"/><line x1="166.8" y1="29.64" x2="166.8" y2="42.64" fill="none" stroke="#666" stroke-linecap="round" stroke-linejoin="round" stroke-width="0.7"/><text transform="translate(65.67 51.41)" font-size="9" fill="#656565" font-family="McClatchySansText-Regular, McClatchy Sans Text"><tspan letter-spacing="1.12em">	</tspan><tspan x="11.99" y="0" letter-spacing="0.92em">	</tspan><tspan x="22.15" y="0" letter-spacing="0.01em">2</tspan><tspan x="26.42" y="0">3%</tspan><tspan x="36.91" y="0" letter-spacing="0.19em">	</tspan><tspan x="40.55" y="0" letter-spacing="0em">16</tspan><tspan x="48.68" y="0">%</tspan><tspan x="55" y="0" letter-spacing="0.37em">	</tspan><tspan x="60.25" y="0">9%</tspan><tspan x="71.48" y="0" letter-spacing="0.52em">	</tspan><tspan x="78.07" y="0" letter-spacing="0em">6</tspan><tspan x="82.94" y="0">%</tspan><tspan x="89.26" y="0" letter-spacing="0.79em">	</tspan><tspan x="98.31" y="0">0</tspan><tspan x="103.79" y="0" letter-spacing="2.24em">	</tspan></text><line x1="170.4" y1="23.67" x2="184.44" y2="23.67" fill="none" stroke="#666" stroke-linecap="round" stroke-linejoin="round" stroke-width="0.7"/><polygon points="187.9 23.67 183.02 25.66 184.18 23.67 183.02 21.68 187.9 23.67" fill="#666"/><line x1="149.63" y1="23.67" x2="163.17" y2="23.67" fill="none" stroke="#666" stroke-linecap="round" stroke-linejoin="round" stroke-width="0.7"/><polygon points="146.17 23.67 151.04 25.66 149.88 23.67 151.04 21.68 146.17 23.67" fill="#666"/><text transform="translate(131.5 19.67)" font-size="9" fill="#666" font-family="McClatchySansText-Regular, McClatchy Sans Text">Inc<tspan x="11.59" y="0" letter-spacing="-0.01em">r</tspan><tspan x="14.71" y="0">ease</tspan></text><text transform="translate(170.4 19.67)" font-size="9" fill="#666" font-family="McClatchySansText-Regular, McClatchy Sans Text"><tspan letter-spacing="-0.01em">D</tspan><tspan x="5.83" y="0">ec</tspan><tspan x="14.56" y="0" letter-spacing="-0.01em">r</tspan><tspan x="17.69" y="0" letter-spacing="0em">ease</tspan></text><text transform="translate(70.23 8.75)" font-size="10" fill="#231f20" font-family="McClatchySans-Bold, McClatchy Sans" font-weight="700" letter-spacing="-0.01em">Cha<tspan x="17.75" y="0" letter-spacing="-0.01em">n</tspan><tspan x="23.7" y="0" letter-spacing="-0.03em">g</tspan><tspan x="29.13" y="0">e in income </tspan><tspan x="83.45" y="0" letter-spacing="-0.03em">g</tspan><tspan x="88.93" y="0" letter-spacing="-0.01em">ap (</tspan><tspan x="106.2" y="0" letter-spacing="0em">2</tspan><tspan x="111.42" y="0">0</tspan><tspan x="118.24" y="0" letter-spacing="-0.03em">0</tspan><tspan x="124.91" y="0">7-</tspan><tspan x="133.72" y="0" letter-spacing="-0.01em">2</tspan><tspan x="138.94" y="0" letter-spacing="-0.01em">0</tspan><tspan x="145.76" y="0" letter-spacing="-0.03em">1</tspan><tspan x="149.71" y="0">4)</tspan></text><rect x="200.88" y="29.17" width="27" height="8" fill="#efefef" stroke="#dedddd" stroke-miterlimit="10" stroke-width="0.5"/><text transform="translate(202.82 35.38)" font-size="7" fill="#666" font-family="McClatchySansText-Regular, McClatchy Sans Text"><tspan letter-spacing="0em">N</tspan><tspan x="4.77" y="0">o data</tspan></text></g></svg>