<svg xmlns="http://www.w3.org/2000/svg" viewBox="0 0 300 53"><title>employment-legend</title><g id="Work_area" data-name="Work area"><rect x="131.31" y="29.67" width="17.91" height="8" fill="#fde0ef"/><rect x="113.58" y="29.67" width="17.91" height="8" fill="#e9a3c9"/><rect x="95.85" y="29.67" width="17.91" height="8" fill="#c51b7d"/><rect x="149.41" y="29.67" width="17.91" height="8" fill="#e6f5d0"/><rect x="167.14" y="29.67" width="17.91" height="8" fill="#a1d76a"/><rect x="184.87" y="29.67" width="17.91" height="8" fill="#4d9221"/><line x1="113.84" y1="30.35" x2="113.84" y2="43.35" fill="none" stroke="#666" stroke-linecap="round" stroke-linejoin="round" stroke-width="0.7"/><line x1="131.63" y1="30.35" x2="131.63" y2="43.35" fill="none" stroke="#666" stroke-linecap="round" stroke-linejoin="round" stroke-width="0.7"/><line x1="149.41" y1="30.35" x2="149.41" y2="43.35" fill="none" stroke="#666" stroke-linecap="round" stroke-linejoin="round" stroke-width="0.7"/><line x1="167.19" y1="30.35" x2="167.19" y2="43.35" fill="none" stroke="#666" stroke-linecap="round" stroke-linejoin="round" stroke-width="0.7"/><line x1="184.97" y1="30.35" x2="184.97" y2="43.35" fill="none" stroke="#666" stroke-linecap="round" stroke-linejoin="round" stroke-width="0.7"/><path d="M104.46,49.2v-.68h2.2v.68Z" fill="#656565"/><path d="M108.7,46.41l-1.21,1v-.82L109,45.29h.52v6.12h-.86Z" fill="#656565"/><path d="M113.15,51.54c-1.21,0-2.32-.91-2.31-3.12s1.11-3.19,2.31-3.19,2.33,1,2.32,3.19S114.37,51.54,113.15,51.54Zm0-.68c.82,0,1.43-.77,1.43-2.45s-.61-2.49-1.43-2.49-1.41.81-1.42,2.49S112.34,50.85,113.15,50.85Z" fill="#656565"/><path d="M117.54,48.38a1.37,1.37,0,0,1-1.31-1.56c0-1.05.63-1.61,1.31-1.61a1.42,1.42,0,0,1,1.32,1.61A1.38,1.38,0,0,1,117.54,48.38Zm3.26-3h.59l-4.07,6.07h-.6Zm-3.26,2.49c.34,0,.63-.29.63-1s-.29-1.05-.63-1.05-.62.33-.62,1.05S117.21,47.83,117.54,47.83Zm3,3.67a1.38,1.38,0,0,1-1.31-1.57c0-1.05.63-1.6,1.31-1.6s1.31.55,1.31,1.6A1.39,1.39,0,0,1,120.57,51.51Zm0-.55c.32,0,.63-.3.63-1s-.31-1.05-.63-1.05-.63.33-.63,1.05S120.22,51,120.57,51Z" fill="#656565"/><path d="M125,49.2v-.68h2.2v.68Z" fill="#656565"/><path d="M127.81,51.12l.23-.64a2.48,2.48,0,0,0,1.32.34,1.28,1.28,0,0,0,1.35-1.36c0-.9-.59-1.31-1.57-1.31a2.31,2.31,0,0,0-.81.11l0,0,.37-2.9h2.73V46h-2.07l-.2,1.48c1.59-.12,2.44.73,2.44,2a2,2,0,0,1-2.14,2.06A2.91,2.91,0,0,1,127.81,51.12Z" fill="#656565"/><path d="M133.52,48.38a1.37,1.37,0,0,1-1.31-1.56c0-1.05.63-1.61,1.31-1.61a1.42,1.42,0,0,1,1.32,1.61A1.38,1.38,0,0,1,133.52,48.38Zm3.26-3h.59l-4.07,6.07h-.6Zm-3.26,2.49c.34,0,.63-.29.63-1s-.29-1.05-.63-1.05-.62.33-.62,1.05S133.19,47.83,133.52,47.83Zm3,3.67a1.38,1.38,0,0,1-1.31-1.57c0-1.05.63-1.6,1.31-1.6s1.31.55,1.31,1.6A1.39,1.39,0,0,1,136.55,51.51Zm0-.55c.32,0,.63-.3.63-1s-.31-1.05-.63-1.05-.63.33-.63,1.05S136.2,51,136.55,51Z" fill="#656565"/><path d="M149.42,51.54c-1.21,0-2.32-.91-2.31-3.12s1.11-3.19,2.31-3.19,2.33,1,2.32,3.19S150.63,51.54,149.42,51.54Zm0-.68c.82,0,1.43-.77,1.43-2.45s-.61-2.49-1.43-2.49S148,46.72,148,48.4,148.61,50.85,149.42,50.85Z" fill="#656565"/><path d="M162.1,51.12l.23-.64a2.48,2.48,0,0,0,1.32.34A1.28,1.28,0,0,0,165,49.46c0-.9-.59-1.31-1.57-1.31a2.31,2.31,0,0,0-.81.11l0,0,.37-2.9h2.73V46h-2.07l-.2,1.48c1.59-.12,2.44.73,2.44,2a2,2,0,0,1-2.14,2.06A2.91,2.91,0,0,1,162.1,51.12Z" fill="#656565"/><path d="M167.81,48.38a1.37,1.37,0,0,1-1.31-1.56c0-1.05.63-1.61,1.31-1.61a1.42,1.42,0,0,1,1.32,1.61A1.38,1.38,0,0,1,167.81,48.38Zm3.26-3h.59l-4.07,6.07H167Zm-3.26,2.49c.34,0,.63-.29.63-1s-.29-1.05-.63-1.05-.62.33-.62,1.05S167.48,47.83,167.81,47.83Zm3,3.67a1.38,1.38,0,0,1-1.31-1.57c0-1.05.63-1.6,1.31-1.6s1.31.55,1.31,1.6A1.39,1.39,0,0,1,170.83,51.51Zm0-.55c.32,0,.63-.3.63-1s-.31-1.05-.63-1.05-.63.33-.63,1.05S170.49,51,170.83,51Z" fill="#656565"/><path d="M179.25,46.41l-1.21,1v-.82l1.55-1.34h.52v6.12h-.86Z" fill="#656565"/><path d="M183.7,51.54c-1.21,0-2.32-.91-2.31-3.12s1.11-3.19,2.31-3.19,2.33,1,2.32,3.19S184.91,51.54,183.7,51.54Zm0-.68c.82,0,1.43-.77,1.43-2.45s-.61-2.49-1.43-2.49-1.41.81-1.42,2.49S182.89,50.85,183.7,50.85Z" fill="#656565"/><path d="M188.09,48.38a1.37,1.37,0,0,1-1.31-1.56c0-1.05.63-1.61,1.31-1.61a1.42,1.42,0,0,1,1.32,1.61A1.38,1.38,0,0,1,188.09,48.38Zm3.26-3h.59l-4.07,6.07h-.6Zm-3.26,2.49c.34,0,.63-.29.63-1s-.29-1.05-.63-1.05-.62.33-.62,1.05S187.76,47.83,188.09,47.83Zm3,3.67a1.38,1.38,0,0,1-1.31-1.57c0-1.05.63-1.6,1.31-1.6s1.31.55,1.31,1.6A1.39,1.39,0,0,1,191.11,51.51Zm0-.55c.32,0,.63-.3.63-1s-.31-1.05-.63-1.05-.63.33-.63,1.05S190.77,51,191.11,51Z" fill="#656565"/><line x1="152.44" y1="25.17" x2="168.48" y2="25.17" fill="none" stroke="#666" stroke-linecap="round" stroke-linejoin="round" stroke-width="0.7"/><polygon points="171.94 25.17 167.07 27.16 168.22 25.17 167.07 23.18 171.94 25.17" fill="#666"/><line x1="129.67" y1="25.17" x2="145.21" y2="25.17" fill="none" stroke="#666" stroke-linecap="round" stroke-linejoin="round" stroke-width="0.7"/><polygon points="126.21 25.17 131.09 27.16 129.93 25.17 131.09 23.18 126.21 25.17" fill="#666"/><path d="M90.8,16.1h1.72a2.87,2.87,0,0,1,3,3.07,2.81,2.81,0,0,1-3,3H90.8Zm.89.67v4.71h.79a2,2,0,0,0,2.08-2.32,2.1,2.1,0,0,0-2.1-2.39Z" fill="#666"/><path d="M98.48,22.25a2.14,2.14,0,0,1-2.29-2.31,2.08,2.08,0,0,1,2-2.27c1.11,0,1.84.73,1.84,2.11v.32H97a1.39,1.39,0,0,0,1.53,1.49,2.83,2.83,0,0,0,1.2-.24l.14.61A3.2,3.2,0,0,1,98.48,22.25ZM97.06,19.5h2.2c-.05-.87-.46-1.22-1.07-1.22S97.17,18.72,97.06,19.5Z" fill="#666"/><path d="M104.26,22a2.81,2.81,0,0,1-1.32.28A2.1,2.1,0,0,1,100.71,20,2.18,2.18,0,0,1,103,17.7a2.9,2.9,0,0,1,1.28.26l-.21.67a2.14,2.14,0,0,0-1-.24A1.45,1.45,0,0,0,101.56,20,1.39,1.39,0,0,0,103,21.56a2.38,2.38,0,0,0,1.06-.23Z" fill="#666"/><path d="M105.2,17.8H106v.87a1.86,1.86,0,0,1,1.51-.94v.81a1.72,1.72,0,0,0-1.51.76v2.86h-.83Z" fill="#666"/><path d="M110.33,22.25A2.14,2.14,0,0,1,108,19.93a2.08,2.08,0,0,1,2-2.27c1.11,0,1.84.73,1.84,2.11v.32h-3a1.39,1.39,0,0,0,1.53,1.49,2.83,2.83,0,0,0,1.2-.24l.14.61A3.2,3.2,0,0,1,110.33,22.25Zm-1.42-2.75h2.2c-.05-.87-.46-1.22-1.07-1.22S109,18.72,108.91,19.5Z" fill="#666"/><path d="M116.11,22a2.81,2.81,0,0,1-1.32.28A2.1,2.1,0,0,1,112.56,20a2.18,2.18,0,0,1,2.28-2.3,2.9,2.9,0,0,1,1.28.26l-.21.67a2.14,2.14,0,0,0-1-.24A1.45,1.45,0,0,0,113.41,20a1.39,1.39,0,0,0,1.45,1.57,2.38,2.38,0,0,0,1.06-.23Z" fill="#666"/><path d="M117.5,15.92a.47.47,0,0,1,0,.94.47.47,0,1,1,0-.94Zm-.42,1.88h.84v4.37h-.84Z" fill="#666"/><path d="M119.2,22.17V17.8H120v.59a1.48,1.48,0,0,1,1.28-.73,1.11,1.11,0,0,1,1.21.85,1.54,1.54,0,0,1,1.39-.85c.89,0,1.34.55,1.34,1.54v3h-.84V19.3c0-.7-.24-1-.79-1a1.16,1.16,0,0,0-1,.65v3.2h-.84V19.3c0-.7-.25-1-.81-1a1.16,1.16,0,0,0-1,.62v3.22Z" fill="#666"/><path d="M126.88,15.92a.47.47,0,0,1,0,.94.47.47,0,1,1,0-.94Zm-.42,1.88h.84v4.37h-.84Z" fill="#666"/><path d="M130.58,22.25a2.14,2.14,0,0,1-2.29-2.31,2.08,2.08,0,0,1,2-2.27c1.11,0,1.84.73,1.84,2.11v.32h-3a1.39,1.39,0,0,0,1.53,1.49,2.83,2.83,0,0,0,1.2-.24L132,22A3.2,3.2,0,0,1,130.58,22.25Zm-1.42-2.75h2.2c-.05-.87-.46-1.22-1.07-1.22S129.28,18.72,129.16,19.5Z" fill="#666"/><path d="M133.09,22.17V17.8h.83v.62a1.74,1.74,0,0,1,1.41-.76c.95,0,1.42.55,1.42,1.54v3h-.83V19.29c0-.7-.31-1-.89-1a1.38,1.38,0,0,0-1.12.7v3.14Z" fill="#666"/><path d="M138,20.81V18.44h-.56V17.8H138V16.48h.83V17.8h1v.64h-1v2.31c0,.64.22.81.63.81a1.43,1.43,0,0,0,.41-.06v.64a2,2,0,0,1-.57.07C138.5,22.21,138,21.8,138,20.81Z" fill="#666"/><path d="M142.69,22.29A2.16,2.16,0,0,1,140.52,20a2.18,2.18,0,1,1,4.36,0A2.15,2.15,0,0,1,142.69,22.29Zm0-.67c.7,0,1.34-.56,1.34-1.62s-.63-1.68-1.34-1.68-1.33.61-1.33,1.68S142,21.63,142.69,21.63Z" fill="#666"/><path d="M154.9,16h.68l2.22,6.12h-.89l-.53-1.49H154l-.53,1.49h-.78Zm.28,1.26-1,2.73h1.94Z" fill="#666"/><path d="M161.29,21.55a1.61,1.61,0,0,1-1.36.76c-.91,0-1.42-.53-1.42-1.53v-3h.83v2.88c0,.71.29,1,.86,1a1.38,1.38,0,0,0,1.09-.66V17.8h.83v4.37h-.83Z" fill="#666"/><path d="M163.36,22.17V17.8h.83v.59a1.48,1.48,0,0,1,1.28-.73,1.11,1.11,0,0,1,1.21.85,1.54,1.54,0,0,1,1.39-.85c.89,0,1.34.55,1.34,1.54v3h-.84V19.3c0-.7-.24-1-.79-1a1.16,1.16,0,0,0-1,.65v3.2H166V19.3c0-.7-.25-1-.81-1a1.16,1.16,0,0,0-1,.62v3.22Z" fill="#666"/><path d="M172.6,22.25a2.14,2.14,0,0,1-2.29-2.31,2.08,2.08,0,0,1,2-2.27c1.11,0,1.84.73,1.84,2.11v.32h-3a1.39,1.39,0,0,0,1.53,1.49,2.83,2.83,0,0,0,1.2-.24L174,22A3.2,3.2,0,0,1,172.6,22.25Zm-1.42-2.75h2.2c-.05-.87-.46-1.22-1.07-1.22S171.3,18.72,171.18,19.5Z" fill="#666"/><path d="M175.11,22.17V17.8h.83v.62a1.74,1.74,0,0,1,1.41-.76c.95,0,1.42.55,1.42,1.54v3H178V19.29c0-.7-.31-1-.89-1a1.38,1.38,0,0,0-1.12.7v3.14Z" fill="#666"/><path d="M180,20.81V18.44h-.56V17.8H180V16.48h.83V17.8h1v.64h-1v2.31c0,.64.22.81.63.81a1.43,1.43,0,0,0,.41-.06v.64a2,2,0,0,1-.57.07C180.52,22.21,180,21.8,180,20.81Z" fill="#666"/><path d="M184.72,22.29A2.16,2.16,0,0,1,182.54,20a2.18,2.18,0,1,1,4.36,0A2.15,2.15,0,0,1,184.72,22.29Zm0-.67c.7,0,1.34-.56,1.34-1.62s-.63-1.68-1.34-1.68-1.33.61-1.33,1.68S184,21.63,184.72,21.63Z" fill="#666"/><path d="M54.66,8.35a3.89,3.89,0,0,1-2.11.52,3.54,3.54,0,0,1-3.79-3.78,3.65,3.65,0,0,1,3.8-3.94,4.59,4.59,0,0,1,2,.37L54.12,3a2.89,2.89,0,0,0-1.29-.31,2,2,0,0,0-2.1,2.34,1.94,1.94,0,0,0,2,2.22,2.9,2.9,0,0,0,1.45-.38Z" fill="#231f20"/><path d="M58,8.29a1.49,1.49,0,0,1-1.22.57,1.59,1.59,0,0,1-1.65-1.72A1.85,1.85,0,0,1,58,5.72V5.48c0-.71-.48-.88-1-.88a2.83,2.83,0,0,0-1.2.29L55.4,3.61a4.22,4.22,0,0,1,2-.42c1.8,0,2.45.85,2.45,2.2V8.75H58Zm0-.77V6.61a1,1,0,0,0-.57-.18.57.57,0,0,0-.6.64.57.57,0,0,0,.6.64A1,1,0,0,0,58,7.53Z" fill="#231f20"/><path d="M60.71,8.75V3.36h1.81V4A1.69,1.69,0,0,1,64,3.19a1.4,1.4,0,0,1,1.44.92,1.85,1.85,0,0,1,1.63-.92c1.2,0,1.73.88,1.73,2V8.75H67V5.39c0-.51-.2-.76-.65-.76a.79.79,0,0,0-.68.37V8.75H63.85V5.39c0-.51-.21-.76-.66-.76a.83.83,0,0,0-.67.33V8.75Z" fill="#231f20"/><path d="M71.5,8.18v.57H69.69V1H71.5V3.87A2,2,0,0,1,73,3.19c1.32,0,2.28.89,2.28,2.81s-1,2.88-2.31,2.88A1.72,1.72,0,0,1,71.5,8.18ZM73.43,6c0-1.07-.56-1.39-1-1.39a1.13,1.13,0,0,0-.9.37V7.11a1.19,1.19,0,0,0,.9.35C72.87,7.46,73.43,7.07,73.43,6Z" fill="#231f20"/><path d="M76.82,1a.93.93,0,0,1,1,.95,1,1,0,0,1-1.94,0A.93.93,0,0,1,76.82,1Zm-.91,2.37h1.81V8.75H75.91Z" fill="#231f20"/><path d="M81.19,8.9a2.68,2.68,0,0,1-2.81-2.81,2.81,2.81,0,1,1,5.63,0A2.68,2.68,0,0,1,81.19,8.9Zm0-1.41c.51,0,1-.35,1-1.42s-.48-1.47-1-1.47-1,.41-1,1.47S80.7,7.49,81.19,7.49Z" fill="#231f20"/><path d="M86.68,4.51c-.37,0-.66.08-.66.35s.89.34,1.64.71A1.44,1.44,0,0,1,88.5,7c0,1.22-.91,1.86-2.26,1.86a3.73,3.73,0,0,1-1.9-.4l.36-1.26a3.08,3.08,0,0,0,1.38.35c.52,0,.74-.16.74-.39,0-.42-1.15-.32-1.84-.87A1.53,1.53,0,0,1,84.44,5c0-1.2.86-1.79,2.14-1.79a4.18,4.18,0,0,1,1.79.34L88,4.82A3.36,3.36,0,0,0,86.68,4.51Z" fill="#231f20"/><path d="M93.91,8.84c-1.67,0-3-.8-3-2.86a2.63,2.63,0,0,1,2.7-2.8A2.27,2.27,0,0,1,96,5.74V6.5H92.73c.13.64.56.94,1.44.94a3.53,3.53,0,0,0,1.37-.32l.27,1.29A3.86,3.86,0,0,1,93.91,8.84ZM92.72,5.39h1.55c0-.59-.24-.92-.72-.92S92.8,4.84,92.72,5.39Z" fill="#231f20"/><path d="M96.62,8.75V3.36h1.81V4A1.94,1.94,0,0,1,100,3.19c1.27,0,1.73.87,1.73,2V8.75H99.93V5.38c0-.51-.2-.75-.67-.75a.94.94,0,0,0-.83.52v3.6Z" fill="#231f20"/><path d="M107.4,8.84c-1.67,0-3-.8-3-2.86a2.63,2.63,0,0,1,2.7-2.8,2.27,2.27,0,0,1,2.39,2.55V6.5h-3.23c.13.64.56.94,1.44.94A3.53,3.53,0,0,0,109,7.12l.27,1.29A3.86,3.86,0,0,1,107.4,8.84Zm-1.19-3.46h1.55c0-.59-.24-.92-.72-.92S106.29,4.84,106.21,5.39Z" fill="#231f20"/><path d="M110.15,1H112V8.75h-1.81Z" fill="#231f20"/><path d="M114.95,3.36h1.81V8.75h-1.81Zm1-2.3h1.81v.08l-1.34,1.65h-1.38Z" fill="#231f20"/><path d="M117.7,8.75V3.36h1.81V4a1.94,1.94,0,0,1,1.58-.78c1.27,0,1.73.87,1.73,2V8.75H121V5.38c0-.51-.2-.75-.67-.75a.94.94,0,0,0-.83.52v3.6Z" fill="#231f20"/><path d="M127.18,8.2a2,2,0,0,1-1.48.68c-1.32,0-2.28-.89-2.28-2.81s1-2.88,2.31-2.88a1.72,1.72,0,0,1,1.45.7V1H129V8.75h-1.81Zm0-1.11V5a1.19,1.19,0,0,0-.9-.35c-.47,0-1,.39-1,1.46s.56,1.39,1,1.39A1.14,1.14,0,0,0,127.18,7.09Z" fill="#231f20"/><path d="M130.83,1a.93.93,0,0,1,1,.95,1,1,0,0,1-1.94,0A.93.93,0,0,1,130.83,1Zm-.91,2.37h1.81V8.75h-1.81Z" fill="#231f20"/><path d="M136.91,8.5a3.44,3.44,0,0,1-1.61.34,2.67,2.67,0,0,1-2.89-2.77,2.77,2.77,0,0,1,3-2.84,3.7,3.7,0,0,1,1.53.28l-.45,1.4a2.22,2.22,0,0,0-1-.21,1.2,1.2,0,0,0-1.24,1.35,1.19,1.19,0,0,0,1.24,1.33,2.58,2.58,0,0,0,1-.22Z" fill="#231f20"/><path d="M140.27,8.84c-1.67,0-3-.8-3-2.86a2.63,2.63,0,0,1,2.7-2.8,2.27,2.27,0,0,1,2.39,2.55V6.5h-3.23c.13.64.56.94,1.44.94a3.53,3.53,0,0,0,1.37-.32l.27,1.29A3.86,3.86,0,0,1,140.27,8.84Zm-1.19-3.46h1.55c0-.59-.24-.92-.72-.92S139.16,4.84,139.08,5.39Z" fill="#231f20"/><path d="M148.47,8.2a2,2,0,0,1-1.48.68c-1.32,0-2.28-.89-2.28-2.81s1-2.88,2.31-2.88a1.72,1.72,0,0,1,1.45.7V1h1.81V8.75h-1.81Zm0-1.11V5a1.19,1.19,0,0,0-.9-.35c-.47,0-1,.39-1,1.46s.56,1.39,1,1.39A1.14,1.14,0,0,0,148.47,7.09Z" fill="#231f20"/><path d="M154,8.84c-1.67,0-3-.8-3-2.86a2.63,2.63,0,0,1,2.7-2.8A2.27,2.27,0,0,1,156,5.74V6.5h-3.23c.13.64.56.94,1.44.94a3.53,3.53,0,0,0,1.37-.32l.27,1.29A3.86,3.86,0,0,1,154,8.84Zm-1.19-3.46h1.55c0-.59-.24-.92-.72-.92S152.87,4.84,152.79,5.39Z" fill="#231f20"/><path d="M161.46,8.84c-1.67,0-3-.8-3-2.86a2.63,2.63,0,0,1,2.7-2.8,2.27,2.27,0,0,1,2.39,2.55V6.5h-3.23c.13.64.56.94,1.44.94a3.53,3.53,0,0,0,1.37-.32l.27,1.29A3.86,3.86,0,0,1,161.46,8.84Zm-1.19-3.46h1.55c0-.59-.24-.92-.72-.92S160.35,4.84,160.27,5.39Z" fill="#231f20"/><path d="M164.18,8.75V3.36H166V4a1.69,1.69,0,0,1,1.48-.78,1.4,1.4,0,0,1,1.44.92,1.85,1.85,0,0,1,1.63-.92c1.2,0,1.73.88,1.73,2V8.75h-1.81V5.39c0-.51-.2-.76-.65-.76a.79.79,0,0,0-.68.37V8.75h-1.81V5.39c0-.51-.21-.76-.66-.76A.83.83,0,0,0,166,5V8.75Z" fill="#231f20"/><path d="M175,8.18v2.47h-1.81V3.36H175v.51a2,2,0,0,1,1.48-.68c1.32,0,2.28.89,2.28,2.81s-1,2.88-2.31,2.88A1.72,1.72,0,0,1,175,8.18ZM176.89,6c0-1.07-.56-1.39-1-1.39A1.13,1.13,0,0,0,175,5V7.11a1.19,1.19,0,0,0,.9.35C176.33,7.46,176.89,7.07,176.89,6Z" fill="#231f20"/><path d="M179.43,1h1.81V8.75h-1.81Z" fill="#231f20"/><path d="M185,8.84c-1.67,0-3-.8-3-2.86a2.63,2.63,0,0,1,2.7-2.8A2.27,2.27,0,0,1,187,5.74V6.5h-3.23c.13.64.56.94,1.44.94a3.53,3.53,0,0,0,1.37-.32l.27,1.29A3.86,3.86,0,0,1,185,8.84Zm-1.19-3.46h1.55c0-.59-.24-.92-.72-.92S183.85,4.84,183.77,5.39Z" fill="#231f20"/><path d="M190.2,8.9a2.68,2.68,0,0,1-2.81-2.81,2.81,2.81,0,1,1,5.63,0A2.68,2.68,0,0,1,190.2,8.9Zm0-1.41c.51,0,1-.35,1-1.42s-.48-1.47-1-1.47-1,.41-1,1.47S189.71,7.49,190.2,7.49Z" fill="#231f20"/><path d="M197.43,5.47a7,7,0,0,0,1.47,4.39v.09h-1.5a6.48,6.48,0,0,1-1.7-4.48A6.5,6.5,0,0,1,197.4,1h1.5V1A7.69,7.69,0,0,0,197.43,5.47Z" fill="#231f20"/><path d="M199.17,8.75V7.65l2-2.24a3,3,0,0,0,.9-1.77.93.93,0,0,0-1.07-1,2.42,2.42,0,0,0-1.41.38l-.43-1.39a3.88,3.88,0,0,1,2.08-.52c1.72,0,2.56.91,2.56,2.29,0,1-.42,1.81-1.6,3l-.82.86h2.38V8.75Z" fill="#231f20"/><path d="M207.58,8.92c-1.58,0-3.08-1-3.08-3.87S206,1.1,207.58,1.1s3.09,1.14,3.09,3.95S209.17,8.92,207.58,8.92Zm0-1.48c.71,0,1.17-.66,1.17-2.41s-.46-2.45-1.17-2.45-1.16.69-1.16,2.45S206.88,7.44,207.58,7.44Z" fill="#231f20"/><path d="M214.4,8.92c-1.58,0-3.08-1-3.08-3.87s1.5-3.95,3.08-3.95,3.09,1.14,3.09,3.95S216,8.92,214.4,8.92Zm0-1.48c.71,0,1.17-.66,1.17-2.41s-.46-2.45-1.17-2.45-1.16.69-1.16,2.45S213.7,7.44,214.4,7.44Z" fill="#231f20"/><path d="M218.38,8.75l2.28-6.08H217.9V1.26h4.79v1.1l-2.4,6.39Z" fill="#231f20"/><path d="M223.24,6.25V5h2.83V6.25Z" fill="#231f20"/><path d="M226.68,8.75V7.65l2-2.24a3,3,0,0,0,.9-1.77.93.93,0,0,0-1.07-1,2.42,2.42,0,0,0-1.41.38l-.43-1.39a3.88,3.88,0,0,1,2.08-.52c1.72,0,2.56.91,2.56,2.29,0,1-.42,1.81-1.6,3l-.82.86h2.38V8.75Z" fill="#231f20"/><path d="M235.1,8.92c-1.58,0-3.08-1-3.08-3.87s1.5-3.95,3.08-3.95,3.09,1.14,3.09,3.95S236.69,8.92,235.1,8.92Zm0-1.48c.71,0,1.17-.66,1.17-2.41s-.46-2.45-1.17-2.45-1.16.69-1.16,2.45S234.4,7.44,235.1,7.44Z" fill="#231f20"/><path d="M240,3.25l-1.18.85V2.55l1.92-1.35h1.14V8.75H240Z" fill="#231f20"/><path d="M242.71,8.48l.43-1.39a2.88,2.88,0,0,0,1.29.3c.78,0,1.27-.39,1.27-1.14s-.49-1.1-1.39-1.1a2.84,2.84,0,0,0-1,.16l0,0,.45-4h3.6V2.7H245l-.14,1.17c1.72,0,2.64,1,2.64,2.38a2.59,2.59,0,0,1-2.91,2.67A3.93,3.93,0,0,1,242.71,8.48Z" fill="#231f20"/><path d="M247.82,1h1.5A6.5,6.5,0,0,1,251,5.47a6.48,6.48,0,0,1-1.7,4.48h-1.5V9.85a7,7,0,0,0,1.47-4.39A7.69,7.69,0,0,0,247.82,1Z" fill="#231f20"/></g></svg>