<svg xmlns="http://www.w3.org/2000/svg" viewBox="0 0 300 53"><title>employment-legend</title><g id="Work_area" data-name="Work area"><rect x="131.31" y="29.67" width="17.91" height="8" fill="#fde0ef"/><rect x="113.58" y="29.67" width="17.91" height="8" fill="#e9a3c9"/><rect x="95.85" y="29.67" width="17.91" height="8" fill="#c51b7d"/><rect x="149.41" y="29.67" width="17.91" height="8" fill="#e6f5d0"/><rect x="167.14" y="29.67" width="17.91" height="8" fill="#a1d76a"/><rect x="184.87" y="29.67" width="17.91" height="8" fill="#4d9221"/><line x1="113.84" y1="30.35" x2="113.84" y2="43.35" fill="none" stroke="#666" stroke-linecap="round" stroke-linejoin="round" stroke-width="0.7"/><line x1="131.63" y1="30.35" x2="131.63" y2="43.35" fill="none" stroke="#666" stroke-linecap="round" stroke-linejoin="round" stroke-width="0.7"/><line x1="149.41" y1="30.35" x2="149.41" y2="43.35" fill="none" stroke="#666" stroke-linecap="round" stroke-linejoin="round" stroke-width="0.7"/><line x1="167.19" y1="30.35" x2="167.19" y2="43.35" fill="none" stroke="#666" stroke-linecap="round" stroke-linejoin="round" stroke-width="0.7"/><line x1="184.97" y1="30.35" x2="184.97" y2="43.35" fill="none" stroke="#666" stroke-linecap="round" stroke-linejoin="round" stroke-width="0.7"/><text transform="translate(83.55 51.41)" font-size="9" fill="#656565" font-family="McClatchySansText-Regular, McClatchy Sans Text"><tspan letter-spacing="1.12em">	</tspan><tspan x="11.99" y="0" letter-spacing="0.72em">	</tspan><tspan x="20.4" y="0" letter-spacing="0em">-</tspan><tspan x="23.56" y="0">10%</tspan><tspan x="38.66" y="0" letter-spacing="0.04em">	</tspan><tspan x="40.91" y="0">-</tspan><tspan x="44.12" y="0" letter-spacing="-0.01em">5</tspan><tspan x="48.32" y="0">%</tspan><tspan x="54.64" y="0" letter-spacing="0.73em">	</tspan><tspan x="63.13" y="0">0</tspan><tspan x="68.61" y="0" letter-spacing="0.88em">	</tspan><tspan x="78.4" y="0" letter-spacing="-0.01em">5</tspan><tspan x="82.61" y="0">%</tspan><tspan x="88.92" y="0" letter-spacing="0.36em">	</tspan><tspan x="94.1" y="0">10%</tspan><tspan x="109.2" y="0" letter-spacing="1.64em">	</tspan></text><line x1="152.44" y1="25.17" x2="168.48" y2="25.17" fill="none" stroke="#666" stroke-linecap="round" stroke-linejoin="round" stroke-width="0.7"/><polygon points="171.94 25.17 167.07 27.16 168.22 25.17 167.07 23.18 171.94 25.17" fill="#666"/><line x1="129.67" y1="25.17" x2="145.21" y2="25.17" fill="none" stroke="#666" stroke-linecap="round" stroke-linejoin="round" stroke-width="0.7"/><polygon points="126.21 25.17 131.09 27.16 129.93 25.17 131.09 23.18 126.21 25.17" fill="#666"/><text transform="translate(110.57 22.17)" font-size="9" fill="#666" font-family="McClatchySansText-Regular, McClatchy Sans Text"><tspan letter-spacing="-0.01em">D</tspan><tspan x="5.83" y="0">ec</tspan><tspan x="14.56" y="0" letter-spacing="-0.01em">r</tspan><tspan x="17.69" y="0" letter-spacing="0em">ease</tspan></text><text transform="translate(152.44 22.17)" font-size="9" fill="#666" font-family="McClatchySansText-Regular, McClatchy Sans Text">Inc<tspan x="11.59" y="0" letter-spacing="-0.01em">r</tspan><tspan x="14.71" y="0">ease</tspan></text><text transform="translate(57.29 8.75)" font-size="10" fill="#231f20" font-family="McClatchySans-Bold, McClatchy Sans" font-weight="700" letter-spacing="-0.01em">Cha<tspan x="17.75" y="0" letter-spacing="-0.01em">n</tspan><tspan x="23.7" y="0" letter-spacing="-0.03em">g</tspan><tspan x="29.13" y="0">e in empl</tspan><tspan x="70.89" y="0" letter-spacing="-0.03em">o</tspan><tspan x="76.69" y="0">yme</tspan><tspan x="96.65" y="0" letter-spacing="-0.02em">n</tspan><tspan x="102.55" y="0">t </tspan><tspan x="108.32" y="0" letter-spacing="-0.02em">ra</tspan><tspan x="117.7" y="0">te (</tspan><tspan x="132.67" y="0" letter-spacing="-0.01em">2</tspan><tspan x="137.89" y="0">0</tspan><tspan x="144.71" y="0" letter-spacing="-0.03em">0</tspan><tspan x="151.38" y="0" letter-spacing="-0.01em">7-</tspan><tspan x="160.19" y="0" letter-spacing="-0.01em">2</tspan><tspan x="165.41" y="0">015)</tspan></text></g></svg>