<svg xmlns="http://www.w3.org/2000/svg" viewBox="0 0 300 53"><title>employment-legend</title><g id="Work_area" data-name="Work area"><rect x="131.31" y="29.67" width="17.91" height="8" fill="#fde0ef"/><rect x="113.58" y="29.67" width="17.91" height="8" fill="#e9a3c9"/><rect x="95.85" y="29.67" width="17.91" height="8" fill="#c51b7d"/><rect x="149.41" y="29.67" width="17.91" height="8" fill="#e6f5d0"/><rect x="167.14" y="29.67" width="17.91" height="8" fill="#a1d76a"/><rect x="184.87" y="29.67" width="17.91" height="8" fill="#4d9221"/><line x1="113.84" y1="30.35" x2="113.84" y2="43.35" fill="none" stroke="#666" stroke-linecap="round" stroke-linejoin="round" stroke-width="0.7"/><line x1="131.63" y1="30.35" x2="131.63" y2="43.35" fill="none" stroke="#666" stroke-linecap="round" stroke-linejoin="round" stroke-width="0.7"/><line x1="149.41" y1="30.35" x2="149.41" y2="43.35" fill="none" stroke="#666" stroke-linecap="round" stroke-linejoin="round" stroke-width="0.7"/><line x1="167.19" y1="30.35" x2="167.19" y2="43.35" fill="none" stroke="#666" stroke-linecap="round" stroke-linejoin="round" stroke-width="0.7"/><line x1="184.97" y1="30.35" x2="184.97" y2="43.35" fill="none" stroke="#666" stroke-linecap="round" stroke-linejoin="round" stroke-width="0.7"/><path d="M104.46,49.2v-.68h2.2v.68Z" fill="#656565"/><path d="M108.7,46.41l-1.21,1v-.82L109,45.29h.52v6.12h-.86Z" fill="#656565"/><path d="M113.15,51.54c-1.21,0-2.32-.91-2.31-3.12s1.11-3.19,2.31-3.19,2.33,1,2.32,3.19S114.37,51.54,113.15,51.54Zm0-.68c.82,0,1.43-.77,1.43-2.45s-.61-2.49-1.43-2.49-1.41.81-1.42,2.49S112.34,50.85,113.15,50.85Z" fill="#656565"/><path d="M117.54,48.38a1.37,1.37,0,0,1-1.31-1.56c0-1.05.63-1.61,1.31-1.61a1.42,1.42,0,0,1,1.32,1.61A1.38,1.38,0,0,1,117.54,48.38Zm3.26-3h.59l-4.07,6.07h-.6Zm-3.26,2.49c.34,0,.63-.29.63-1s-.29-1.05-.63-1.05-.62.33-.62,1.05S117.21,47.83,117.54,47.83Zm3,3.67a1.38,1.38,0,0,1-1.31-1.57c0-1.05.63-1.6,1.31-1.6s1.31.55,1.31,1.6A1.39,1.39,0,0,1,120.57,51.51Zm0-.55c.32,0,.63-.3.63-1s-.31-1.05-.63-1.05-.63.33-.63,1.05S120.22,51,120.57,51Z" fill="#656565"/><path d="M125,49.2v-.68h2.2v.68Z" fill="#656565"/><path d="M127.81,51.12l.23-.64a2.48,2.48,0,0,0,1.32.34,1.28,1.28,0,0,0,1.35-1.36c0-.9-.59-1.31-1.57-1.31a2.31,2.31,0,0,0-.81.11l0,0,.37-2.9h2.73V46h-2.07l-.2,1.48c1.59-.12,2.44.73,2.44,2a2,2,0,0,1-2.14,2.06A2.91,2.91,0,0,1,127.81,51.12Z" fill="#656565"/><path d="M133.52,48.38a1.37,1.37,0,0,1-1.31-1.56c0-1.05.63-1.61,1.31-1.61a1.42,1.42,0,0,1,1.32,1.61A1.38,1.38,0,0,1,133.52,48.38Zm3.26-3h.59l-4.07,6.07h-.6Zm-3.26,2.49c.34,0,.63-.29.63-1s-.29-1.05-.63-1.05-.62.33-.62,1.05S133.19,47.83,133.52,47.83Zm3,3.67a1.38,1.38,0,0,1-1.31-1.57c0-1.05.63-1.6,1.31-1.6s1.31.55,1.31,1.6A1.39,1.39,0,0,1,136.55,51.51Zm0-.55c.32,0,.63-.3.63-1s-.31-1.05-.63-1.05-.63.33-.63,1.05S136.2,51,136.55,51Z" fill="#656565"/><path d="M149.42,51.54c-1.21,0-2.32-.91-2.31-3.12s1.11-3.19,2.31-3.19,2.33,1,2.32,3.19S150.63,51.54,149.42,51.54Zm0-.68c.82,0,1.43-.77,1.43-2.45s-.61-2.49-1.43-2.49S148,46.72,148,48.4,148.61,50.85,149.42,50.85Z" fill="#656565"/><path d="M162.1,51.12l.23-.64a2.48,2.48,0,0,0,1.32.34A1.28,1.28,0,0,0,165,49.46c0-.9-.59-1.31-1.57-1.31a2.31,2.31,0,0,0-.81.11l0,0,.37-2.9h2.73V46h-2.07l-.2,1.48c1.59-.12,2.44.73,2.44,2a2,2,0,0,1-2.14,2.06A2.91,2.91,0,0,1,162.1,51.12Z" fill="#656565"/><path d="M167.81,48.38a1.37,1.37,0,0,1-1.31-1.56c0-1.05.63-1.61,1.31-1.61a1.42,1.42,0,0,1,1.32,1.61A1.38,1.38,0,0,1,167.81,48.38Zm3.26-3h.59l-4.07,6.07H167Zm-3.26,2.49c.34,0,.63-.29.63-1s-.29-1.05-.63-1.05-.62.33-.62,1.05S167.48,47.83,167.81,47.83Zm3,3.67a1.38,1.38,0,0,1-1.31-1.57c0-1.05.63-1.6,1.31-1.6s1.31.55,1.31,1.6A1.39,1.39,0,0,1,170.83,51.51Zm0-.55c.32,0,.63-.3.63-1s-.31-1.05-.63-1.05-.63.33-.63,1.05S170.49,51,170.83,51Z" fill="#656565"/><path d="M179.25,46.41l-1.21,1v-.82l1.55-1.34h.52v6.12h-.86Z" fill="#656565"/><path d="M183.7,51.54c-1.21,0-2.32-.91-2.31-3.12s1.11-3.19,2.31-3.19,2.33,1,2.32,3.19S184.91,51.54,183.7,51.54Zm0-.68c.82,0,1.43-.77,1.43-2.45s-.61-2.49-1.43-2.49-1.41.81-1.42,2.49S182.89,50.85,183.7,50.85Z" fill="#656565"/><path d="M188.09,48.38a1.37,1.37,0,0,1-1.31-1.56c0-1.05.63-1.61,1.31-1.61a1.42,1.42,0,0,1,1.32,1.61A1.38,1.38,0,0,1,188.09,48.38Zm3.26-3h.59l-4.07,6.07h-.6Zm-3.26,2.49c.34,0,.63-.29.63-1s-.29-1.05-.63-1.05-.62.33-.62,1.05S187.76,47.83,188.09,47.83Zm3,3.67a1.38,1.38,0,0,1-1.31-1.57c0-1.05.63-1.6,1.31-1.6s1.31.55,1.31,1.6A1.39,1.39,0,0,1,191.11,51.51Zm0-.55c.32,0,.63-.3.63-1s-.31-1.05-.63-1.05-.63.33-.63,1.05S190.77,51,191.11,51Z" fill="#656565"/><line x1="152.44" y1="25.17" x2="168.48" y2="25.17" fill="none" stroke="#666" stroke-linecap="round" stroke-linejoin="round" stroke-width="0.7"/><polygon points="171.94 25.17 167.07 27.16 168.22 25.17 167.07 23.18 171.94 25.17" fill="#666"/><line x1="129.67" y1="25.17" x2="145.21" y2="25.17" fill="none" stroke="#666" stroke-linecap="round" stroke-linejoin="round" stroke-width="0.7"/><polygon points="126.21 25.17 131.09 27.16 129.93 25.17 131.09 23.18 126.21 25.17" fill="#666"/><path d="M111.36,16.1h1.72a2.87,2.87,0,0,1,3,3.07,2.81,2.81,0,0,1-3,3h-1.73Zm.89.67v4.71H113a2,2,0,0,0,2.08-2.32,2.1,2.1,0,0,0-2.1-2.39Z" fill="#666"/><path d="M119,22.25a2.14,2.14,0,0,1-2.29-2.31,2.08,2.08,0,0,1,2-2.27c1.11,0,1.84.73,1.84,2.11v.32h-3a1.39,1.39,0,0,0,1.53,1.49,2.83,2.83,0,0,0,1.2-.24l.14.61A3.2,3.2,0,0,1,119,22.25Zm-1.42-2.75h2.2c-.05-.87-.46-1.22-1.07-1.22S117.73,18.72,117.61,19.5Z" fill="#666"/><path d="M124.81,22a2.81,2.81,0,0,1-1.32.28A2.1,2.1,0,0,1,121.27,20a2.18,2.18,0,0,1,2.28-2.3,2.9,2.9,0,0,1,1.28.26l-.21.67a2.14,2.14,0,0,0-1-.24A1.45,1.45,0,0,0,122.11,20a1.39,1.39,0,0,0,1.45,1.57,2.38,2.38,0,0,0,1.06-.23Z" fill="#666"/><path d="M125.76,17.8h.83v.87a1.86,1.86,0,0,1,1.51-.94v.81a1.72,1.72,0,0,0-1.51.76v2.86h-.83Z" fill="#666"/><path d="M130.89,22.25a2.14,2.14,0,0,1-2.29-2.31,2.08,2.08,0,0,1,2-2.27c1.11,0,1.84.73,1.84,2.11v.32h-3A1.39,1.39,0,0,0,131,21.58a2.83,2.83,0,0,0,1.2-.24l.14.61A3.2,3.2,0,0,1,130.89,22.25Zm-1.42-2.75h2.2c-.05-.87-.46-1.22-1.07-1.22S129.58,18.72,129.47,19.5Z" fill="#666"/><path d="M135.67,21.73a1.45,1.45,0,0,1-1.14.53,1.37,1.37,0,0,1-1.45-1.44,1.42,1.42,0,0,1,1.57-1.41,1.54,1.54,0,0,1,1,.33v-.47c0-.72-.4-1-1.05-1a2.5,2.5,0,0,0-1.07.25l-.18-.59a3,3,0,0,1,1.4-.31c1.18,0,1.74.54,1.74,1.54v3h-.83Zm0-.48v-1a1.34,1.34,0,0,0-.86-.31c-.52,0-.93.24-.93.83a.82.82,0,0,0,.87.89A1.14,1.14,0,0,0,135.67,21.26Z" fill="#666"/><path d="M138.94,18.36c-.49,0-.78.14-.78.55,0,.6.88.58,1.56.91a1.08,1.08,0,0,1,.64,1.08c0,.83-.62,1.36-1.66,1.36a3,3,0,0,1-1.44-.3l.19-.65a2.5,2.5,0,0,0,1.19.29c.68,0,.91-.28.91-.65,0-.64-.95-.59-1.58-1a1.1,1.1,0,0,1-.57-1c0-.81.6-1.25,1.51-1.25a3.5,3.5,0,0,1,1.34.23l-.18.65A2.83,2.83,0,0,0,138.94,18.36Z" fill="#666"/><path d="M143.33,22.25A2.14,2.14,0,0,1,141,19.93a2.08,2.08,0,0,1,2-2.27c1.11,0,1.84.73,1.84,2.11v.32h-3a1.39,1.39,0,0,0,1.53,1.49,2.83,2.83,0,0,0,1.2-.24l.14.61A3.2,3.2,0,0,1,143.33,22.25ZM141.9,19.5h2.2c-.05-.87-.46-1.22-1.07-1.22S142,18.72,141.9,19.5Z" fill="#666"/><path d="M153.26,16.1h.88v6.07h-.88Z" fill="#666"/><path d="M155.58,22.17V17.8h.83v.62a1.74,1.74,0,0,1,1.41-.76c.95,0,1.42.55,1.42,1.54v3h-.83V19.29c0-.7-.31-1-.89-1a1.38,1.38,0,0,0-1.12.7v3.14Z" fill="#666"/><path d="M163.71,22a2.81,2.81,0,0,1-1.32.28A2.1,2.1,0,0,1,160.17,20a2.18,2.18,0,0,1,2.28-2.3,2.9,2.9,0,0,1,1.28.26l-.21.67a2.14,2.14,0,0,0-1-.24A1.45,1.45,0,0,0,161,20a1.39,1.39,0,0,0,1.45,1.57,2.38,2.38,0,0,0,1.06-.23Z" fill="#666"/><path d="M164.66,17.8h.83v.87a1.86,1.86,0,0,1,1.51-.94v.81a1.72,1.72,0,0,0-1.51.76v2.86h-.83Z" fill="#666"/><path d="M169.79,22.25a2.14,2.14,0,0,1-2.29-2.31,2.08,2.08,0,0,1,2-2.27c1.11,0,1.84.73,1.84,2.11v.32h-3a1.39,1.39,0,0,0,1.53,1.49,2.83,2.83,0,0,0,1.2-.24l.14.61A3.2,3.2,0,0,1,169.79,22.25Zm-1.42-2.75h2.2c-.05-.87-.46-1.22-1.07-1.22S168.48,18.72,168.36,19.5Z" fill="#666"/><path d="M174.57,21.73a1.45,1.45,0,0,1-1.14.53A1.37,1.37,0,0,1,172,20.82a1.42,1.42,0,0,1,1.57-1.41,1.54,1.54,0,0,1,1,.33v-.47c0-.72-.4-1-1.05-1a2.5,2.5,0,0,0-1.07.25l-.18-.59a3,3,0,0,1,1.4-.31c1.18,0,1.74.54,1.74,1.54v3h-.83Zm0-.48v-1a1.34,1.34,0,0,0-.86-.31c-.52,0-.93.24-.93.83a.82.82,0,0,0,.87.89A1.14,1.14,0,0,0,174.57,21.26Z" fill="#666"/><path d="M177.84,18.36c-.49,0-.78.14-.78.55,0,.6.88.58,1.56.91a1.08,1.08,0,0,1,.64,1.08c0,.83-.62,1.36-1.66,1.36a3,3,0,0,1-1.44-.3l.19-.65a2.5,2.5,0,0,0,1.19.29c.68,0,.91-.28.91-.65,0-.64-.95-.59-1.58-1a1.1,1.1,0,0,1-.57-1c0-.81.6-1.25,1.51-1.25a3.5,3.5,0,0,1,1.34.23l-.18.65A2.83,2.83,0,0,0,177.84,18.36Z" fill="#666"/><path d="M182.23,22.25a2.14,2.14,0,0,1-2.29-2.31,2.08,2.08,0,0,1,2-2.27c1.11,0,1.84.73,1.84,2.11v.32h-3a1.39,1.39,0,0,0,1.53,1.49,2.83,2.83,0,0,0,1.2-.24l.14.61A3.2,3.2,0,0,1,182.23,22.25ZM180.8,19.5H183c-.05-.87-.46-1.22-1.07-1.22S180.92,18.72,180.8,19.5Z" fill="#666"/><path d="M63.6,8.35a3.89,3.89,0,0,1-2.11.52,3.54,3.54,0,0,1-3.79-3.78,3.65,3.65,0,0,1,3.8-3.94,4.59,4.59,0,0,1,2,.37L63.07,3a2.89,2.89,0,0,0-1.29-.31,2,2,0,0,0-2.1,2.34,1.94,1.94,0,0,0,2,2.22,2.9,2.9,0,0,0,1.45-.38Z" fill="#231f20"/><path d="M64.27,8.75V1h1.81V4a1.94,1.94,0,0,1,1.58-.78c1.27,0,1.73.87,1.73,2V8.75H67.58V5.38c0-.51-.2-.75-.67-.75a.94.94,0,0,0-.83.52v3.6Z" fill="#231f20"/><path d="M72.86,8.29a1.49,1.49,0,0,1-1.22.57A1.59,1.59,0,0,1,70,7.15a1.85,1.85,0,0,1,2.87-1.43V5.48c0-.71-.48-.88-1-.88a2.83,2.83,0,0,0-1.2.29l-.36-1.28a4.22,4.22,0,0,1,2-.42c1.8,0,2.45.85,2.45,2.2V8.75H72.86Zm0-.77V6.61a1,1,0,0,0-.57-.18.57.57,0,0,0-.6.64.57.57,0,0,0,.6.64A1,1,0,0,0,72.86,7.53Z" fill="#231f20"/><path d="M75.56,8.75V3.36h1.81V4a1.94,1.94,0,0,1,1.58-.78c1.27,0,1.73.87,1.73,2V8.75H78.87V5.38c0-.51-.2-.75-.67-.75a.94.94,0,0,0-.83.52v3.6Z" fill="#231f20"/><path d="M83.65,10.77c-1.68,0-2.6-.4-2.6-1.22,0-.44.39-.75.85-.95a1.06,1.06,0,0,1-.44-.87,1.31,1.31,0,0,1,.81-1.23,1.64,1.64,0,0,1-.84-1.45,2,2,0,0,1,2.23-1.87,2.4,2.4,0,0,1,1.42.42,2.28,2.28,0,0,1,1.47-.41V4.44a4,4,0,0,0-.83,0,1.36,1.36,0,0,1,.12.61c0,1.14-1,1.76-2.18,1.76A3.2,3.2,0,0,1,83,6.8a.35.35,0,0,0-.15.28c0,.17.13.26.41.26H84.8A1.55,1.55,0,0,1,86.55,8.9C86.55,10.18,85.46,10.77,83.65,10.77Zm1.21-1.56c0-.2-.11-.41-.54-.41H82.69a.47.47,0,0,0-.22.39c0,.3.33.49,1.14.49C84.59,9.68,84.86,9.5,84.86,9.21ZM83.64,5.81c.3,0,.61-.16.61-.76s-.31-.79-.61-.79S83,4.46,83,5,83.34,5.81,83.64,5.81Z" fill="#231f20"/><path d="M89.7,8.84c-1.67,0-3-.8-3-2.86a2.63,2.63,0,0,1,2.7-2.8,2.27,2.27,0,0,1,2.39,2.55V6.5H88.52c.13.64.56.94,1.44.94a3.53,3.53,0,0,0,1.37-.32l.27,1.29A3.86,3.86,0,0,1,89.7,8.84ZM88.51,5.39h1.55c0-.59-.24-.92-.72-.92S88.59,4.84,88.51,5.39Z" fill="#231f20"/><path d="M95.34,1a.93.93,0,0,1,1,.95,1,1,0,0,1-1.94,0A.93.93,0,0,1,95.34,1Zm-.91,2.37h1.81V8.75H94.43Z" fill="#231f20"/><path d="M97.18,8.75V3.36H99V4a1.94,1.94,0,0,1,1.58-.78c1.27,0,1.73.87,1.73,2V8.75h-1.81V5.38c0-.51-.2-.75-.67-.75a.94.94,0,0,0-.83.52v3.6Z" fill="#231f20"/><path d="M108,8.84c-1.67,0-3-.8-3-2.86a2.63,2.63,0,0,1,2.7-2.8A2.27,2.27,0,0,1,110,5.74V6.5h-3.23c.13.64.56.94,1.44.94a3.53,3.53,0,0,0,1.37-.32l.27,1.29A3.86,3.86,0,0,1,108,8.84Zm-1.19-3.46h1.55c0-.59-.24-.92-.72-.92S106.85,4.84,106.77,5.39Z" fill="#231f20"/><path d="M110.67,8.75V3.36h1.81V4A1.69,1.69,0,0,1,114,3.19a1.4,1.4,0,0,1,1.44.92A1.85,1.85,0,0,1,117,3.19c1.2,0,1.73.88,1.73,2V8.75h-1.81V5.39c0-.51-.2-.76-.65-.76a.79.79,0,0,0-.68.37V8.75h-1.81V5.39c0-.51-.21-.76-.66-.76a.83.83,0,0,0-.67.33V8.75Z" fill="#231f20"/><path d="M121.46,8.18v2.47h-1.81V3.36h1.81v.51a2,2,0,0,1,1.48-.68c1.32,0,2.28.89,2.28,2.81s-1,2.88-2.31,2.88A1.72,1.72,0,0,1,121.46,8.18ZM123.39,6c0-1.07-.56-1.39-1-1.39a1.13,1.13,0,0,0-.9.37V7.11a1.19,1.19,0,0,0,.9.35C122.83,7.46,123.39,7.07,123.39,6Z" fill="#231f20"/><path d="M125.92,1h1.81V8.75h-1.81Z" fill="#231f20"/><path d="M131.23,8.9a2.68,2.68,0,0,1-2.81-2.81,2.81,2.81,0,1,1,5.63,0A2.68,2.68,0,0,1,131.23,8.9Zm0-1.41c.51,0,1-.35,1-1.42s-.48-1.47-1-1.47-1,.41-1,1.47S130.74,7.49,131.23,7.49Z" fill="#231f20"/><path d="M135.95,8.24,134,3.36h1.85l1,2.64,1.06-2.64h1.65l-2.93,7.29H135Z" fill="#231f20"/><path d="M140,8.75V3.36h1.81V4a1.69,1.69,0,0,1,1.48-.78,1.4,1.4,0,0,1,1.44.92,1.85,1.85,0,0,1,1.63-.92c1.2,0,1.73.88,1.73,2V8.75h-1.81V5.39c0-.51-.2-.76-.65-.76A.79.79,0,0,0,145,5V8.75h-1.81V5.39c0-.51-.21-.76-.66-.76a.83.83,0,0,0-.67.33V8.75Z" fill="#231f20"/><path d="M151.75,8.84c-1.67,0-3-.8-3-2.86a2.63,2.63,0,0,1,2.7-2.8,2.27,2.27,0,0,1,2.39,2.55V6.5h-3.23c.13.64.56.94,1.44.94a3.53,3.53,0,0,0,1.37-.32l.27,1.29A3.86,3.86,0,0,1,151.75,8.84Zm-1.19-3.46h1.55c0-.59-.24-.92-.72-.92S150.64,4.84,150.56,5.39Z" fill="#231f20"/><path d="M154.46,8.75V3.36h1.81V4a1.94,1.94,0,0,1,1.58-.78c1.27,0,1.73.87,1.73,2V8.75h-1.81V5.38c0-.51-.2-.75-.67-.75a.94.94,0,0,0-.83.52v3.6Z" fill="#231f20"/><path d="M160.59,6.92V4.63H160V3.36h.57V1.67h1.81V3.36h1V4.63h-1V6.8c0,.51.3.65.61.65a1.3,1.3,0,0,0,.41-.07V8.73a2.9,2.9,0,0,1-.82.09A1.76,1.76,0,0,1,160.59,6.92Z" fill="#231f20"/><path d="M166.13,8.75V3.36h1.81v1a2.25,2.25,0,0,1,1.77-1.09V5.07a2.3,2.3,0,0,0-1.77.44V8.75Z" fill="#231f20"/><path d="M172.85,8.29a1.49,1.49,0,0,1-1.22.57A1.59,1.59,0,0,1,170,7.15a1.85,1.85,0,0,1,2.87-1.43V5.48c0-.71-.48-.88-1-.88a2.83,2.83,0,0,0-1.2.29l-.36-1.28a4.22,4.22,0,0,1,2-.42c1.8,0,2.45.85,2.45,2.2V8.75h-1.81Zm0-.77V6.61a1,1,0,0,0-.57-.18.57.57,0,0,0-.6.64.57.57,0,0,0,.6.64A1,1,0,0,0,172.85,7.53Z" fill="#231f20"/><path d="M175.74,6.92V4.63h-.57V3.36h.57V1.67h1.81V3.36h1V4.63h-1V6.8c0,.51.3.65.61.65a1.3,1.3,0,0,0,.41-.07V8.73a2.9,2.9,0,0,1-.82.09A1.76,1.76,0,0,1,175.74,6.92Z" fill="#231f20"/><path d="M182,8.84c-1.67,0-3-.8-3-2.86a2.63,2.63,0,0,1,2.7-2.8,2.27,2.27,0,0,1,2.39,2.55V6.5h-3.23c.13.64.56.94,1.44.94a3.53,3.53,0,0,0,1.37-.32l.27,1.29A3.86,3.86,0,0,1,182,8.84Zm-1.19-3.46h1.55c0-.59-.24-.92-.72-.92S180.91,4.84,180.83,5.39Z" fill="#231f20"/><path d="M188.49,5.47A7,7,0,0,0,190,9.85v.09h-1.5a6.48,6.48,0,0,1-1.7-4.48A6.5,6.5,0,0,1,188.46,1H190V1A7.69,7.69,0,0,0,188.49,5.47Z" fill="#231f20"/><path d="M190.22,8.75V7.65l2-2.24a3,3,0,0,0,.9-1.77.93.93,0,0,0-1.07-1,2.42,2.42,0,0,0-1.41.38l-.43-1.39a3.88,3.88,0,0,1,2.08-.52c1.72,0,2.56.91,2.56,2.29,0,1-.42,1.81-1.6,3l-.82.86h2.38V8.75Z" fill="#231f20"/><path d="M198.63,8.92c-1.58,0-3.08-1-3.08-3.87s1.5-3.95,3.08-3.95,3.09,1.14,3.09,3.95S200.22,8.92,198.63,8.92Zm0-1.48c.71,0,1.17-.66,1.17-2.41s-.46-2.45-1.17-2.45-1.16.69-1.16,2.45S197.93,7.44,198.63,7.44Z" fill="#231f20"/><path d="M205.45,8.92c-1.58,0-3.08-1-3.08-3.87s1.5-3.95,3.08-3.95,3.09,1.14,3.09,3.95S207,8.92,205.45,8.92Zm0-1.48c.71,0,1.17-.66,1.17-2.41s-.46-2.45-1.17-2.45-1.16.69-1.16,2.45S204.75,7.44,205.45,7.44Z" fill="#231f20"/><path d="M209.44,8.75l2.28-6.08h-2.77V1.26h4.79v1.1l-2.4,6.39Z" fill="#231f20"/><path d="M214.3,6.25V5h2.83V6.25Z" fill="#231f20"/><path d="M217.74,8.75V7.65l2-2.24a3,3,0,0,0,.9-1.77.93.93,0,0,0-1.07-1,2.42,2.42,0,0,0-1.41.38l-.43-1.39a3.88,3.88,0,0,1,2.08-.52c1.72,0,2.56.91,2.56,2.29,0,1-.42,1.81-1.6,3l-.82.86h2.38V8.75Z" fill="#231f20"/><path d="M226.15,8.92c-1.58,0-3.08-1-3.08-3.87s1.5-3.95,3.08-3.95,3.09,1.14,3.09,3.95S227.74,8.92,226.15,8.92Zm0-1.48c.71,0,1.17-.66,1.17-2.41s-.46-2.45-1.17-2.45S225,3.27,225,5,225.45,7.44,226.15,7.44Z" fill="#231f20"/><path d="M231,3.25l-1.18.85V2.55l1.92-1.35h1.14V8.75H231Z" fill="#231f20"/><path d="M233.77,8.48l.43-1.39a2.88,2.88,0,0,0,1.29.3c.78,0,1.27-.39,1.27-1.14s-.49-1.1-1.39-1.1a2.84,2.84,0,0,0-1,.16l0,0,.45-4h3.6V2.7h-2.26L236,3.87c1.72,0,2.64,1,2.64,2.38a2.59,2.59,0,0,1-2.91,2.67A3.93,3.93,0,0,1,233.77,8.48Z" fill="#231f20"/><path d="M238.88,1h1.5a6.5,6.5,0,0,1,1.7,4.51,6.48,6.48,0,0,1-1.7,4.48h-1.5V9.85a7,7,0,0,0,1.47-4.39A7.69,7.69,0,0,0,238.88,1Z" fill="#231f20"/></g></svg>