<svg xmlns="http://www.w3.org/2000/svg" viewBox="0 0 300 53"><title>income-legend</title><g id="Work_area" data-name="Work area"><rect x="148.7" y="30.12" width="17.91" height="8" fill="#fde0ef"/><rect x="130.97" y="30.12" width="17.91" height="8" fill="#f1b6da"/><rect x="113.24" y="30.12" width="17.91" height="8" fill="#de77ae"/><rect x="95.51" y="30.12" width="17.91" height="8" fill="#c51b7d"/><rect x="77.78" y="30.12" width="17.91" height="8" fill="#8e0152"/><rect x="166.8" y="30.12" width="17.91" height="8" fill="#e6f5d0"/><line x1="95.67" y1="30.8" x2="95.67" y2="43.8" fill="none" stroke="#666" stroke-linecap="round" stroke-linejoin="round" stroke-width="0.7"/><line x1="113.45" y1="30.8" x2="113.45" y2="43.8" fill="none" stroke="#666" stroke-linecap="round" stroke-linejoin="round" stroke-width="0.7"/><line x1="131.23" y1="30.8" x2="131.23" y2="43.8" fill="none" stroke="#666" stroke-linecap="round" stroke-linejoin="round" stroke-width="0.7"/><line x1="149.01" y1="30.8" x2="149.01" y2="43.8" fill="none" stroke="#666" stroke-linecap="round" stroke-linejoin="round" stroke-width="0.7"/><line x1="166.8" y1="30.8" x2="166.8" y2="43.8" fill="none" stroke="#666" stroke-linecap="round" stroke-linejoin="round" stroke-width="0.7"/><text transform="translate(65.67 52.58)" font-size="9" fill="#656565" font-family="McClatchySansText-Regular, McClatchy Sans Text"><tspan letter-spacing="1.12em">	</tspan><tspan x="11.99" y="0" letter-spacing="0.8em">	</tspan><tspan x="21.04" y="0" letter-spacing="0em">-</tspan><tspan x="24.2" y="0">12%</tspan><tspan x="38.01" y="0" letter-spacing="-0.01em">	</tspan><tspan x="39.78" y="0" letter-spacing="0em">-</tspan><tspan x="42.94" y="0">1</tspan><tspan x="46.24" y="0" letter-spacing="-0.01em">1</tspan><tspan x="49.45" y="0">%</tspan><tspan x="55.77" y="0" letter-spacing="0.12em">	</tspan><tspan x="58.76" y="0" letter-spacing="0em">-</tspan><tspan x="61.92" y="0" letter-spacing="-0.02em">8</tspan><tspan x="66.65" y="0">%</tspan><tspan x="72.97" y="0" letter-spacing="0.18em">	</tspan><tspan x="76.47" y="0">-</tspan><tspan x="79.67" y="0" letter-spacing="0em">6</tspan><tspan x="84.54" y="0">%</tspan><tspan x="90.86" y="0" letter-spacing="0.63em">	</tspan><tspan x="98.42" y="0">0</tspan><tspan x="103.9" y="0" letter-spacing="2.23em">	</tspan></text><line x1="170.4" y1="24.83" x2="186.44" y2="24.83" fill="none" stroke="#666" stroke-linecap="round" stroke-linejoin="round" stroke-width="0.7"/><polygon points="189.9 24.83 185.02 26.82 186.18 24.83 185.02 22.84 189.9 24.83" fill="#666"/><line x1="147.63" y1="24.83" x2="163.17" y2="24.83" fill="none" stroke="#666" stroke-linecap="round" stroke-linejoin="round" stroke-width="0.7"/><polygon points="144.17 24.83 149.04 26.82 147.88 24.83 149.04 22.84 144.17 24.83" fill="#666"/><text transform="translate(128.53 21.83)" font-size="9" fill="#666" font-family="McClatchySansText-Regular, McClatchy Sans Text"><tspan letter-spacing="-0.01em">D</tspan><tspan x="5.83" y="0">ec</tspan><tspan x="14.56" y="0" letter-spacing="-0.01em">r</tspan><tspan x="17.69" y="0" letter-spacing="0em">ease</tspan></text><text transform="translate(170.4 21.83)" font-size="9" fill="#666" font-family="McClatchySansText-Regular, McClatchy Sans Text">Inc<tspan x="11.59" y="0" letter-spacing="-0.01em">r</tspan><tspan x="14.71" y="0">ease</tspan></text><text transform="translate(54.25 8.75)" font-size="10" fill="#231f20" font-family="McClatchySans-Bold, McClatchy Sans" font-weight="700" letter-spacing="-0.01em">Cha<tspan x="17.75" y="0" letter-spacing="-0.01em">n</tspan><tspan x="23.7" y="0" letter-spacing="-0.03em">g</tspan><tspan x="29.13" y="0">e in hou</tspan><tspan x="65.32" y="0" letter-spacing="-0.01em">s</tspan><tspan x="69.84" y="0" letter-spacing="-0.01em">ehold income (</tspan><tspan x="138.16" y="0" letter-spacing="-0.01em">2</tspan><tspan x="143.38" y="0">0</tspan><tspan x="150.2" y="0" letter-spacing="-0.03em">0</tspan><tspan x="156.87" y="0">7-</tspan><tspan x="165.68" y="0" letter-spacing="0em">2</tspan><tspan x="170.9" y="0">0</tspan><tspan x="177.72" y="0" letter-spacing="-0.03em">1</tspan><tspan x="181.67" y="0" letter-spacing="-0.01em">4)</tspan></text><rect x="200.88" y="30.83" width="27" height="8" fill="#efefef" stroke="#dedddd" stroke-miterlimit="10" stroke-width="0.5"/><text transform="translate(202.82 37.05)" font-size="7" fill="#666" font-family="McClatchySansText-Regular, McClatchy Sans Text"><tspan letter-spacing="0em">N</tspan><tspan x="4.77" y="0">o data</tspan></text></g></svg>