<svg xmlns="http://www.w3.org/2000/svg" viewBox="0 0 300 53"><title>income-legend</title><g id="Work_area" data-name="Work area"><rect x="148.7" y="30.12" width="17.91" height="8" fill="#fde0ef"/><rect x="130.97" y="30.12" width="17.91" height="8" fill="#f1b6da"/><rect x="113.24" y="30.12" width="17.91" height="8" fill="#de77ae"/><rect x="95.51" y="30.12" width="17.91" height="8" fill="#c51b7d"/><rect x="77.78" y="30.12" width="17.91" height="8" fill="#8e0152"/><rect x="166.8" y="30.12" width="17.91" height="8" fill="#e6f5d0"/><line x1="95.67" y1="30.8" x2="95.67" y2="43.8" fill="none" stroke="#666" stroke-linecap="round" stroke-linejoin="round" stroke-width="0.7"/><line x1="113.45" y1="30.8" x2="113.45" y2="43.8" fill="none" stroke="#666" stroke-linecap="round" stroke-linejoin="round" stroke-width="0.7"/><line x1="131.23" y1="30.8" x2="131.23" y2="43.8" fill="none" stroke="#666" stroke-linecap="round" stroke-linejoin="round" stroke-width="0.7"/><line x1="149.01" y1="30.8" x2="149.01" y2="43.8" fill="none" stroke="#666" stroke-linecap="round" stroke-linejoin="round" stroke-width="0.7"/><line x1="166.8" y1="30.8" x2="166.8" y2="43.8" fill="none" stroke="#666" stroke-linecap="round" stroke-linejoin="round" stroke-width="0.7"/><path d="M87.22,50.37v-.68h2.2v.68Z" fill="#656565"/><path d="M91.47,47.58l-1.21,1V47.8l1.55-1.34h.52v6.12h-.86Z" fill="#656565"/><path d="M93.44,52.58v-.5l1.74-2a2.94,2.94,0,0,0,.93-1.87A1,1,0,0,0,95,47.11a2.08,2.08,0,0,0-1.24.38l-.23-.64a2.67,2.67,0,0,1,1.56-.43,1.66,1.66,0,0,1,1.88,1.74,3.77,3.77,0,0,1-1.31,2.45l-1.18,1.3H97v.67Z" fill="#656565"/><path d="M99,49.55A1.37,1.37,0,0,1,97.7,48c0-1.05.63-1.61,1.31-1.61A1.42,1.42,0,0,1,100.33,48,1.38,1.38,0,0,1,99,49.55Zm3.26-3h.59L98.8,52.58h-.6ZM99,49c.34,0,.63-.29.63-1s-.29-1.05-.63-1.05-.62.33-.62,1.05S98.68,49,99,49Zm3,3.67a1.38,1.38,0,0,1-1.31-1.57c0-1.05.63-1.6,1.31-1.6s1.31.55,1.31,1.6A1.39,1.39,0,0,1,102,52.67Zm0-.55c.32,0,.63-.3.63-1S102.36,50,102,50s-.63.33-.63,1.05S101.69,52.13,102,52.13Z" fill="#656565"/><path d="M106,50.37v-.68h2.2v.68Z" fill="#656565"/><path d="M110.2,47.58l-1.21,1V47.8l1.55-1.34h.52v6.12h-.86Z" fill="#656565"/><path d="M113.51,47.58l-1.21,1V47.8l1.55-1.34h.52v6.12h-.86Z" fill="#656565"/><path d="M116.77,49.55A1.37,1.37,0,0,1,115.46,48c0-1.05.63-1.61,1.31-1.61A1.42,1.42,0,0,1,118.1,48,1.38,1.38,0,0,1,116.77,49.55Zm3.26-3h.59l-4.07,6.07H116ZM116.77,49c.34,0,.63-.29.63-1s-.29-1.05-.63-1.05-.62.33-.62,1.05S116.44,49,116.77,49Zm3,3.67a1.38,1.38,0,0,1-1.31-1.57c0-1.05.63-1.6,1.31-1.6s1.31.55,1.31,1.6A1.39,1.39,0,0,1,119.8,52.67Zm0-.55c.32,0,.63-.3.63-1S120.12,50,119.8,50s-.63.33-.63,1.05S119.46,52.13,119.8,52.13Z" fill="#656565"/><path d="M124.94,50.37v-.68h2.2v.68Z" fill="#656565"/><path d="M128,51.06c0-.83.69-1.34,1.48-1.6-.73-.32-1.27-.74-1.27-1.52s.7-1.53,1.86-1.53,1.86.64,1.86,1.49-.54,1.14-1.25,1.43c.85.36,1.47.84,1.47,1.66,0,1-.82,1.71-2.06,1.71S128,52,128,51.06Zm3.32,0c0-.6-.48-.93-1.31-1.28-.66.27-1.19.66-1.19,1.26s.45,1,1.26,1S131.27,51.61,131.27,51Zm-1.19-2c.6-.27,1-.52,1-1.07S130.73,47,130,47s-1.08.39-1.08.91S129.46,48.74,130.09,49Z" fill="#656565"/><path d="M134,49.55A1.37,1.37,0,0,1,132.66,48c0-1.05.63-1.61,1.31-1.61A1.42,1.42,0,0,1,135.3,48,1.38,1.38,0,0,1,134,49.55Zm3.26-3h.59l-4.07,6.07h-.6ZM134,49c.34,0,.63-.29.63-1s-.29-1.05-.63-1.05-.62.33-.62,1.05S133.64,49,134,49Zm3,3.67a1.38,1.38,0,0,1-1.31-1.57c0-1.05.63-1.6,1.31-1.6s1.31.55,1.31,1.6A1.39,1.39,0,0,1,137,52.67Zm0-.55c.32,0,.63-.3.63-1S137.32,50,137,50s-.63.33-.63,1.05S136.66,52.13,137,52.13Z" fill="#656565"/><path d="M142.65,50.37v-.68h2.2v.68Z" fill="#656565"/><path d="M145.81,50.14a4.2,4.2,0,0,1,2.26-3.63h1v0a4.72,4.72,0,0,0-2.35,2.81,1.82,1.82,0,0,1,1.39-.63,1.73,1.73,0,0,1,1.76,1.89,1.9,1.9,0,0,1-1.93,2.07C146.62,52.69,145.81,51.75,145.81,50.14Zm3.23.48a1.12,1.12,0,0,0-1.16-1.27,1.53,1.53,0,0,0-1.24.62,1.64,1.64,0,0,0,0,.21c0,1.21.5,1.86,1.28,1.86S149,51.49,149,50.61Z" fill="#656565"/><path d="M151.86,49.55A1.37,1.37,0,0,1,150.55,48c0-1.05.63-1.61,1.31-1.61A1.42,1.42,0,0,1,153.18,48,1.38,1.38,0,0,1,151.86,49.55Zm3.26-3h.59l-4.07,6.07H151ZM151.86,49c.34,0,.63-.29.63-1s-.29-1.05-.63-1.05-.62.33-.62,1.05S151.53,49,151.86,49Zm3,3.67a1.38,1.38,0,0,1-1.31-1.57c0-1.05.63-1.6,1.31-1.6s1.31.55,1.31,1.6A1.39,1.39,0,0,1,154.89,52.67Zm0-.55c.32,0,.63-.3.63-1s-.31-1.05-.63-1.05-.63.33-.63,1.05S154.54,52.13,154.89,52.13Z" fill="#656565"/><path d="M166.83,52.7c-1.21,0-2.32-.91-2.31-3.12s1.11-3.19,2.31-3.19,2.33,1,2.32,3.19S168,52.7,166.83,52.7Zm0-.68c.82,0,1.43-.76,1.43-2.45s-.61-2.49-1.43-2.49-1.41.81-1.42,2.49S166,52,166.83,52Z" fill="#656565"/><line x1="170.4" y1="24.83" x2="186.44" y2="24.83" fill="none" stroke="#666" stroke-linecap="round" stroke-linejoin="round" stroke-width="0.7"/><polygon points="189.9 24.83 185.02 26.82 186.18 24.83 185.02 22.84 189.9 24.83" fill="#666"/><line x1="147.63" y1="24.83" x2="163.17" y2="24.83" fill="none" stroke="#666" stroke-linecap="round" stroke-linejoin="round" stroke-width="0.7"/><polygon points="144.17 24.83 149.04 26.82 147.88 24.83 149.04 22.84 144.17 24.83" fill="#666"/><path d="M108.75,15.77h1.72a2.87,2.87,0,0,1,3,3.07,2.81,2.81,0,0,1-3,3h-1.73Zm.89.67v4.71h.79a2,2,0,0,0,2.08-2.32,2.1,2.1,0,0,0-2.1-2.39Z" fill="#666"/><path d="M116.43,21.91a2.14,2.14,0,0,1-2.29-2.31,2.08,2.08,0,0,1,2-2.27c1.11,0,1.84.73,1.84,2.11v.32h-3a1.39,1.39,0,0,0,1.53,1.49,2.83,2.83,0,0,0,1.2-.24l.14.61A3.2,3.2,0,0,1,116.43,21.91ZM115,19.17h2.2c-.05-.87-.46-1.22-1.07-1.22S115.12,18.38,115,19.17Z" fill="#666"/><path d="M122.21,21.63a2.81,2.81,0,0,1-1.32.28,2.1,2.1,0,0,1-2.22-2.24,2.18,2.18,0,0,1,2.28-2.3,2.9,2.9,0,0,1,1.28.26l-.21.67a2.14,2.14,0,0,0-1-.24,1.45,1.45,0,0,0-1.47,1.61A1.39,1.39,0,0,0,121,21.23,2.38,2.38,0,0,0,122,21Z" fill="#666"/><path d="M123.15,17.47H124v.87a1.86,1.86,0,0,1,1.51-.94v.81A1.72,1.72,0,0,0,124,19v2.86h-.83Z" fill="#666"/><path d="M128.28,21.91A2.14,2.14,0,0,1,126,19.6a2.08,2.08,0,0,1,2-2.27c1.11,0,1.84.73,1.84,2.11v.32h-3a1.39,1.39,0,0,0,1.53,1.49,2.83,2.83,0,0,0,1.2-.24l.14.61A3.2,3.2,0,0,1,128.28,21.91Zm-1.42-2.75h2.2c-.05-.87-.46-1.22-1.07-1.22S127,18.38,126.86,19.17Z" fill="#666"/><path d="M134.06,21.63a2.81,2.81,0,0,1-1.32.28,2.1,2.1,0,0,1-2.22-2.24,2.18,2.18,0,0,1,2.28-2.3,2.9,2.9,0,0,1,1.28.26l-.21.67a2.14,2.14,0,0,0-1-.24,1.45,1.45,0,0,0-1.47,1.61,1.39,1.39,0,0,0,1.45,1.57,2.38,2.38,0,0,0,1.06-.23Z" fill="#666"/><path d="M135.46,15.58a.47.47,0,0,1,0,.94.47.47,0,1,1,0-.94ZM135,17.47h.84v4.37H135Z" fill="#666"/><path d="M137.15,21.83V17.47H138v.59a1.48,1.48,0,0,1,1.28-.73,1.11,1.11,0,0,1,1.21.85,1.54,1.54,0,0,1,1.39-.85c.89,0,1.34.55,1.34,1.54v3h-.84V19c0-.7-.24-1-.79-1a1.16,1.16,0,0,0-1,.65v3.2h-.84V19c0-.7-.25-1-.81-1a1.16,1.16,0,0,0-1,.62v3.22Z" fill="#666"/><path d="M144.83,15.58a.47.47,0,0,1,0,.94.47.47,0,1,1,0-.94Zm-.42,1.88h.84v4.37h-.84Z" fill="#666"/><path d="M148.53,21.91a2.14,2.14,0,0,1-2.29-2.31,2.08,2.08,0,0,1,2-2.27c1.11,0,1.84.73,1.84,2.11v.32h-3a1.39,1.39,0,0,0,1.53,1.49,2.83,2.83,0,0,0,1.2-.24l.14.61A3.2,3.2,0,0,1,148.53,21.91Zm-1.42-2.75h2.2c-.05-.87-.46-1.22-1.07-1.22S147.23,18.38,147.11,19.17Z" fill="#666"/><path d="M151,21.83V17.47h.83v.62a1.74,1.74,0,0,1,1.41-.76c.95,0,1.42.55,1.42,1.54v3h-.83V19c0-.7-.31-1-.89-1a1.38,1.38,0,0,0-1.12.7v3.14Z" fill="#666"/><path d="M156,20.47V18.11h-.56v-.64H156V16.14h.83v1.32h1v.64h-1v2.31c0,.64.22.81.63.81a1.43,1.43,0,0,0,.41-.06v.64a2,2,0,0,1-.57.07C156.45,21.88,156,21.46,156,20.47Z" fill="#666"/><path d="M160.65,22a2.16,2.16,0,0,1-2.18-2.29,2.18,2.18,0,1,1,4.36,0A2.15,2.15,0,0,1,160.65,22Zm0-.67c.7,0,1.34-.56,1.34-1.62S161.36,18,160.65,18s-1.33.61-1.33,1.68S160,21.29,160.65,21.29Z" fill="#666"/><path d="M172.85,15.71h.68l2.22,6.12h-.89l-.53-1.49h-2.4l-.53,1.49h-.78Zm.28,1.26-1,2.73h1.94Z" fill="#666"/><path d="M179.24,21.21a1.61,1.61,0,0,1-1.36.76c-.91,0-1.42-.53-1.42-1.53v-3h.83v2.88c0,.71.29,1,.86,1a1.38,1.38,0,0,0,1.09-.66V17.47h.83v4.37h-.83Z" fill="#666"/><path d="M181.31,21.83V17.47h.83v.59a1.48,1.48,0,0,1,1.28-.73,1.11,1.11,0,0,1,1.21.85,1.54,1.54,0,0,1,1.39-.85c.89,0,1.34.55,1.34,1.54v3h-.84V19c0-.7-.24-1-.79-1a1.16,1.16,0,0,0-1,.65v3.2h-.84V19c0-.7-.25-1-.81-1a1.16,1.16,0,0,0-1,.62v3.22Z" fill="#666"/><path d="M190.56,21.91a2.14,2.14,0,0,1-2.29-2.31,2.08,2.08,0,0,1,2-2.27c1.11,0,1.84.73,1.84,2.11v.32h-3a1.39,1.39,0,0,0,1.53,1.49,2.83,2.83,0,0,0,1.2-.24l.14.61A3.2,3.2,0,0,1,190.56,21.91Zm-1.42-2.75h2.2c-.05-.87-.46-1.22-1.07-1.22S189.25,18.38,189.13,19.17Z" fill="#666"/><path d="M193.07,21.83V17.47h.83v.62a1.74,1.74,0,0,1,1.41-.76c.95,0,1.42.55,1.42,1.54v3h-.83V19c0-.7-.31-1-.89-1a1.38,1.38,0,0,0-1.12.7v3.14Z" fill="#666"/><path d="M198,20.47V18.11h-.56v-.64H198V16.14h.83v1.32h1v.64h-1v2.31c0,.64.22.81.63.81a1.43,1.43,0,0,0,.41-.06v.64a2,2,0,0,1-.57.07C198.48,21.88,198,21.46,198,20.47Z" fill="#666"/><path d="M202.67,22a2.16,2.16,0,0,1-2.18-2.29,2.18,2.18,0,1,1,4.36,0A2.15,2.15,0,0,1,202.67,22Zm0-.67c.7,0,1.34-.56,1.34-1.62S203.38,18,202.67,18s-1.33.61-1.33,1.68S202,21.29,202.67,21.29Z" fill="#666"/><path d="M58,8.35a3.89,3.89,0,0,1-2.11.52,3.54,3.54,0,0,1-3.79-3.78,3.65,3.65,0,0,1,3.8-3.94,4.59,4.59,0,0,1,2,.37L57.44,3a2.89,2.89,0,0,0-1.29-.31A2,2,0,0,0,54,5.07a1.94,1.94,0,0,0,2,2.22,2.9,2.9,0,0,0,1.45-.38Z" fill="#231f20"/><path d="M61.33,8.29a1.49,1.49,0,0,1-1.22.57,1.59,1.59,0,0,1-1.65-1.72,1.85,1.85,0,0,1,2.87-1.43V5.48c0-.71-.48-.88-1-.88a2.83,2.83,0,0,0-1.2.29l-.36-1.28a4.22,4.22,0,0,1,2-.42c1.8,0,2.45.85,2.45,2.2V8.75H61.33Zm0-.77V6.61a1,1,0,0,0-.57-.18.57.57,0,0,0-.6.64.57.57,0,0,0,.6.64A1,1,0,0,0,61.33,7.53Z" fill="#231f20"/><path d="M64,8.75V3.36h1.81V4a1.69,1.69,0,0,1,1.48-.78,1.4,1.4,0,0,1,1.44.92,1.85,1.85,0,0,1,1.63-.92c1.2,0,1.73.88,1.73,2V8.75H70.31V5.39c0-.51-.2-.76-.65-.76A.79.79,0,0,0,69,5V8.75H67.17V5.39c0-.51-.21-.76-.66-.76a.83.83,0,0,0-.67.33V8.75Z" fill="#231f20"/><path d="M74.82,8.18v.57H73V1h1.81V3.87a2,2,0,0,1,1.48-.68c1.32,0,2.28.89,2.28,2.81s-1,2.88-2.31,2.88A1.72,1.72,0,0,1,74.82,8.18ZM76.75,6c0-1.07-.56-1.39-1-1.39a1.13,1.13,0,0,0-.9.37V7.11a1.19,1.19,0,0,0,.9.35C76.19,7.46,76.75,7.07,76.75,6Z" fill="#231f20"/><path d="M80.14,1a.93.93,0,0,1,1,.95,1,1,0,0,1-1.94,0A.93.93,0,0,1,80.14,1Zm-.91,2.37H81V8.75H79.23Z" fill="#231f20"/><path d="M84.51,8.9A2.68,2.68,0,0,1,81.7,6.09a2.81,2.81,0,1,1,5.63,0A2.68,2.68,0,0,1,84.51,8.9Zm0-1.41c.51,0,1-.35,1-1.42S85,4.6,84.51,4.6s-1,.41-1,1.47S84,7.49,84.51,7.49Z" fill="#231f20"/><path d="M90,4.51c-.37,0-.66.08-.66.35s.89.34,1.64.71A1.44,1.44,0,0,1,91.82,7c0,1.22-.91,1.86-2.26,1.86a3.73,3.73,0,0,1-1.9-.4L88,7.22a3.08,3.08,0,0,0,1.38.35c.52,0,.74-.16.74-.39,0-.42-1.15-.32-1.84-.87A1.53,1.53,0,0,1,87.76,5c0-1.2.86-1.79,2.14-1.79a4.18,4.18,0,0,1,1.79.34l-.34,1.23A3.36,3.36,0,0,0,90,4.51Z" fill="#231f20"/><path d="M97.23,8.84c-1.67,0-3-.8-3-2.86a2.63,2.63,0,0,1,2.7-2.8,2.27,2.27,0,0,1,2.39,2.55V6.5H96c.13.64.56.94,1.44.94a3.53,3.53,0,0,0,1.37-.32l.27,1.29A3.86,3.86,0,0,1,97.23,8.84ZM96,5.39h1.55c0-.59-.24-.92-.72-.92S96.12,4.84,96,5.39Z" fill="#231f20"/><path d="M99.94,8.75V3.36h1.81V4a1.94,1.94,0,0,1,1.58-.78c1.27,0,1.73.87,1.73,2V8.75h-1.81V5.38c0-.51-.2-.75-.67-.75a.94.94,0,0,0-.83.52v3.6Z" fill="#231f20"/><path d="M110.72,8.84c-1.67,0-3-.8-3-2.86a2.63,2.63,0,0,1,2.7-2.8,2.27,2.27,0,0,1,2.39,2.55V6.5h-3.23c.13.64.56.94,1.44.94a3.53,3.53,0,0,0,1.37-.32l.27,1.29A3.86,3.86,0,0,1,110.72,8.84Zm-1.19-3.46h1.55c0-.59-.24-.92-.72-.92S109.61,4.84,109.53,5.39Z" fill="#231f20"/><path d="M113.47,1h1.81V8.75h-1.81Z" fill="#231f20"/><path d="M119.18,1a.93.93,0,0,1,1,.95,1,1,0,0,1-1.94,0A.93.93,0,0,1,119.18,1Zm-.91,2.37h1.81V8.75h-1.81Z" fill="#231f20"/><path d="M121,8.75V3.36h1.81V4a1.94,1.94,0,0,1,1.58-.78c1.27,0,1.73.87,1.73,2V8.75h-1.81V5.38c0-.51-.2-.75-.67-.75a.94.94,0,0,0-.83.52v3.6Z" fill="#231f20"/><path d="M129.11,10.77c-1.68,0-2.6-.4-2.6-1.22,0-.44.39-.75.85-.95a1.06,1.06,0,0,1-.44-.87,1.31,1.31,0,0,1,.81-1.23,1.64,1.64,0,0,1-.84-1.45,2,2,0,0,1,2.23-1.87,2.4,2.4,0,0,1,1.42.42A2.28,2.28,0,0,1,132,3.2V4.44a4,4,0,0,0-.83,0,1.36,1.36,0,0,1,.12.61c0,1.14-1,1.76-2.18,1.76a3.2,3.2,0,0,1-.63-.06.35.35,0,0,0-.15.28c0,.17.13.26.41.26h1.51A1.55,1.55,0,0,1,132,8.9C132,10.18,130.92,10.77,129.11,10.77Zm1.21-1.56c0-.2-.11-.41-.54-.41h-1.63a.47.47,0,0,0-.22.39c0,.3.33.49,1.14.49C130,9.68,130.31,9.5,130.31,9.21ZM129.1,5.81c.3,0,.61-.16.61-.76s-.31-.79-.61-.79-.61.2-.62.79S128.8,5.81,129.1,5.81Z" fill="#231f20"/><path d="M132.6,8.75V3.36h1.81v1a2.25,2.25,0,0,1,1.77-1.09V5.07a2.3,2.3,0,0,0-1.77.44V8.75Z" fill="#231f20"/><path d="M139.5,8.84c-1.67,0-3-.8-3-2.86a2.63,2.63,0,0,1,2.7-2.8,2.27,2.27,0,0,1,2.39,2.55V6.5h-3.23c.13.64.56.94,1.44.94a3.53,3.53,0,0,0,1.37-.32l.27,1.29A3.86,3.86,0,0,1,139.5,8.84Zm-1.19-3.46h1.55c0-.59-.24-.92-.72-.92S138.39,4.84,138.31,5.39Z" fill="#231f20"/><path d="M144.23,4.51c-.37,0-.66.08-.66.35s.89.34,1.64.71A1.44,1.44,0,0,1,146,7c0,1.22-.91,1.86-2.26,1.86a3.73,3.73,0,0,1-1.9-.4l.36-1.26a3.08,3.08,0,0,0,1.38.35c.52,0,.74-.16.74-.39,0-.42-1.15-.32-1.84-.87A1.53,1.53,0,0,1,142,5c0-1.2.86-1.79,2.14-1.79a4.18,4.18,0,0,1,1.79.34l-.34,1.23A3.36,3.36,0,0,0,144.23,4.51Z" fill="#231f20"/><path d="M149.26,8.9a2.68,2.68,0,0,1-2.81-2.81,2.81,2.81,0,1,1,5.63,0A2.68,2.68,0,0,1,149.26,8.9Zm0-1.41c.51,0,1-.35,1-1.42s-.48-1.47-1-1.47-1,.41-1,1.47S148.77,7.49,149.26,7.49Z" fill="#231f20"/><path d="M154.93,4.63h-.55V3.36h.55V3.09A1.92,1.92,0,0,1,157,.92a3.53,3.53,0,0,1,.75.06V2.33a2,2,0,0,0-.4,0c-.38,0-.63.22-.63.77v.3h1V4.63h-1V8.75h-1.81Z" fill="#231f20"/><path d="M160.87,8.29a1.49,1.49,0,0,1-1.22.57A1.59,1.59,0,0,1,158,7.15a1.85,1.85,0,0,1,2.87-1.43V5.48c0-.71-.48-.88-1-.88a2.83,2.83,0,0,0-1.2.29l-.36-1.28a4.22,4.22,0,0,1,2-.42c1.8,0,2.45.85,2.45,2.2V8.75h-1.81Zm0-.77V6.61a1,1,0,0,0-.57-.18.57.57,0,0,0-.6.64.57.57,0,0,0,.6.64A1,1,0,0,0,160.87,7.53Z" fill="#231f20"/><path d="M163.58,8.75V3.36h1.81V4a1.69,1.69,0,0,1,1.48-.78,1.4,1.4,0,0,1,1.44.92,1.85,1.85,0,0,1,1.63-.92c1.2,0,1.73.88,1.73,2V8.75h-1.81V5.39c0-.51-.2-.76-.65-.76a.79.79,0,0,0-.68.37V8.75h-1.81V5.39c0-.51-.21-.76-.66-.76a.83.83,0,0,0-.67.33V8.75Z" fill="#231f20"/><path d="M173.47,1a.93.93,0,0,1,1,.95,1,1,0,0,1-1.94,0A.93.93,0,0,1,173.47,1Zm-.91,2.37h1.81V8.75h-1.81Z" fill="#231f20"/><path d="M175.35,1h1.81V8.75h-1.81Z" fill="#231f20"/><path d="M179,1a.93.93,0,0,1,1,.95,1,1,0,0,1-1.94,0A.93.93,0,0,1,179,1Zm-.91,2.37h1.81V8.75h-1.81Z" fill="#231f20"/><path d="M183.46,8.29a1.49,1.49,0,0,1-1.22.57,1.59,1.59,0,0,1-1.65-1.72,1.85,1.85,0,0,1,2.87-1.43V5.48c0-.71-.48-.88-1-.88a2.83,2.83,0,0,0-1.2.29l-.36-1.28a4.22,4.22,0,0,1,2-.42c1.8,0,2.45.85,2.45,2.2V8.75h-1.81Zm0-.77V6.61a1,1,0,0,0-.57-.18.57.57,0,0,0-.6.64.57.57,0,0,0,.6.64A1,1,0,0,0,183.46,7.53Z" fill="#231f20"/><path d="M186.17,8.75V3.36H188v1a2.25,2.25,0,0,1,1.77-1.09V5.07a2.3,2.3,0,0,0-1.77.44V8.75Z" fill="#231f20"/><path d="M194.11,5.47a7,7,0,0,0,1.47,4.39v.09h-1.5a6.48,6.48,0,0,1-1.7-4.48A6.5,6.5,0,0,1,194.08,1h1.5V1A7.69,7.69,0,0,0,194.11,5.47Z" fill="#231f20"/><path d="M195.85,8.75V7.65l2-2.24a3,3,0,0,0,.9-1.77.93.93,0,0,0-1.07-1,2.42,2.42,0,0,0-1.41.38l-.43-1.39a3.88,3.88,0,0,1,2.08-.52c1.72,0,2.56.91,2.56,2.29,0,1-.42,1.81-1.6,3l-.82.86h2.38V8.75Z" fill="#231f20"/><path d="M204.26,8.92c-1.58,0-3.08-1-3.08-3.87s1.5-3.95,3.08-3.95,3.09,1.14,3.09,3.95S205.85,8.92,204.26,8.92Zm0-1.48c.71,0,1.17-.66,1.17-2.41s-.46-2.45-1.17-2.45S203.1,3.27,203.1,5,203.56,7.44,204.26,7.44Z" fill="#231f20"/><path d="M211.08,8.92c-1.58,0-3.08-1-3.08-3.87s1.5-3.95,3.08-3.95,3.09,1.14,3.09,3.95S212.67,8.92,211.08,8.92Zm0-1.48c.71,0,1.17-.66,1.17-2.41s-.46-2.45-1.17-2.45-1.16.69-1.16,2.45S210.38,7.44,211.08,7.44Z" fill="#231f20"/><path d="M215.06,8.75l2.28-6.08h-2.77V1.26h4.79v1.1L217,8.75Z" fill="#231f20"/><path d="M219.93,6.25V5h2.83V6.25Z" fill="#231f20"/><path d="M223.36,8.75V7.65l2-2.24a3,3,0,0,0,.9-1.77.93.93,0,0,0-1.07-1,2.42,2.42,0,0,0-1.41.38l-.43-1.39a3.88,3.88,0,0,1,2.08-.52c1.72,0,2.56.91,2.56,2.29,0,1-.42,1.81-1.6,3l-.82.86h2.38V8.75Z" fill="#231f20"/><path d="M231.78,8.92c-1.58,0-3.08-1-3.08-3.87s1.5-3.95,3.08-3.95,3.09,1.14,3.09,3.95S233.37,8.92,231.78,8.92Zm0-1.48c.71,0,1.17-.66,1.17-2.41s-.46-2.45-1.17-2.45-1.16.69-1.16,2.45S231.08,7.44,231.78,7.44Z" fill="#231f20"/><path d="M236.67,3.25l-1.18.85V2.55l1.92-1.35h1.14V8.75h-1.88Z" fill="#231f20"/><path d="M239.4,8.48l.43-1.39a2.88,2.88,0,0,0,1.29.3c.78,0,1.27-.39,1.27-1.14s-.49-1.1-1.39-1.1a2.84,2.84,0,0,0-1,.16l0,0,.45-4H244V2.7h-2.26l-.14,1.17c1.72,0,2.64,1,2.64,2.38a2.59,2.59,0,0,1-2.91,2.67A3.93,3.93,0,0,1,239.4,8.48Z" fill="#231f20"/><path d="M244.5,1H246a6.5,6.5,0,0,1,1.7,4.51A6.48,6.48,0,0,1,246,9.94h-1.5V9.85A7,7,0,0,0,246,5.47,7.69,7.69,0,0,0,244.5,1Z" fill="#231f20"/><rect x="199.36" y="30.83" width="30.06" height="8" fill="#efefef" stroke="#dedddd" stroke-miterlimit="10" stroke-width="0.5"/><path d="M202.79,32.8c-.48,0-.82.23-.82.67s.43.6,1,.85,1.2.6,1.2,1.39a1.4,1.4,0,0,1-1.58,1.42,2.43,2.43,0,0,1-1.42-.38l.2-.55a2.08,2.08,0,0,0,1.21.36c.58,0,.95-.25.95-.78s-.38-.67-1-.95-1.16-.61-1.16-1.34.57-1.25,1.47-1.25a2.47,2.47,0,0,1,1.23.28l-.18.53A2.17,2.17,0,0,0,202.79,32.8Z" fill="#666"/><path d="M205.36,32.19a.36.36,0,0,1,0,.73.36.36,0,0,1,0-.73ZM205,33.65h.65V37H205Z" fill="#666"/><path d="M206.68,37v-3.4h.64v.48a1.35,1.35,0,0,1,1.1-.59c.74,0,1.11.43,1.11,1.2V37h-.64V34.81c0-.55-.25-.76-.69-.76a1.07,1.07,0,0,0-.87.55V37Z" fill="#666"/><path d="M214.3,36.58a1.44,1.44,0,0,1-1.09.56c-.84,0-1.5-.57-1.5-1.76a1.65,1.65,0,0,1,1.54-1.83,1.33,1.33,0,0,1,1,.49V32.09H215v5h-.65Zm0-.45V34.47a1.16,1.16,0,0,0-.9-.41c-.53,0-1,.43-1,1.32s.48,1.24,1,1.24A1.17,1.17,0,0,0,214.3,36.13Z" fill="#666"/><path d="M217.68,36.71a1.13,1.13,0,0,1-.89.41A1.07,1.07,0,0,1,215.66,36a1.1,1.1,0,0,1,1.22-1.1,1.19,1.19,0,0,1,.8.26V34.8c0-.56-.31-.74-.82-.74a2,2,0,0,0-.83.2l-.14-.46a2.31,2.31,0,0,1,1.09-.25c.92,0,1.35.42,1.35,1.2V37h-.64Zm0-.37v-.76a1,1,0,0,0-.67-.24c-.41,0-.72.19-.72.64a.64.64,0,0,0,.68.69A.89.89,0,0,0,217.68,36.34Z" fill="#666"/><path d="M219.35,36V34.15h-.43v-.5h.43v-1H220v1h.81v.5H220v1.8c0,.5.17.63.49.63a1.1,1.1,0,0,0,.32,0V37a1.55,1.55,0,0,1-.44.06C219.73,37.08,219.35,36.76,219.35,36Z" fill="#666"/><path d="M223,37.14a1.68,1.68,0,0,1-1.69-1.78,1.7,1.7,0,1,1,3.39,0A1.67,1.67,0,0,1,223,37.14Zm0-.52c.55,0,1-.43,1-1.26s-.49-1.31-1-1.31-1,.48-1,1.31S222.45,36.63,223,36.63Z" fill="#666"/><path d="M226.43,34.08c-.38,0-.61.11-.61.43s.69.45,1.21.71a.84.84,0,0,1,.5.84c0,.64-.48,1.06-1.29,1.06a2.31,2.31,0,0,1-1.12-.23l.15-.5a2,2,0,0,0,.92.22c.53,0,.71-.22.71-.5,0-.5-.74-.46-1.23-.76a.86.86,0,0,1-.44-.78c0-.63.47-1,1.18-1a2.71,2.71,0,0,1,1,.18l-.14.5A2.21,2.21,0,0,0,226.43,34.08Z" fill="#666"/></g></svg>