<svg xmlns="http://www.w3.org/2000/svg" viewBox="0 0 300 53"><title>poverty-legend</title><g id="Work_area" data-name="Work area"><rect x="148.7" y="29.12" width="17.91" height="8" fill="#fde0ef"/><rect x="130.97" y="29.12" width="17.91" height="8" fill="#f1b6da"/><rect x="113.24" y="29.12" width="17.91" height="8" fill="#de77ae"/><rect x="95.51" y="29.12" width="17.91" height="8" fill="#c51b7d"/><rect x="77.78" y="29.12" width="17.91" height="8" fill="#8e0152"/><rect x="166.8" y="29.12" width="17.91" height="8" fill="#e6f5d0"/><line x1="95.67" y1="29.8" x2="95.67" y2="42.8" fill="none" stroke="#666" stroke-linecap="round" stroke-linejoin="round" stroke-width="0.7"/><line x1="113.45" y1="29.8" x2="113.45" y2="42.8" fill="none" stroke="#666" stroke-linecap="round" stroke-linejoin="round" stroke-width="0.7"/><line x1="131.23" y1="29.8" x2="131.23" y2="42.8" fill="none" stroke="#666" stroke-linecap="round" stroke-linejoin="round" stroke-width="0.7"/><line x1="149.01" y1="29.8" x2="149.01" y2="42.8" fill="none" stroke="#666" stroke-linecap="round" stroke-linejoin="round" stroke-width="0.7"/><line x1="166.8" y1="29.8" x2="166.8" y2="42.8" fill="none" stroke="#666" stroke-linecap="round" stroke-linejoin="round" stroke-width="0.7"/><text transform="translate(65.67 51.58)" font-size="9" fill="#656565" font-family="McClatchySansText-Regular, McClatchy Sans Text"><tspan letter-spacing="1.12em">	</tspan><tspan x="11.99" y="0" letter-spacing="0.91em">	</tspan><tspan x="22.08" y="0" letter-spacing="-0.01em">5</tspan><tspan x="26.24" y="0" letter-spacing="0.01em">7</tspan><tspan x="30.65" y="0">%</tspan><tspan x="36.97" y="0" letter-spacing="0.11em">	</tspan><tspan x="39.84" y="0">4</tspan><tspan x="44.66" y="0" letter-spacing="-0.02em">8</tspan><tspan x="49.39" y="0">%</tspan><tspan x="55.71" y="0" letter-spacing="0.07em">	</tspan><tspan x="58.26" y="0">3</tspan><tspan x="62.42" y="0" letter-spacing="-0.01em">8</tspan><tspan x="67.16" y="0">%</tspan><tspan x="73.47" y="0" letter-spacing="0.07em">	</tspan><tspan x="75.98" y="0">2</tspan><tspan x="80.16" y="0" letter-spacing="0em">6</tspan><tspan x="85.03" y="0">%</tspan><tspan x="91.35" y="0" letter-spacing="0.57em">	</tspan><tspan x="98.36" y="0">0</tspan><tspan x="103.84" y="0" letter-spacing="2.24em">	</tspan></text><line x1="170.4" y1="24.83" x2="186.44" y2="24.83" fill="none" stroke="#666" stroke-linecap="round" stroke-linejoin="round" stroke-width="0.7"/><polygon points="189.9 24.83 185.02 26.82 186.18 24.83 185.02 22.84 189.9 24.83" fill="#666"/><line x1="147.63" y1="24.83" x2="163.17" y2="24.83" fill="none" stroke="#666" stroke-linecap="round" stroke-linejoin="round" stroke-width="0.7"/><polygon points="144.17 24.83 149.04 26.82 147.88 24.83 149.04 22.84 144.17 24.83" fill="#666"/><text transform="translate(131.5 21.83)" font-size="9" fill="#666" font-family="McClatchySansText-Regular, McClatchy Sans Text">Inc<tspan x="11.59" y="0" letter-spacing="-0.01em">r</tspan><tspan x="14.71" y="0">ease</tspan></text><text transform="translate(170.4 21.83)" font-size="9" fill="#666" font-family="McClatchySansText-Regular, McClatchy Sans Text"><tspan letter-spacing="-0.01em">D</tspan><tspan x="5.83" y="0">ec</tspan><tspan x="14.56" y="0" letter-spacing="-0.01em">r</tspan><tspan x="17.69" y="0" letter-spacing="0em">ease</tspan></text><text transform="translate(68.61 8.75)" font-size="10" fill="#231f20" font-family="McClatchySans-Bold, McClatchy Sans" font-weight="700"><tspan letter-spacing="-0.01em">Cha</tspan><tspan x="17.75" y="0" letter-spacing="-0.01em">n</tspan><tspan x="23.7" y="0" letter-spacing="-0.03em">g</tspan><tspan x="29.13" y="0" letter-spacing="-0.01em">e in p</tspan><tspan x="53.62" y="0" letter-spacing="-0.03em">ov</tspan><tspan x="64.64" y="0" letter-spacing="-0.01em">e</tspan><tspan x="70.11" y="0">r</tspan><tspan x="74.4" y="0" letter-spacing="-0.01em">ty </tspan><tspan x="85.68" y="0" letter-spacing="-0.02em">ra</tspan><tspan x="95.06" y="0" letter-spacing="-0.01em">te (</tspan><tspan x="110.03" y="0" letter-spacing="-0.01em">2</tspan><tspan x="115.25" y="0" letter-spacing="-0.01em">0</tspan><tspan x="122.07" y="0" letter-spacing="-0.03em">0</tspan><tspan x="128.74" y="0" letter-spacing="-0.01em">7-</tspan><tspan x="137.55" y="0" letter-spacing="0em">2</tspan><tspan x="142.77" y="0" letter-spacing="-0.01em">015)</tspan></text><rect x="200.88" y="29.5" width="27" height="8" fill="#efefef" stroke="#dedddd" stroke-miterlimit="10" stroke-width="0.5"/><text transform="translate(202.82 35.71)" font-size="7" fill="#666" font-family="McClatchySansText-Regular, McClatchy Sans Text"><tspan letter-spacing="0em">N</tspan><tspan x="4.77" y="0">o data</tspan></text></g></svg>