<svg xmlns="http://www.w3.org/2000/svg" viewBox="0 0 300 53"><title>wages-legend_poverty</title><g id="Work_area" data-name="Work area"><rect x="102.88" y="29.12" width="17.91" height="8" fill="#fde0ef"/><rect x="120.61" y="29.12" width="17.91" height="8" fill="#f1b6da"/><rect x="138.34" y="29.12" width="17.91" height="8" fill="#de77ae"/><rect x="156.07" y="29.12" width="17.91" height="8" fill="#c51b7d"/><rect x="173.8" y="29.12" width="17.91" height="8" fill="#8e0152"/><rect x="84.78" y="29.12" width="17.91" height="8" fill="#e6f5d0"/><line x1="173.82" y1="29.8" x2="173.82" y2="42.8" fill="none" stroke="#666" stroke-linecap="round" stroke-linejoin="round" stroke-width="0.7"/><line x1="156.04" y1="29.8" x2="156.04" y2="42.8" fill="none" stroke="#666" stroke-linecap="round" stroke-linejoin="round" stroke-width="0.7"/><line x1="138.26" y1="29.8" x2="138.26" y2="42.8" fill="none" stroke="#666" stroke-linecap="round" stroke-linejoin="round" stroke-width="0.7"/><line x1="120.47" y1="29.8" x2="120.47" y2="42.8" fill="none" stroke="#666" stroke-linecap="round" stroke-linejoin="round" stroke-width="0.7"/><line x1="102.69" y1="29.8" x2="102.69" y2="42.8" fill="none" stroke="#666" stroke-linecap="round" stroke-linejoin="round" stroke-width="0.7"/><path d="M102.2,51.7c-1.21,0-2.32-.91-2.31-3.12s1.11-3.19,2.31-3.19,2.33,1,2.32,3.19S103.41,51.7,102.2,51.7Zm0-.68c.82,0,1.43-.77,1.43-2.45s-.61-2.49-1.43-2.49-1.41.81-1.42,2.49S101.39,51,102.2,51Z" fill="#656565"/><path d="M113,51.58v-.5l1.74-2a2.94,2.94,0,0,0,.93-1.87,1,1,0,0,0-1.14-1.12,2.08,2.08,0,0,0-1.24.38l-.23-.64a2.68,2.68,0,0,1,1.56-.43,1.66,1.66,0,0,1,1.88,1.74,3.76,3.76,0,0,1-1.31,2.45L114,50.91h2.5v.67Z" fill="#656565"/><path d="M117.41,49.14a4.2,4.2,0,0,1,2.26-3.63h1v0a4.72,4.72,0,0,0-2.35,2.81,1.82,1.82,0,0,1,1.39-.63,1.73,1.73,0,0,1,1.76,1.89,1.9,1.9,0,0,1-1.93,2.07C118.22,51.69,117.41,50.75,117.41,49.14Zm3.23.48a1.12,1.12,0,0,0-1.16-1.27,1.53,1.53,0,0,0-1.24.62,1.64,1.64,0,0,0,0,.21c0,1.21.5,1.86,1.28,1.86S120.65,50.49,120.65,49.61Z" fill="#656565"/><path d="M123.46,48.55A1.37,1.37,0,0,1,122.15,47c0-1.05.63-1.61,1.31-1.61A1.42,1.42,0,0,1,124.79,47,1.38,1.38,0,0,1,123.46,48.55Zm3.26-3h.59l-4.07,6.07h-.6ZM123.46,48c.34,0,.63-.29.63-1s-.29-1.05-.63-1.05-.62.33-.62,1.05S123.13,48,123.46,48Zm3,3.67a1.38,1.38,0,0,1-1.31-1.57c0-1.05.63-1.6,1.31-1.6s1.31.55,1.31,1.6A1.39,1.39,0,0,1,126.49,51.67Zm0-.55c.32,0,.63-.3.63-1s-.31-1.05-.63-1.05-.63.33-.63,1.05S126.15,51.13,126.49,51.13Z" fill="#656565"/><path d="M131.08,51.29l.23-.65a2.3,2.3,0,0,0,1.31.35,1.12,1.12,0,0,0,1.24-1.13c0-.68-.41-1.09-1.3-1.09h-.32v-.68h.32c.76,0,1.2-.41,1.2-1s-.39-1-1.13-1a2.1,2.1,0,0,0-1.13.32l-.23-.61a2.5,2.5,0,0,1,1.44-.4c1.12,0,1.84.56,1.84,1.6a1.41,1.41,0,0,1-1.09,1.37,1.46,1.46,0,0,1,1.22,1.52,1.83,1.83,0,0,1-2,1.79A2.89,2.89,0,0,1,131.08,51.29Z" fill="#656565"/><path d="M135.46,50.06c0-.83.69-1.34,1.48-1.6-.73-.32-1.27-.74-1.27-1.52s.7-1.53,1.86-1.53,1.86.64,1.86,1.49-.54,1.14-1.25,1.43c.85.36,1.47.84,1.47,1.66,0,1-.82,1.71-2.06,1.71S135.46,51,135.46,50.06Zm3.32,0c0-.6-.48-.93-1.31-1.28-.66.27-1.19.66-1.19,1.26s.45,1,1.26,1S138.78,50.61,138.78,50Zm-1.19-2c.6-.27,1-.52,1-1.07s-.37-.89-1.08-.89-1.08.39-1.08.91S137,47.74,137.59,48Z" fill="#656565"/><path d="M141.48,48.55A1.37,1.37,0,0,1,140.16,47c0-1.05.63-1.61,1.31-1.61A1.42,1.42,0,0,1,142.8,47,1.38,1.38,0,0,1,141.48,48.55Zm3.26-3h.59l-4.07,6.07h-.6ZM141.48,48c.34,0,.63-.29.63-1s-.29-1.05-.63-1.05-.62.33-.62,1.05S141.14,48,141.48,48Zm3,3.67a1.38,1.38,0,0,1-1.31-1.57c0-1.05.63-1.6,1.31-1.6s1.31.55,1.31,1.6A1.39,1.39,0,0,1,144.5,51.67Zm0-.55c.32,0,.63-.3.63-1S144.83,49,144.5,49s-.63.33-.63,1.05S144.16,51.13,144.5,51.13Z" fill="#656565"/><path d="M151.32,50.21h-2.7v-.54L151,45.51h1.16v4h.79v.66h-.79v1.37h-.82Zm0-4.05-1.93,3.39h1.93Z" fill="#656565"/><path d="M153.58,50.06c0-.83.69-1.34,1.48-1.6-.73-.32-1.27-.74-1.27-1.52s.7-1.53,1.86-1.53,1.86.64,1.86,1.49S157,48,156.27,48.33c.85.36,1.47.84,1.47,1.66,0,1-.82,1.71-2.06,1.71S153.58,51,153.58,50.06Zm3.32,0c0-.6-.48-.93-1.31-1.28-.66.27-1.19.66-1.19,1.26s.45,1,1.26,1S156.9,50.61,156.9,50Zm-1.19-2c.6-.27,1-.52,1-1.07s-.37-.89-1.08-.89-1.08.39-1.08.91S155.09,47.74,155.72,48Z" fill="#656565"/><path d="M159.6,48.55A1.37,1.37,0,0,1,158.29,47c0-1.05.63-1.61,1.31-1.61A1.42,1.42,0,0,1,160.93,47,1.38,1.38,0,0,1,159.6,48.55Zm3.26-3h.59l-4.07,6.07h-.6ZM159.6,48c.34,0,.63-.29.63-1s-.29-1.05-.63-1.05S159,46.26,159,47,159.27,48,159.6,48Zm3,3.67a1.38,1.38,0,0,1-1.31-1.57c0-1.05.63-1.6,1.31-1.6s1.31.55,1.31,1.6A1.39,1.39,0,0,1,162.63,51.67Zm0-.55c.32,0,.63-.3.63-1S163,49,162.63,49s-.63.33-.63,1.05S162.29,51.13,162.63,51.13Z" fill="#656565"/><path d="M168.71,51.29l.23-.64a2.48,2.48,0,0,0,1.32.34,1.28,1.28,0,0,0,1.35-1.36c0-.9-.59-1.31-1.57-1.31a2.31,2.31,0,0,0-.81.11l0,0,.37-2.9h2.73v.68h-2.07l-.2,1.48c1.59-.12,2.44.73,2.44,2a2,2,0,0,1-2.14,2.06A2.91,2.91,0,0,1,168.71,51.29Z" fill="#656565"/><path d="M173.58,51.58l2.2-5.39H173v-.68h3.7V46l-2.27,5.57Z" fill="#656565"/><path d="M178.78,48.55A1.37,1.37,0,0,1,177.46,47c0-1.05.63-1.61,1.31-1.61A1.42,1.42,0,0,1,180.1,47,1.38,1.38,0,0,1,178.78,48.55Zm3.26-3h.59l-4.07,6.07H178ZM178.78,48c.34,0,.63-.29.63-1s-.29-1.05-.63-1.05-.62.33-.62,1.05S178.44,48,178.78,48Zm3,3.67a1.38,1.38,0,0,1-1.31-1.57c0-1.05.63-1.6,1.31-1.6s1.31.55,1.31,1.6A1.39,1.39,0,0,1,181.8,51.67Zm0-.55c.32,0,.63-.3.63-1S182.13,49,181.8,49s-.63.33-.63,1.05S181.46,51.13,181.8,51.13Z" fill="#656565"/><line x1="106.9" y1="24.83" x2="122.94" y2="24.83" fill="none" stroke="#666" stroke-linecap="round" stroke-linejoin="round" stroke-width="0.7"/><polygon points="126.39 24.83 121.52 26.82 122.68 24.83 121.52 22.84 126.39 24.83" fill="#666"/><line x1="84.13" y1="24.83" x2="99.67" y2="24.83" fill="none" stroke="#666" stroke-linecap="round" stroke-linejoin="round" stroke-width="0.7"/><polygon points="80.67 24.83 85.54 26.82 84.38 24.83 85.54 22.84 80.67 24.83" fill="#666"/><path d="M65.81,15.77h1.72a2.87,2.87,0,0,1,3,3.07,2.81,2.81,0,0,1-3,3H65.81Zm.89.67v4.71h.79a2,2,0,0,0,2.08-2.32,2.1,2.1,0,0,0-2.1-2.39Z" fill="#666"/><path d="M73.49,21.91A2.14,2.14,0,0,1,71.2,19.6a2.08,2.08,0,0,1,2-2.27c1.11,0,1.84.73,1.84,2.11v.32H72a1.39,1.39,0,0,0,1.53,1.49,2.83,2.83,0,0,0,1.2-.24l.14.61A3.2,3.2,0,0,1,73.49,21.91Zm-1.42-2.75h2.2c-.05-.87-.46-1.22-1.07-1.22S72.18,18.38,72.06,19.17Z" fill="#666"/><path d="M79.26,21.63a2.81,2.81,0,0,1-1.32.28,2.1,2.1,0,0,1-2.22-2.24A2.18,2.18,0,0,1,78,17.37a2.9,2.9,0,0,1,1.28.26l-.21.67a2.14,2.14,0,0,0-1-.24,1.45,1.45,0,0,0-1.47,1.61A1.39,1.39,0,0,0,78,21.23,2.38,2.38,0,0,0,79.08,21Z" fill="#666"/><path d="M80.21,17.47H81v.87a1.86,1.86,0,0,1,1.51-.94v.81A1.72,1.72,0,0,0,81,19v2.86h-.83Z" fill="#666"/><path d="M85.34,21.91a2.14,2.14,0,0,1-2.29-2.31,2.08,2.08,0,0,1,2-2.27c1.11,0,1.84.73,1.84,2.11v.32h-3a1.39,1.39,0,0,0,1.53,1.49,2.83,2.83,0,0,0,1.2-.24l.14.61A3.2,3.2,0,0,1,85.34,21.91Zm-1.42-2.75h2.2c-.05-.87-.46-1.22-1.07-1.22S84,18.38,83.92,19.17Z" fill="#666"/><path d="M90.12,21.4a1.45,1.45,0,0,1-1.14.53,1.37,1.37,0,0,1-1.45-1.44,1.42,1.42,0,0,1,1.57-1.41,1.54,1.54,0,0,1,1,.33v-.47c0-.72-.4-1-1.05-1a2.5,2.5,0,0,0-1.07.25l-.18-.59a3,3,0,0,1,1.4-.31c1.18,0,1.74.54,1.74,1.54v3h-.83Zm0-.48v-1a1.34,1.34,0,0,0-.86-.31c-.52,0-.93.24-.93.83a.82.82,0,0,0,.87.89A1.14,1.14,0,0,0,90.12,20.92Z" fill="#666"/><path d="M93.39,18c-.49,0-.78.14-.78.55,0,.6.88.58,1.56.91a1.08,1.08,0,0,1,.64,1.08c0,.83-.62,1.36-1.66,1.36a3,3,0,0,1-1.44-.3L91.9,21a2.5,2.5,0,0,0,1.19.29c.68,0,.91-.28.91-.65,0-.64-.95-.59-1.58-1a1.1,1.1,0,0,1-.57-1c0-.81.6-1.25,1.51-1.25a3.5,3.5,0,0,1,1.34.23l-.18.65A2.83,2.83,0,0,0,93.39,18Z" fill="#666"/><path d="M97.78,21.91a2.14,2.14,0,0,1-2.29-2.31,2.08,2.08,0,0,1,2-2.27c1.11,0,1.84.73,1.84,2.11v.32h-3a1.39,1.39,0,0,0,1.53,1.49,2.83,2.83,0,0,0,1.2-.24l.14.61A3.2,3.2,0,0,1,97.78,21.91Zm-1.42-2.75h2.2c-.05-.87-.46-1.22-1.07-1.22S96.47,18.38,96.35,19.17Z" fill="#666"/><path d="M107.71,15.77h.88v6.07h-.88Z" fill="#666"/><path d="M110,21.83V17.47h.83v.62a1.74,1.74,0,0,1,1.41-.76c.95,0,1.42.55,1.42,1.54v3h-.83V19c0-.7-.31-1-.89-1a1.38,1.38,0,0,0-1.12.7v3.14Z" fill="#666"/><path d="M118.16,21.63a2.81,2.81,0,0,1-1.32.28,2.1,2.1,0,0,1-2.22-2.24,2.18,2.18,0,0,1,2.28-2.3,2.9,2.9,0,0,1,1.28.26l-.21.67a2.14,2.14,0,0,0-1-.24,1.45,1.45,0,0,0-1.47,1.61,1.39,1.39,0,0,0,1.45,1.57A2.38,2.38,0,0,0,118,21Z" fill="#666"/><path d="M119.11,17.47h.83v.87a1.86,1.86,0,0,1,1.51-.94v.81a1.72,1.72,0,0,0-1.51.76v2.86h-.83Z" fill="#666"/><path d="M124.24,21.91A2.14,2.14,0,0,1,122,19.6a2.08,2.08,0,0,1,2-2.27c1.11,0,1.84.73,1.84,2.11v.32h-3a1.39,1.39,0,0,0,1.53,1.49,2.83,2.83,0,0,0,1.2-.24l.14.61A3.2,3.2,0,0,1,124.24,21.91Zm-1.42-2.75H125c-.05-.87-.46-1.22-1.07-1.22S122.93,18.38,122.82,19.17Z" fill="#666"/><path d="M129,21.4a1.45,1.45,0,0,1-1.14.53,1.37,1.37,0,0,1-1.45-1.44A1.42,1.42,0,0,1,128,19.08a1.54,1.54,0,0,1,1,.33v-.47c0-.72-.4-1-1.05-1a2.5,2.5,0,0,0-1.07.25l-.18-.59a3,3,0,0,1,1.4-.31c1.18,0,1.74.54,1.74,1.54v3H129Zm0-.48v-1a1.34,1.34,0,0,0-.86-.31c-.52,0-.93.24-.93.83a.82.82,0,0,0,.87.89A1.14,1.14,0,0,0,129,20.92Z" fill="#666"/><path d="M132.29,18c-.49,0-.78.14-.78.55,0,.6.88.58,1.56.91a1.08,1.08,0,0,1,.64,1.08c0,.83-.62,1.36-1.66,1.36a3,3,0,0,1-1.44-.3l.19-.65a2.5,2.5,0,0,0,1.19.29c.68,0,.91-.28.91-.65,0-.64-.95-.59-1.58-1a1.1,1.1,0,0,1-.57-1c0-.81.6-1.25,1.51-1.25a3.5,3.5,0,0,1,1.34.23l-.18.65A2.83,2.83,0,0,0,132.29,18Z" fill="#666"/><path d="M136.68,21.91a2.14,2.14,0,0,1-2.29-2.31,2.08,2.08,0,0,1,2-2.27c1.11,0,1.84.73,1.84,2.11v.32h-3a1.39,1.39,0,0,0,1.53,1.49A2.83,2.83,0,0,0,138,21l.14.61A3.2,3.2,0,0,1,136.68,21.91Zm-1.42-2.75h2.2c-.05-.87-.46-1.22-1.07-1.22S135.37,18.38,135.25,19.17Z" fill="#666"/><path d="M74.92,8.35a3.89,3.89,0,0,1-2.11.52A3.54,3.54,0,0,1,69,5.09a3.65,3.65,0,0,1,3.8-3.94,4.59,4.59,0,0,1,2,.37L74.39,3a2.89,2.89,0,0,0-1.29-.31A2,2,0,0,0,71,5.07a1.94,1.94,0,0,0,2,2.22,2.9,2.9,0,0,0,1.45-.38Z" fill="#231f20"/><path d="M75.59,8.75V1H77.4V4A1.94,1.94,0,0,1,79,3.19c1.27,0,1.73.87,1.73,2V8.75H78.9V5.38c0-.51-.2-.75-.67-.75a.94.94,0,0,0-.83.52v3.6Z" fill="#231f20"/><path d="M84.18,8.29A1.49,1.49,0,0,1,83,8.87a1.59,1.59,0,0,1-1.65-1.72,1.85,1.85,0,0,1,2.87-1.43V5.48c0-.71-.48-.88-1-.88a2.83,2.83,0,0,0-1.2.29l-.36-1.28a4.22,4.22,0,0,1,2-.42c1.8,0,2.45.85,2.45,2.2V8.75H84.18Zm0-.77V6.61a1,1,0,0,0-.57-.18.57.57,0,0,0-.6.64.57.57,0,0,0,.6.64A1,1,0,0,0,84.18,7.53Z" fill="#231f20"/><path d="M86.88,8.75V3.36h1.81V4a1.94,1.94,0,0,1,1.58-.78c1.27,0,1.73.87,1.73,2V8.75H90.19V5.38c0-.51-.2-.75-.67-.75a.94.94,0,0,0-.83.52v3.6Z" fill="#231f20"/><path d="M95,10.77c-1.68,0-2.6-.4-2.6-1.22,0-.44.39-.75.85-.95a1.06,1.06,0,0,1-.44-.87,1.31,1.31,0,0,1,.81-1.23,1.64,1.64,0,0,1-.84-1.45A2,2,0,0,1,95,3.19a2.4,2.4,0,0,1,1.42.42,2.28,2.28,0,0,1,1.47-.41V4.44a4,4,0,0,0-.83,0,1.36,1.36,0,0,1,.12.61c0,1.14-1,1.76-2.18,1.76a3.2,3.2,0,0,1-.63-.06.35.35,0,0,0-.15.28c0,.17.13.26.41.26h1.51A1.55,1.55,0,0,1,97.87,8.9C97.87,10.18,96.78,10.77,95,10.77Zm1.21-1.56c0-.2-.11-.41-.54-.41H94a.47.47,0,0,0-.22.39c0,.3.33.49,1.14.49C95.91,9.68,96.18,9.5,96.18,9.21ZM95,5.81c.3,0,.61-.16.61-.76s-.31-.79-.61-.79-.61.2-.62.79S94.66,5.81,95,5.81Z" fill="#231f20"/><path d="M101,8.84c-1.67,0-3-.8-3-2.86a2.63,2.63,0,0,1,2.7-2.8,2.27,2.27,0,0,1,2.39,2.55V6.5H99.84c.13.64.56.94,1.44.94a3.53,3.53,0,0,0,1.37-.32l.27,1.29A3.86,3.86,0,0,1,101,8.84ZM99.83,5.39h1.55c0-.59-.24-.92-.72-.92S99.91,4.84,99.83,5.39Z" fill="#231f20"/><path d="M106.66,1a.93.93,0,0,1,1,.95,1,1,0,0,1-1.94,0A.93.93,0,0,1,106.66,1Zm-.91,2.37h1.81V8.75h-1.81Z" fill="#231f20"/><path d="M108.5,8.75V3.36h1.81V4a1.94,1.94,0,0,1,1.58-.78c1.27,0,1.73.87,1.73,2V8.75h-1.81V5.38c0-.51-.2-.75-.67-.75a.94.94,0,0,0-.83.52v3.6Z" fill="#231f20"/><path d="M118.33,8.18v2.47h-1.81V3.36h1.81v.51a2,2,0,0,1,1.48-.68c1.32,0,2.28.89,2.28,2.81s-1,2.88-2.31,2.88A1.72,1.72,0,0,1,118.33,8.18ZM120.26,6c0-1.07-.56-1.39-1-1.39a1.13,1.13,0,0,0-.9.37V7.11a1.19,1.19,0,0,0,.9.35C119.7,7.46,120.26,7.07,120.26,6Z" fill="#231f20"/><path d="M125.28,8.9a2.68,2.68,0,0,1-2.81-2.81,2.81,2.81,0,1,1,5.63,0A2.68,2.68,0,0,1,125.28,8.9Zm0-1.41c.51,0,1-.35,1-1.42s-.48-1.47-1-1.47-1,.41-1,1.47S124.79,7.49,125.28,7.49Z" fill="#231f20"/><path d="M128,3.36h1.84l1,2.87,1-2.87h1.62L131.47,8.8H130.1Z" fill="#231f20"/><path d="M136.53,8.84c-1.67,0-3-.8-3-2.86a2.63,2.63,0,0,1,2.7-2.8,2.27,2.27,0,0,1,2.39,2.55V6.5h-3.23c.13.64.56.94,1.44.94a3.53,3.53,0,0,0,1.37-.32l.27,1.29A3.86,3.86,0,0,1,136.53,8.84Zm-1.19-3.46h1.55c0-.59-.24-.92-.72-.92S135.42,4.84,135.34,5.39Z" fill="#231f20"/><path d="M139.24,8.75V3.36H141v1a2.25,2.25,0,0,1,1.77-1.09V5.07a2.3,2.3,0,0,0-1.77.44V8.75Z" fill="#231f20"/><path d="M143.76,6.92V4.63h-.57V3.36h.57V1.67h1.81V3.36h1V4.63h-1V6.8c0,.51.3.65.61.65a1.3,1.3,0,0,0,.41-.07V8.73a2.9,2.9,0,0,1-.82.09A1.76,1.76,0,0,1,143.76,6.92Z" fill="#231f20"/><path d="M148.73,8.24,146.8,3.36h1.85l1,2.64,1.06-2.64h1.65l-2.93,7.29h-1.64Z" fill="#231f20"/><path d="M154.81,8.75V3.36h1.81v1a2.25,2.25,0,0,1,1.77-1.09V5.07a2.3,2.3,0,0,0-1.77.44V8.75Z" fill="#231f20"/><path d="M161.54,8.29a1.49,1.49,0,0,1-1.22.57,1.59,1.59,0,0,1-1.65-1.72,1.85,1.85,0,0,1,2.87-1.43V5.48c0-.71-.48-.88-1-.88a2.83,2.83,0,0,0-1.2.29l-.36-1.28a4.22,4.22,0,0,1,2-.42c1.8,0,2.45.85,2.45,2.2V8.75h-1.81Zm0-.77V6.61a1,1,0,0,0-.57-.18.57.57,0,0,0-.6.64.57.57,0,0,0,.6.64A1,1,0,0,0,161.54,7.53Z" fill="#231f20"/><path d="M164.42,6.92V4.63h-.57V3.36h.57V1.67h1.81V3.36h1V4.63h-1V6.8c0,.51.3.65.61.65a1.3,1.3,0,0,0,.41-.07V8.73a2.9,2.9,0,0,1-.82.09A1.76,1.76,0,0,1,164.42,6.92Z" fill="#231f20"/><path d="M170.7,8.84c-1.67,0-3-.8-3-2.86a2.63,2.63,0,0,1,2.7-2.8,2.27,2.27,0,0,1,2.39,2.55V6.5h-3.23c.13.64.56.94,1.44.94a3.53,3.53,0,0,0,1.37-.32l.27,1.29A3.86,3.86,0,0,1,170.7,8.84Zm-1.19-3.46h1.55c0-.59-.24-.92-.72-.92S169.59,4.84,169.51,5.39Z" fill="#231f20"/><path d="M177.17,5.47a7,7,0,0,0,1.47,4.39v.09h-1.5a6.48,6.48,0,0,1-1.7-4.48A6.5,6.5,0,0,1,177.14,1h1.5V1A7.69,7.69,0,0,0,177.17,5.47Z" fill="#231f20"/><path d="M178.9,8.75V7.65l2-2.24a3,3,0,0,0,.9-1.77.93.93,0,0,0-1.07-1,2.42,2.42,0,0,0-1.41.38l-.43-1.39a3.88,3.88,0,0,1,2.08-.52c1.72,0,2.56.91,2.56,2.29,0,1-.42,1.81-1.6,3l-.82.86h2.38V8.75Z" fill="#231f20"/><path d="M187.31,8.92c-1.58,0-3.08-1-3.08-3.87s1.5-3.95,3.08-3.95S190.4,2.24,190.4,5,188.9,8.92,187.31,8.92Zm0-1.48c.71,0,1.17-.66,1.17-2.41s-.46-2.45-1.17-2.45-1.16.69-1.16,2.45S186.61,7.44,187.31,7.44Z" fill="#231f20"/><path d="M194.13,8.92c-1.58,0-3.08-1-3.08-3.87s1.5-3.95,3.08-3.95,3.09,1.14,3.09,3.95S195.72,8.92,194.13,8.92Zm0-1.48c.71,0,1.17-.66,1.17-2.41s-.46-2.45-1.17-2.45S193,3.27,193,5,193.43,7.44,194.13,7.44Z" fill="#231f20"/><path d="M198.12,8.75l2.28-6.08h-2.77V1.26h4.79v1.1L200,8.75Z" fill="#231f20"/><path d="M203,6.25V5h2.83V6.25Z" fill="#231f20"/><path d="M206.42,8.75V7.65l2-2.24a3,3,0,0,0,.9-1.77.93.93,0,0,0-1.07-1,2.42,2.42,0,0,0-1.41.38l-.43-1.39a3.88,3.88,0,0,1,2.08-.52c1.72,0,2.56.91,2.56,2.29,0,1-.42,1.81-1.6,3l-.82.86H211V8.75Z" fill="#231f20"/><path d="M214.83,8.92c-1.58,0-3.08-1-3.08-3.87s1.5-3.95,3.08-3.95,3.09,1.14,3.09,3.95S216.42,8.92,214.83,8.92Zm0-1.48c.71,0,1.17-.66,1.17-2.41s-.46-2.45-1.17-2.45-1.16.69-1.16,2.45S214.13,7.44,214.83,7.44Z" fill="#231f20"/><path d="M219.73,3.25l-1.18.85V2.55l1.92-1.35h1.14V8.75h-1.88Z" fill="#231f20"/><path d="M222.45,8.48l.43-1.39a2.88,2.88,0,0,0,1.29.3c.78,0,1.27-.39,1.27-1.14s-.49-1.1-1.39-1.1a2.84,2.84,0,0,0-1,.16l0,0,.45-4H227V2.7h-2.26l-.14,1.17c1.72,0,2.64,1,2.64,2.38a2.59,2.59,0,0,1-2.91,2.67A3.93,3.93,0,0,1,222.45,8.48Z" fill="#231f20"/><path d="M227.56,1h1.5a6.5,6.5,0,0,1,1.7,4.51,6.48,6.48,0,0,1-1.7,4.48h-1.5V9.85A7,7,0,0,0,229,5.47,7.69,7.69,0,0,0,227.56,1Z" fill="#231f20"/><rect x="207.88" y="29.5" width="27" height="8" fill="#efefef" stroke="#dedddd" stroke-miterlimit="10" stroke-width="0.5"/><path d="M210.43,35.71V31h.69l2.32,3.68V31H214v4.72h-.65L211,32v3.76Z" fill="#666"/><path d="M216.55,35.81A1.68,1.68,0,0,1,214.85,34a1.7,1.7,0,1,1,3.39,0A1.67,1.67,0,0,1,216.55,35.81Zm0-.52c.55,0,1-.43,1-1.26s-.49-1.31-1-1.31-1,.48-1,1.31S216,35.29,216.55,35.29Z" fill="#666"/><path d="M222.83,35.24a1.44,1.44,0,0,1-1.09.56c-.84,0-1.5-.57-1.5-1.76a1.65,1.65,0,0,1,1.54-1.83,1.33,1.33,0,0,1,1,.49V30.76h.65v5h-.65Zm0-.45V33.14a1.16,1.16,0,0,0-.9-.41c-.53,0-1,.43-1,1.32s.48,1.24,1,1.24A1.17,1.17,0,0,0,222.83,34.79Z" fill="#666"/><path d="M226.21,35.38a1.13,1.13,0,0,1-.89.41,1.07,1.07,0,0,1-1.13-1.12,1.1,1.1,0,0,1,1.22-1.1,1.19,1.19,0,0,1,.8.26v-.36c0-.56-.31-.74-.82-.74a2,2,0,0,0-.83.2l-.14-.46a2.31,2.31,0,0,1,1.09-.25c.92,0,1.35.42,1.35,1.2v2.3h-.64Zm0-.37v-.76a1,1,0,0,0-.67-.24c-.41,0-.72.19-.72.64a.64.64,0,0,0,.68.69A.89.89,0,0,0,226.21,35Z" fill="#666"/><path d="M227.88,34.65V32.81h-.43v-.5h.43v-1h.64v1h.81v.5h-.81v1.8c0,.5.17.63.49.63a1.1,1.1,0,0,0,.32,0v.5a1.55,1.55,0,0,1-.44.06C228.26,35.75,227.88,35.43,227.88,34.65Z" fill="#666"/><path d="M231.88,35.38a1.13,1.13,0,0,1-.89.41,1.07,1.07,0,0,1-1.13-1.12,1.1,1.1,0,0,1,1.22-1.1,1.19,1.19,0,0,1,.8.26v-.36c0-.56-.31-.74-.82-.74a2,2,0,0,0-.83.2l-.14-.46a2.31,2.31,0,0,1,1.09-.25c.92,0,1.35.42,1.35,1.2v2.3h-.64Zm0-.37v-.76a1,1,0,0,0-.67-.24c-.41,0-.72.19-.72.64a.64.64,0,0,0,.68.69A.89.89,0,0,0,231.88,35Z" fill="#666"/></g></svg>