<svg xmlns="http://www.w3.org/2000/svg" viewBox="0 0 300 53"><title>poverty-legend</title><g id="Work_area" data-name="Work area"><rect x="102.88" y="29.12" width="17.91" height="8" fill="#fde0ef"/><rect x="120.61" y="29.12" width="17.91" height="8" fill="#f1b6da"/><rect x="138.34" y="29.12" width="17.91" height="8" fill="#de77ae"/><rect x="156.07" y="29.12" width="17.91" height="8" fill="#c51b7d"/><rect x="173.8" y="29.12" width="17.91" height="8" fill="#8e0152"/><rect x="84.78" y="29.12" width="17.91" height="8" fill="#e6f5d0"/><line x1="173.82" y1="29.8" x2="173.82" y2="42.8" fill="none" stroke="#666" stroke-linecap="round" stroke-linejoin="round" stroke-width="0.7"/><line x1="156.04" y1="29.8" x2="156.04" y2="42.8" fill="none" stroke="#666" stroke-linecap="round" stroke-linejoin="round" stroke-width="0.7"/><line x1="138.26" y1="29.8" x2="138.26" y2="42.8" fill="none" stroke="#666" stroke-linecap="round" stroke-linejoin="round" stroke-width="0.7"/><line x1="120.47" y1="29.8" x2="120.47" y2="42.8" fill="none" stroke="#666" stroke-linecap="round" stroke-linejoin="round" stroke-width="0.7"/><line x1="102.69" y1="29.8" x2="102.69" y2="42.8" fill="none" stroke="#666" stroke-linecap="round" stroke-linejoin="round" stroke-width="0.7"/><path d="M102.2,51.7c-1.21,0-2.32-.91-2.31-3.12s1.11-3.19,2.31-3.19,2.33,1,2.32,3.19S103.41,51.7,102.2,51.7Zm0-.68c.82,0,1.43-.77,1.43-2.45s-.61-2.49-1.43-2.49-1.41.81-1.42,2.49S101.39,51,102.2,51Z" fill="#656565"/><path d="M113,51.58v-.5l1.74-2a2.94,2.94,0,0,0,.93-1.87,1,1,0,0,0-1.14-1.12,2.08,2.08,0,0,0-1.24.38l-.23-.64a2.68,2.68,0,0,1,1.56-.43,1.66,1.66,0,0,1,1.88,1.74,3.76,3.76,0,0,1-1.31,2.45L114,50.91h2.5v.67Z" fill="#656565"/><path d="M117.41,49.14a4.2,4.2,0,0,1,2.26-3.63h1v0a4.72,4.72,0,0,0-2.35,2.81,1.82,1.82,0,0,1,1.39-.63,1.73,1.73,0,0,1,1.76,1.89,1.9,1.9,0,0,1-1.93,2.07C118.22,51.69,117.41,50.75,117.41,49.14Zm3.23.48a1.12,1.12,0,0,0-1.16-1.27,1.53,1.53,0,0,0-1.24.62,1.64,1.64,0,0,0,0,.21c0,1.21.5,1.86,1.28,1.86S120.65,50.49,120.65,49.61Z" fill="#656565"/><path d="M123.46,48.55A1.37,1.37,0,0,1,122.15,47c0-1.05.63-1.61,1.31-1.61A1.42,1.42,0,0,1,124.79,47,1.38,1.38,0,0,1,123.46,48.55Zm3.26-3h.59l-4.07,6.07h-.6ZM123.46,48c.34,0,.63-.29.63-1s-.29-1.05-.63-1.05-.62.33-.62,1.05S123.13,48,123.46,48Zm3,3.67a1.38,1.38,0,0,1-1.31-1.57c0-1.05.63-1.6,1.31-1.6s1.31.55,1.31,1.6A1.39,1.39,0,0,1,126.49,51.67Zm0-.55c.32,0,.63-.3.63-1s-.31-1.05-.63-1.05-.63.33-.63,1.05S126.15,51.13,126.49,51.13Z" fill="#656565"/><path d="M131.08,51.29l.23-.65a2.3,2.3,0,0,0,1.31.35,1.12,1.12,0,0,0,1.24-1.13c0-.68-.41-1.09-1.3-1.09h-.32v-.68h.32c.76,0,1.2-.41,1.2-1s-.39-1-1.13-1a2.1,2.1,0,0,0-1.13.32l-.23-.61a2.5,2.5,0,0,1,1.44-.4c1.12,0,1.84.56,1.84,1.6a1.41,1.41,0,0,1-1.09,1.37,1.46,1.46,0,0,1,1.22,1.52,1.83,1.83,0,0,1-2,1.79A2.89,2.89,0,0,1,131.08,51.29Z" fill="#656565"/><path d="M135.46,50.06c0-.83.69-1.34,1.48-1.6-.73-.32-1.27-.74-1.27-1.52s.7-1.53,1.86-1.53,1.86.64,1.86,1.49-.54,1.14-1.25,1.43c.85.36,1.47.84,1.47,1.66,0,1-.82,1.71-2.06,1.71S135.46,51,135.46,50.06Zm3.32,0c0-.6-.48-.93-1.31-1.28-.66.27-1.19.66-1.19,1.26s.45,1,1.26,1S138.78,50.61,138.78,50Zm-1.19-2c.6-.27,1-.52,1-1.07s-.37-.89-1.08-.89-1.08.39-1.08.91S137,47.74,137.59,48Z" fill="#656565"/><path d="M141.48,48.55A1.37,1.37,0,0,1,140.16,47c0-1.05.63-1.61,1.31-1.61A1.42,1.42,0,0,1,142.8,47,1.38,1.38,0,0,1,141.48,48.55Zm3.26-3h.59l-4.07,6.07h-.6ZM141.48,48c.34,0,.63-.29.63-1s-.29-1.05-.63-1.05-.62.33-.62,1.05S141.14,48,141.48,48Zm3,3.67a1.38,1.38,0,0,1-1.31-1.57c0-1.05.63-1.6,1.31-1.6s1.31.55,1.31,1.6A1.39,1.39,0,0,1,144.5,51.67Zm0-.55c.32,0,.63-.3.63-1S144.83,49,144.5,49s-.63.33-.63,1.05S144.16,51.13,144.5,51.13Z" fill="#656565"/><path d="M151.32,50.21h-2.7v-.54L151,45.51h1.16v4h.79v.66h-.79v1.37h-.82Zm0-4.05-1.93,3.39h1.93Z" fill="#656565"/><path d="M153.58,50.06c0-.83.69-1.34,1.48-1.6-.73-.32-1.27-.74-1.27-1.52s.7-1.53,1.86-1.53,1.86.64,1.86,1.49S157,48,156.27,48.33c.85.36,1.47.84,1.47,1.66,0,1-.82,1.71-2.06,1.71S153.58,51,153.58,50.06Zm3.32,0c0-.6-.48-.93-1.31-1.28-.66.27-1.19.66-1.19,1.26s.45,1,1.26,1S156.9,50.61,156.9,50Zm-1.19-2c.6-.27,1-.52,1-1.07s-.37-.89-1.08-.89-1.08.39-1.08.91S155.09,47.74,155.72,48Z" fill="#656565"/><path d="M159.6,48.55A1.37,1.37,0,0,1,158.29,47c0-1.05.63-1.61,1.31-1.61A1.42,1.42,0,0,1,160.93,47,1.38,1.38,0,0,1,159.6,48.55Zm3.26-3h.59l-4.07,6.07h-.6ZM159.6,48c.34,0,.63-.29.63-1s-.29-1.05-.63-1.05S159,46.26,159,47,159.27,48,159.6,48Zm3,3.67a1.38,1.38,0,0,1-1.31-1.57c0-1.05.63-1.6,1.31-1.6s1.31.55,1.31,1.6A1.39,1.39,0,0,1,162.63,51.67Zm0-.55c.32,0,.63-.3.63-1S163,49,162.63,49s-.63.33-.63,1.05S162.29,51.13,162.63,51.13Z" fill="#656565"/><path d="M168.71,51.29l.23-.64a2.48,2.48,0,0,0,1.32.34,1.28,1.28,0,0,0,1.35-1.36c0-.9-.59-1.31-1.57-1.31a2.31,2.31,0,0,0-.81.11l0,0,.37-2.9h2.73v.68h-2.07l-.2,1.48c1.59-.12,2.44.73,2.44,2a2,2,0,0,1-2.14,2.06A2.91,2.91,0,0,1,168.71,51.29Z" fill="#656565"/><path d="M173.58,51.58l2.2-5.39H173v-.68h3.7V46l-2.27,5.57Z" fill="#656565"/><path d="M178.78,48.55A1.37,1.37,0,0,1,177.46,47c0-1.05.63-1.61,1.31-1.61A1.42,1.42,0,0,1,180.1,47,1.38,1.38,0,0,1,178.78,48.55Zm3.26-3h.59l-4.07,6.07H178ZM178.78,48c.34,0,.63-.29.63-1s-.29-1.05-.63-1.05-.62.33-.62,1.05S178.44,48,178.78,48Zm3,3.67a1.38,1.38,0,0,1-1.31-1.57c0-1.05.63-1.6,1.31-1.6s1.31.55,1.31,1.6A1.39,1.39,0,0,1,181.8,51.67Zm0-.55c.32,0,.63-.3.63-1S182.13,49,181.8,49s-.63.33-.63,1.05S181.46,51.13,181.8,51.13Z" fill="#656565"/><line x1="106.9" y1="24.83" x2="122.94" y2="24.83" fill="none" stroke="#666" stroke-linecap="round" stroke-linejoin="round" stroke-width="0.7"/><polygon points="126.39 24.83 121.52 26.82 122.68 24.83 121.52 22.84 126.39 24.83" fill="#666"/><line x1="84.13" y1="24.83" x2="99.67" y2="24.83" fill="none" stroke="#666" stroke-linecap="round" stroke-linejoin="round" stroke-width="0.7"/><polygon points="80.67 24.83 85.54 26.82 84.38 24.83 85.54 22.84 80.67 24.83" fill="#666"/><path d="M45.25,15.77H47a2.87,2.87,0,0,1,3,3.07,2.81,2.81,0,0,1-3,3H45.25Zm.89.67v4.71h.79A2,2,0,0,0,49,18.83a2.1,2.1,0,0,0-2.1-2.39Z" fill="#666"/><path d="M52.93,21.91a2.14,2.14,0,0,1-2.29-2.31,2.08,2.08,0,0,1,2-2.27c1.11,0,1.84.73,1.84,2.11v.32h-3A1.39,1.39,0,0,0,53,21.25a2.83,2.83,0,0,0,1.2-.24l.14.61A3.2,3.2,0,0,1,52.93,21.91Zm-1.42-2.75h2.2c-.05-.87-.46-1.22-1.07-1.22S51.62,18.38,51.51,19.17Z" fill="#666"/><path d="M58.71,21.63a2.81,2.81,0,0,1-1.32.28,2.1,2.1,0,0,1-2.22-2.24,2.18,2.18,0,0,1,2.28-2.3,2.9,2.9,0,0,1,1.28.26l-.21.67a2.14,2.14,0,0,0-1-.24A1.45,1.45,0,0,0,56,19.66a1.39,1.39,0,0,0,1.45,1.57A2.38,2.38,0,0,0,58.52,21Z" fill="#666"/><path d="M59.65,17.47h.83v.87A1.86,1.86,0,0,1,62,17.4v.81a1.72,1.72,0,0,0-1.51.76v2.86h-.83Z" fill="#666"/><path d="M64.78,21.91A2.14,2.14,0,0,1,62.5,19.6a2.08,2.08,0,0,1,2-2.27c1.11,0,1.84.73,1.84,2.11v.32h-3a1.39,1.39,0,0,0,1.53,1.49,2.83,2.83,0,0,0,1.2-.24l.14.61A3.2,3.2,0,0,1,64.78,21.91Zm-1.42-2.75h2.2c-.05-.87-.46-1.22-1.07-1.22S63.48,18.38,63.36,19.17Z" fill="#666"/><path d="M70.56,21.63a2.81,2.81,0,0,1-1.32.28A2.1,2.1,0,0,1,67,19.67a2.18,2.18,0,0,1,2.28-2.3,2.9,2.9,0,0,1,1.28.26l-.21.67a2.14,2.14,0,0,0-1-.24,1.45,1.45,0,0,0-1.47,1.61,1.39,1.39,0,0,0,1.45,1.57A2.38,2.38,0,0,0,70.37,21Z" fill="#666"/><path d="M72,15.58a.47.47,0,0,1,0,.94.47.47,0,1,1,0-.94Zm-.42,1.88h.84v4.37h-.84Z" fill="#666"/><path d="M73.65,21.83V17.47h.83v.59a1.48,1.48,0,0,1,1.28-.73,1.11,1.11,0,0,1,1.21.85,1.54,1.54,0,0,1,1.39-.85c.89,0,1.34.55,1.34,1.54v3h-.84V19c0-.7-.24-1-.79-1a1.16,1.16,0,0,0-1,.65v3.2h-.84V19c0-.7-.25-1-.81-1a1.16,1.16,0,0,0-1,.62v3.22Z" fill="#666"/><path d="M81.33,15.58a.47.47,0,0,1,0,.94.47.47,0,1,1,0-.94Zm-.42,1.88h.84v4.37h-.84Z" fill="#666"/><path d="M85,21.91a2.14,2.14,0,0,1-2.29-2.31,2.08,2.08,0,0,1,2-2.27c1.11,0,1.84.73,1.84,2.11v.32h-3a1.39,1.39,0,0,0,1.53,1.49,2.83,2.83,0,0,0,1.2-.24l.14.61A3.2,3.2,0,0,1,85,21.91Zm-1.42-2.75h2.2c-.05-.87-.46-1.22-1.07-1.22S83.73,18.38,83.61,19.17Z" fill="#666"/><path d="M87.54,21.83V17.47h.83v.62a1.74,1.74,0,0,1,1.41-.76c.95,0,1.42.55,1.42,1.54v3h-.83V19c0-.7-.31-1-.89-1a1.38,1.38,0,0,0-1.12.7v3.14Z" fill="#666"/><path d="M92.47,20.47V18.11h-.56v-.64h.56V16.14h.83v1.32h1v.64h-1v2.31c0,.64.22.81.63.81a1.43,1.43,0,0,0,.41-.06v.64a2,2,0,0,1-.57.07C93,21.88,92.47,21.46,92.47,20.47Z" fill="#666"/><path d="M97.15,22A2.16,2.16,0,0,1,95,19.67a2.18,2.18,0,1,1,4.36,0A2.15,2.15,0,0,1,97.15,22Zm0-.67c.7,0,1.34-.56,1.34-1.62S97.86,18,97.15,18s-1.33.61-1.33,1.68S96.45,21.29,97.15,21.29Z" fill="#666"/><path d="M109.35,15.71H110l2.22,6.12h-.89l-.53-1.49h-2.4l-.53,1.49h-.78Zm.28,1.26-1,2.73h1.94Z" fill="#666"/><path d="M115.74,21.21a1.61,1.61,0,0,1-1.36.76c-.91,0-1.42-.53-1.42-1.53v-3h.83v2.88c0,.71.29,1,.86,1a1.38,1.38,0,0,0,1.09-.66V17.47h.83v4.37h-.83Z" fill="#666"/><path d="M117.81,21.83V17.47h.83v.59a1.48,1.48,0,0,1,1.28-.73,1.11,1.11,0,0,1,1.21.85,1.54,1.54,0,0,1,1.39-.85c.89,0,1.34.55,1.34,1.54v3H123V19c0-.7-.24-1-.79-1a1.16,1.16,0,0,0-1,.65v3.2h-.84V19c0-.7-.25-1-.81-1a1.16,1.16,0,0,0-1,.62v3.22Z" fill="#666"/><path d="M127.06,21.91a2.14,2.14,0,0,1-2.29-2.31,2.08,2.08,0,0,1,2-2.27c1.11,0,1.84.73,1.84,2.11v.32h-3a1.39,1.39,0,0,0,1.53,1.49,2.83,2.83,0,0,0,1.2-.24l.14.61A3.2,3.2,0,0,1,127.06,21.91Zm-1.42-2.75h2.2c-.05-.87-.46-1.22-1.07-1.22S125.75,18.38,125.63,19.17Z" fill="#666"/><path d="M129.57,21.83V17.47h.83v.62a1.74,1.74,0,0,1,1.41-.76c.95,0,1.42.55,1.42,1.54v3h-.83V19c0-.7-.31-1-.89-1a1.38,1.38,0,0,0-1.12.7v3.14Z" fill="#666"/><path d="M134.49,20.47V18.11h-.56v-.64h.56V16.14h.83v1.32h1v.64h-1v2.31c0,.64.22.81.63.81a1.43,1.43,0,0,0,.41-.06v.64a2,2,0,0,1-.57.07C135,21.88,134.49,21.46,134.49,20.47Z" fill="#666"/><path d="M139.17,22A2.16,2.16,0,0,1,137,19.67a2.18,2.18,0,1,1,4.36,0A2.15,2.15,0,0,1,139.17,22Zm0-.67c.7,0,1.34-.56,1.34-1.62S139.88,18,139.17,18s-1.33.61-1.33,1.68S138.48,21.29,139.17,21.29Z" fill="#666"/><path d="M56,8.35a3.89,3.89,0,0,1-2.11.52,3.54,3.54,0,0,1-3.79-3.78,3.65,3.65,0,0,1,3.8-3.94,4.59,4.59,0,0,1,2,.37L55.44,3a2.89,2.89,0,0,0-1.29-.31A2,2,0,0,0,52,5.07a1.94,1.94,0,0,0,2,2.22,2.9,2.9,0,0,0,1.45-.38Z" fill="#231f20"/><path d="M59.33,8.29a1.49,1.49,0,0,1-1.22.57,1.59,1.59,0,0,1-1.65-1.72,1.85,1.85,0,0,1,2.87-1.43V5.48c0-.71-.48-.88-1-.88a2.83,2.83,0,0,0-1.2.29l-.36-1.28a4.22,4.22,0,0,1,2-.42c1.8,0,2.45.85,2.45,2.2V8.75H59.33Zm0-.77V6.61a1,1,0,0,0-.57-.18.57.57,0,0,0-.6.64.57.57,0,0,0,.6.64A1,1,0,0,0,59.33,7.53Z" fill="#231f20"/><path d="M62,8.75V3.36h1.81V4a1.69,1.69,0,0,1,1.48-.78,1.4,1.4,0,0,1,1.44.92,1.85,1.85,0,0,1,1.63-.92c1.2,0,1.73.88,1.73,2V8.75H68.3V5.39c0-.51-.2-.76-.65-.76A.79.79,0,0,0,67,5V8.75H65.17V5.39c0-.51-.21-.76-.66-.76a.83.83,0,0,0-.67.33V8.75Z" fill="#231f20"/><path d="M72.82,8.18v.57H71V1h1.81V3.87a2,2,0,0,1,1.48-.68c1.32,0,2.28.89,2.28,2.81s-1,2.88-2.31,2.88A1.72,1.72,0,0,1,72.82,8.18ZM74.75,6c0-1.07-.56-1.39-1-1.39a1.13,1.13,0,0,0-.9.37V7.11a1.19,1.19,0,0,0,.9.35C74.19,7.46,74.75,7.07,74.75,6Z" fill="#231f20"/><path d="M78.14,1a.93.93,0,0,1,1,.95,1,1,0,0,1-1.94,0A.93.93,0,0,1,78.14,1Zm-.91,2.37H79V8.75H77.23Z" fill="#231f20"/><path d="M82.51,8.9A2.68,2.68,0,0,1,79.7,6.09a2.81,2.81,0,1,1,5.63,0A2.68,2.68,0,0,1,82.51,8.9Zm0-1.41c.51,0,1-.35,1-1.42S83,4.6,82.51,4.6s-1,.41-1,1.47S82,7.49,82.51,7.49Z" fill="#231f20"/><path d="M88,4.51c-.37,0-.66.08-.66.35s.89.34,1.64.71A1.44,1.44,0,0,1,89.82,7c0,1.22-.91,1.86-2.26,1.86a3.73,3.73,0,0,1-1.9-.4L86,7.22a3.08,3.08,0,0,0,1.38.35c.52,0,.74-.16.74-.39,0-.42-1.15-.32-1.84-.87A1.53,1.53,0,0,1,85.76,5c0-1.2.86-1.79,2.14-1.79a4.18,4.18,0,0,1,1.79.34l-.34,1.23A3.36,3.36,0,0,0,88,4.51Z" fill="#231f20"/><path d="M95.23,8.84c-1.67,0-3-.8-3-2.86a2.63,2.63,0,0,1,2.7-2.8,2.27,2.27,0,0,1,2.39,2.55V6.5H94c.13.64.56.94,1.44.94a3.53,3.53,0,0,0,1.37-.32l.27,1.29A3.86,3.86,0,0,1,95.23,8.84ZM94,5.39h1.55c0-.59-.24-.92-.72-.92S94.12,4.84,94,5.39Z" fill="#231f20"/><path d="M97.94,8.75V3.36h1.81V4a1.94,1.94,0,0,1,1.58-.78c1.27,0,1.73.87,1.73,2V8.75h-1.81V5.38c0-.51-.2-.75-.67-.75a.94.94,0,0,0-.83.52v3.6Z" fill="#231f20"/><path d="M108.72,8.84c-1.67,0-3-.8-3-2.86a2.63,2.63,0,0,1,2.7-2.8,2.27,2.27,0,0,1,2.39,2.55V6.5h-3.23c.13.64.56.94,1.44.94a3.53,3.53,0,0,0,1.37-.32l.27,1.29A3.86,3.86,0,0,1,108.72,8.84Zm-1.19-3.46h1.55c0-.59-.24-.92-.72-.92S107.61,4.84,107.53,5.39Z" fill="#231f20"/><path d="M111.47,1h1.81V8.75h-1.81Z" fill="#231f20"/><path d="M116.27,8.75V3.36h1.81V4a1.94,1.94,0,0,1,1.58-.78c1.27,0,1.73.87,1.73,2V8.75h-1.81V5.38c0-.51-.2-.75-.67-.75a.94.94,0,0,0-.83.52v3.6Z" fill="#231f20"/><path d="M123.18,1a.93.93,0,0,1,1,.95,1,1,0,0,1-1.94,0A.93.93,0,0,1,123.18,1Zm-.91,2.37h1.81V8.75h-1.81Z" fill="#231f20"/><path d="M124.54,3.36h1.84l1,2.87,1-2.87h1.62L128,8.8h-1.37Z" fill="#231f20"/><path d="M133,8.84c-1.67,0-3-.8-3-2.86a2.63,2.63,0,0,1,2.7-2.8,2.27,2.27,0,0,1,2.39,2.55V6.5h-3.23c.13.64.56.94,1.44.94a3.53,3.53,0,0,0,1.37-.32l.27,1.29A3.86,3.86,0,0,1,133,8.84Zm-1.19-3.46h1.55c0-.59-.24-.92-.72-.92S131.94,4.84,131.86,5.39Z" fill="#231f20"/><path d="M135.8,1h1.81V8.75H135.8Z" fill="#231f20"/><path d="M144.07,8.2a2,2,0,0,1-1.48.68c-1.32,0-2.28-.89-2.28-2.81s1-2.88,2.31-2.88a1.72,1.72,0,0,1,1.45.7V1h1.81V8.75h-1.81Zm0-1.11V5a1.19,1.19,0,0,0-.9-.35c-.47,0-1,.39-1,1.46s.56,1.39,1,1.39A1.14,1.14,0,0,0,144.07,7.09Z" fill="#231f20"/><path d="M149.57,8.84c-1.67,0-3-.8-3-2.86a2.63,2.63,0,0,1,2.7-2.8,2.27,2.27,0,0,1,2.39,2.55V6.5H148.4c.13.64.56.94,1.44.94a3.53,3.53,0,0,0,1.37-.32l.27,1.29A3.86,3.86,0,0,1,149.57,8.84Zm-1.19-3.46h1.55c0-.59-.24-.92-.72-.92S148.47,4.84,148.39,5.39Z" fill="#231f20"/><path d="M156.11,8.18v2.47h-1.81V3.36h1.81v.51a2,2,0,0,1,1.48-.68c1.32,0,2.28.89,2.28,2.81s-1,2.88-2.31,2.88A1.72,1.72,0,0,1,156.11,8.18ZM158,6c0-1.07-.56-1.39-1-1.39a1.13,1.13,0,0,0-.9.37V7.11a1.19,1.19,0,0,0,.9.35C157.48,7.46,158,7.07,158,6Z" fill="#231f20"/><path d="M163.06,8.9a2.68,2.68,0,0,1-2.81-2.81,2.81,2.81,0,1,1,5.63,0A2.68,2.68,0,0,1,163.06,8.9Zm0-1.41c.51,0,1-.35,1-1.42s-.48-1.47-1-1.47-1,.41-1,1.47S162.57,7.49,163.06,7.49Z" fill="#231f20"/><path d="M168.34,8.18v.57h-1.81V1h1.81V3.87a2,2,0,0,1,1.48-.68c1.32,0,2.28.89,2.28,2.81s-1,2.88-2.31,2.88A1.72,1.72,0,0,1,168.34,8.18ZM170.27,6c0-1.07-.56-1.39-1-1.39a1.13,1.13,0,0,0-.9.37V7.11a1.19,1.19,0,0,0,.9.35C169.71,7.46,170.27,7.07,170.27,6Z" fill="#231f20"/><path d="M172.76,8.75V3.36h1.81v1a2.25,2.25,0,0,1,1.77-1.09V5.07a2.3,2.3,0,0,0-1.77.44V8.75Z" fill="#231f20"/><path d="M179.65,8.84c-1.67,0-3-.8-3-2.86a2.63,2.63,0,0,1,2.7-2.8,2.27,2.27,0,0,1,2.39,2.55V6.5h-3.23c.13.64.56.94,1.44.94a3.53,3.53,0,0,0,1.37-.32l.27,1.29A3.86,3.86,0,0,1,179.65,8.84Zm-1.19-3.46H180c0-.59-.24-.92-.72-.92S178.54,4.84,178.46,5.39Z" fill="#231f20"/><path d="M182,8l2.22-3.36H182.2V3.36h4.16V4.2l-2.24,3.38h2.23V8.75H182Z" fill="#231f20"/><path d="M189.65,8.29a1.49,1.49,0,0,1-1.22.57,1.59,1.59,0,0,1-1.65-1.72,1.85,1.85,0,0,1,2.87-1.43V5.48c0-.71-.48-.88-1-.88a2.83,2.83,0,0,0-1.2.29L187,3.61a4.22,4.22,0,0,1,2-.42c1.8,0,2.45.85,2.45,2.2V8.75h-1.81Zm0-.77V6.61a1,1,0,0,0-.57-.18.57.57,0,0,0-.6.64.57.57,0,0,0,.6.64A1,1,0,0,0,189.65,7.53Z" fill="#231f20"/><path d="M196.11,5.47a7,7,0,0,0,1.47,4.39v.09h-1.5a6.48,6.48,0,0,1-1.7-4.48A6.5,6.5,0,0,1,196.08,1h1.5V1A7.69,7.69,0,0,0,196.11,5.47Z" fill="#231f20"/><path d="M197.85,8.75V7.65l2-2.24a3,3,0,0,0,.9-1.77.93.93,0,0,0-1.07-1,2.42,2.42,0,0,0-1.41.38l-.43-1.39a3.88,3.88,0,0,1,2.08-.52c1.72,0,2.56.91,2.56,2.29,0,1-.42,1.81-1.6,3l-.82.86h2.38V8.75Z" fill="#231f20"/><path d="M206.26,8.92c-1.58,0-3.08-1-3.08-3.87s1.5-3.95,3.08-3.95,3.09,1.14,3.09,3.95S207.85,8.92,206.26,8.92Zm0-1.48c.71,0,1.17-.66,1.17-2.41s-.46-2.45-1.17-2.45S205.1,3.27,205.1,5,205.56,7.44,206.26,7.44Z" fill="#231f20"/><path d="M213.08,8.92c-1.58,0-3.08-1-3.08-3.87s1.5-3.95,3.08-3.95,3.09,1.14,3.09,3.95S214.67,8.92,213.08,8.92Zm0-1.48c.71,0,1.17-.66,1.17-2.41s-.46-2.45-1.17-2.45-1.16.69-1.16,2.45S212.38,7.44,213.08,7.44Z" fill="#231f20"/><path d="M217.06,8.75l2.28-6.08h-2.77V1.26h4.79v1.1L219,8.75Z" fill="#231f20"/><path d="M221.92,6.25V5h2.83V6.25Z" fill="#231f20"/><path d="M225.36,8.75V7.65l2-2.24a3,3,0,0,0,.9-1.77.93.93,0,0,0-1.07-1,2.42,2.42,0,0,0-1.41.38l-.43-1.39a3.88,3.88,0,0,1,2.08-.52c1.72,0,2.56.91,2.56,2.29,0,1-.42,1.81-1.6,3l-.82.86h2.38V8.75Z" fill="#231f20"/><path d="M233.78,8.92c-1.58,0-3.08-1-3.08-3.87s1.5-3.95,3.08-3.95,3.09,1.14,3.09,3.95S235.37,8.92,233.78,8.92Zm0-1.48c.71,0,1.17-.66,1.17-2.41s-.46-2.45-1.17-2.45-1.16.69-1.16,2.45S233.08,7.44,233.78,7.44Z" fill="#231f20"/><path d="M238.67,3.25l-1.18.85V2.55l1.92-1.35h1.14V8.75h-1.88Z" fill="#231f20"/><path d="M241.39,8.48l.43-1.39a2.88,2.88,0,0,0,1.29.3c.78,0,1.27-.39,1.27-1.14s-.49-1.1-1.39-1.1a2.84,2.84,0,0,0-1,.16l0,0,.45-4H246V2.7h-2.26l-.14,1.17c1.72,0,2.64,1,2.64,2.38a2.59,2.59,0,0,1-2.91,2.67A3.93,3.93,0,0,1,241.39,8.48Z" fill="#231f20"/><path d="M246.5,1H248a6.5,6.5,0,0,1,1.7,4.51A6.48,6.48,0,0,1,248,9.94h-1.5V9.85A7,7,0,0,0,248,5.47,7.69,7.69,0,0,0,246.5,1Z" fill="#231f20"/><rect x="206.32" y="29.5" width="30.13" height="8" fill="#efefef" stroke="#dedddd" stroke-miterlimit="10" stroke-width="0.5"/><path d="M209.79,31.47c-.48,0-.82.23-.82.67s.43.6,1,.85,1.2.6,1.2,1.39a1.4,1.4,0,0,1-1.58,1.42,2.43,2.43,0,0,1-1.42-.38l.2-.55a2.08,2.08,0,0,0,1.21.36c.58,0,.95-.25.95-.78s-.38-.67-1-.95-1.16-.61-1.16-1.34.57-1.25,1.47-1.25a2.47,2.47,0,0,1,1.23.28l-.18.53A2.17,2.17,0,0,0,209.79,31.47Z" fill="#666"/><path d="M212.36,30.85a.36.36,0,0,1,0,.73.36.36,0,0,1,0-.73ZM212,32.32h.65v3.4H212Z" fill="#666"/><path d="M213.68,35.71v-3.4h.64v.48a1.35,1.35,0,0,1,1.1-.59c.74,0,1.11.43,1.11,1.2v2.3h-.64V33.48c0-.55-.25-.76-.69-.76a1.07,1.07,0,0,0-.87.55v2.44Z" fill="#666"/><path d="M221.3,35.24a1.44,1.44,0,0,1-1.09.56c-.84,0-1.5-.57-1.5-1.76a1.65,1.65,0,0,1,1.54-1.83,1.33,1.33,0,0,1,1,.49V30.76H222v5h-.65Zm0-.45V33.14a1.16,1.16,0,0,0-.9-.41c-.53,0-1,.43-1,1.32s.48,1.24,1,1.24A1.17,1.17,0,0,0,221.3,34.79Z" fill="#666"/><path d="M224.68,35.38a1.13,1.13,0,0,1-.89.41,1.07,1.07,0,0,1-1.13-1.12,1.1,1.1,0,0,1,1.22-1.1,1.19,1.19,0,0,1,.8.26v-.36c0-.56-.31-.74-.82-.74a2,2,0,0,0-.83.2l-.14-.46a2.31,2.31,0,0,1,1.09-.25c.92,0,1.35.42,1.35,1.2v2.3h-.64Zm0-.37v-.76A1,1,0,0,0,224,34c-.41,0-.72.19-.72.64a.64.64,0,0,0,.68.69A.89.89,0,0,0,224.68,35Z" fill="#666"/><path d="M226.35,34.65V32.81h-.43v-.5h.43v-1H227v1h.81v.5H227v1.8c0,.5.17.63.49.63a1.1,1.1,0,0,0,.32,0v.5a1.55,1.55,0,0,1-.44.06C226.73,35.75,226.35,35.43,226.35,34.65Z" fill="#666"/><path d="M230,35.81A1.68,1.68,0,0,1,228.3,34a1.7,1.7,0,1,1,3.39,0A1.67,1.67,0,0,1,230,35.81Zm0-.52c.55,0,1-.43,1-1.26s-.49-1.31-1-1.31-1,.48-1,1.31S229.45,35.29,230,35.29Z" fill="#666"/><path d="M233.43,32.75c-.38,0-.61.11-.61.43s.69.45,1.21.71a.84.84,0,0,1,.5.84c0,.64-.48,1.06-1.29,1.06a2.31,2.31,0,0,1-1.12-.23l.15-.5a2,2,0,0,0,.92.22c.53,0,.71-.22.71-.5,0-.5-.74-.46-1.23-.76a.86.86,0,0,1-.44-.78c0-.63.47-1,1.18-1a2.71,2.71,0,0,1,1,.18l-.14.5A2.21,2.21,0,0,0,233.43,32.75Z" fill="#666"/></g></svg>