<svg xmlns="http://www.w3.org/2000/svg" viewBox="0 0 300 53"><title>wages-legend</title><g id="Work_area" data-name="Work area"><rect x="131.31" y="29.17" width="17.91" height="8" fill="#fde0ef"/><rect x="113.58" y="29.17" width="17.91" height="8" fill="#e9a3c9"/><rect x="95.85" y="29.17" width="17.91" height="8" fill="#c51b7d"/><rect x="149.41" y="29.17" width="17.91" height="8" fill="#e6f5d0"/><rect x="167.14" y="29.17" width="17.91" height="8" fill="#a1d76a"/><rect x="184.87" y="29.17" width="17.91" height="8" fill="#4d9221"/><line x1="113.84" y1="29.85" x2="113.84" y2="42.85" fill="none" stroke="#666" stroke-linecap="round" stroke-linejoin="round" stroke-width="0.7"/><line x1="131.63" y1="29.85" x2="131.63" y2="42.85" fill="none" stroke="#666" stroke-linecap="round" stroke-linejoin="round" stroke-width="0.7"/><line x1="149.41" y1="29.85" x2="149.41" y2="42.85" fill="none" stroke="#666" stroke-linecap="round" stroke-linejoin="round" stroke-width="0.7"/><line x1="167.19" y1="29.85" x2="167.19" y2="42.85" fill="none" stroke="#666" stroke-linecap="round" stroke-linejoin="round" stroke-width="0.7"/><line x1="184.97" y1="29.85" x2="184.97" y2="42.85" fill="none" stroke="#666" stroke-linecap="round" stroke-linejoin="round" stroke-width="0.7"/><path d="M106.48,49.49v-.68h2.2v.68Z" fill="#656565"/><path d="M112.11,50.33h-2.7v-.54l2.36-4.16h1.16v4h.79v.66h-.79V51.7h-.82Zm0-4.05-1.93,3.39h1.93Z" fill="#656565"/><path d="M115.52,48.67a1.37,1.37,0,0,1-1.31-1.56c0-1.05.63-1.61,1.31-1.61a1.42,1.42,0,0,1,1.32,1.61A1.38,1.38,0,0,1,115.52,48.67Zm3.26-3h.59L115.3,51.7h-.6Zm-3.26,2.49c.34,0,.63-.29.63-1s-.29-1.05-.63-1.05-.62.33-.62,1.05S115.18,48.12,115.52,48.12Zm3,3.67a1.38,1.38,0,0,1-1.31-1.57c0-1.05.63-1.6,1.31-1.6s1.31.55,1.31,1.6A1.39,1.39,0,0,1,118.54,51.8Zm0-.55c.32,0,.63-.3.63-1s-.31-1.05-.63-1.05-.63.33-.63,1.05S118.2,51.25,118.54,51.25Z" fill="#656565"/><path d="M125.09,49.49v-.68h2.2v.68Z" fill="#656565"/><path d="M127.83,51.7v-.5l1.74-2a2.94,2.94,0,0,0,.93-1.87,1,1,0,0,0-1.14-1.12,2.08,2.08,0,0,0-1.24.38l-.23-.64a2.68,2.68,0,0,1,1.56-.43,1.66,1.66,0,0,1,1.88,1.74A3.76,3.76,0,0,1,130,49.72L128.84,51h2.5v.67Z" fill="#656565"/><path d="M133.4,48.67a1.37,1.37,0,0,1-1.31-1.56c0-1.05.63-1.61,1.31-1.61a1.42,1.42,0,0,1,1.32,1.61A1.38,1.38,0,0,1,133.4,48.67Zm3.26-3h.59l-4.07,6.07h-.6Zm-3.26,2.49c.34,0,.63-.29.63-1s-.29-1.05-.63-1.05-.62.33-.62,1.05S133.07,48.12,133.4,48.12Zm3,3.67a1.38,1.38,0,0,1-1.31-1.57c0-1.05.63-1.6,1.31-1.6s1.31.55,1.31,1.6A1.39,1.39,0,0,1,136.42,51.8Zm0-.55c.32,0,.63-.3.63-1s-.31-1.05-.63-1.05-.63.33-.63,1.05S136.08,51.25,136.42,51.25Z" fill="#656565"/><path d="M149.42,51.82c-1.21,0-2.32-.91-2.31-3.12s1.11-3.19,2.31-3.19,2.33,1,2.32,3.19S150.63,51.82,149.42,51.82Zm0-.68c.82,0,1.43-.77,1.43-2.45s-.61-2.49-1.43-2.49S148,47,148,48.69,148.61,51.14,149.42,51.14Z" fill="#656565"/><path d="M162.23,51.7v-.5l1.74-2a2.94,2.94,0,0,0,.93-1.87,1,1,0,0,0-1.14-1.12,2.08,2.08,0,0,0-1.24.38l-.23-.64a2.68,2.68,0,0,1,1.56-.43,1.66,1.66,0,0,1,1.88,1.74,3.76,3.76,0,0,1-1.31,2.45L163.24,51h2.5v.67Z" fill="#656565"/><path d="M167.8,48.67a1.37,1.37,0,0,1-1.31-1.56c0-1.05.63-1.61,1.31-1.61a1.42,1.42,0,0,1,1.32,1.61A1.38,1.38,0,0,1,167.8,48.67Zm3.26-3h.59l-4.07,6.07H167Zm-3.26,2.49c.34,0,.63-.29.63-1s-.29-1.05-.63-1.05-.62.33-.62,1.05S167.47,48.12,167.8,48.12Zm3,3.67a1.38,1.38,0,0,1-1.31-1.57c0-1.05.63-1.6,1.31-1.6s1.31.55,1.31,1.6A1.39,1.39,0,0,1,170.82,51.8Zm0-.55c.32,0,.63-.3.63-1s-.31-1.05-.63-1.05-.63.33-.63,1.05S170.48,51.25,170.82,51.25Z" fill="#656565"/><path d="M182.63,50.33h-2.7v-.54l2.36-4.16h1.16v4h.79v.66h-.79V51.7h-.82Zm0-4.05-1.93,3.39h1.93Z" fill="#656565"/><path d="M186,48.67a1.37,1.37,0,0,1-1.31-1.56c0-1.05.63-1.61,1.31-1.61a1.42,1.42,0,0,1,1.32,1.61A1.38,1.38,0,0,1,186,48.67Zm3.26-3h.59l-4.07,6.07h-.6ZM186,48.12c.34,0,.63-.29.63-1s-.29-1.05-.63-1.05-.62.33-.62,1.05S185.71,48.12,186,48.12Zm3,3.67a1.38,1.38,0,0,1-1.31-1.57c0-1.05.63-1.6,1.31-1.6s1.31.55,1.31,1.6A1.39,1.39,0,0,1,189.07,51.8Zm0-.55c.32,0,.63-.3.63-1s-.31-1.05-.63-1.05-.63.33-.63,1.05S188.72,51.25,189.07,51.25Z" fill="#656565"/><line x1="152.44" y1="24.17" x2="168.48" y2="24.17" fill="none" stroke="#666" stroke-linecap="round" stroke-linejoin="round" stroke-width="0.7"/><polygon points="171.94 24.17 167.07 26.16 168.22 24.17 167.07 22.18 171.94 24.17" fill="#666"/><line x1="129.67" y1="24.17" x2="145.21" y2="24.17" fill="none" stroke="#666" stroke-linecap="round" stroke-linejoin="round" stroke-width="0.7"/><polygon points="126.21 24.17 131.09 26.16 129.93 24.17 131.09 22.18 126.21 24.17" fill="#666"/><path d="M111.36,15.1h1.72a2.87,2.87,0,0,1,3,3.07,2.81,2.81,0,0,1-3,3h-1.73Zm.89.67v4.71H113a2,2,0,0,0,2.08-2.32,2.1,2.1,0,0,0-2.1-2.39Z" fill="#666"/><path d="M119,21.25a2.14,2.14,0,0,1-2.29-2.31,2.08,2.08,0,0,1,2-2.27c1.11,0,1.84.73,1.84,2.11v.32h-3a1.39,1.39,0,0,0,1.53,1.49,2.83,2.83,0,0,0,1.2-.24l.14.61A3.2,3.2,0,0,1,119,21.25Zm-1.42-2.75h2.2c-.05-.87-.46-1.22-1.07-1.22S117.73,17.72,117.61,18.5Z" fill="#666"/><path d="M124.81,21a2.81,2.81,0,0,1-1.32.28A2.1,2.1,0,0,1,121.27,19a2.18,2.18,0,0,1,2.28-2.3,2.9,2.9,0,0,1,1.28.26l-.21.67a2.14,2.14,0,0,0-1-.24A1.45,1.45,0,0,0,122.11,19a1.39,1.39,0,0,0,1.45,1.57,2.38,2.38,0,0,0,1.06-.23Z" fill="#666"/><path d="M125.76,16.8h.83v.87a1.86,1.86,0,0,1,1.51-.94v.81a1.72,1.72,0,0,0-1.51.76v2.86h-.83Z" fill="#666"/><path d="M130.89,21.25a2.14,2.14,0,0,1-2.29-2.31,2.08,2.08,0,0,1,2-2.27c1.11,0,1.84.73,1.84,2.11v.32h-3A1.39,1.39,0,0,0,131,20.58a2.83,2.83,0,0,0,1.2-.24l.14.61A3.2,3.2,0,0,1,130.89,21.25Zm-1.42-2.75h2.2c-.05-.87-.46-1.22-1.07-1.22S129.58,17.72,129.47,18.5Z" fill="#666"/><path d="M135.67,20.73a1.45,1.45,0,0,1-1.14.53,1.37,1.37,0,0,1-1.45-1.44,1.42,1.42,0,0,1,1.57-1.41,1.54,1.54,0,0,1,1,.33v-.47c0-.72-.4-1-1.05-1a2.5,2.5,0,0,0-1.07.25l-.18-.59a3,3,0,0,1,1.4-.31c1.18,0,1.74.54,1.74,1.54v3h-.83Zm0-.48v-1a1.34,1.34,0,0,0-.86-.31c-.52,0-.93.24-.93.83a.82.82,0,0,0,.87.89A1.14,1.14,0,0,0,135.67,20.26Z" fill="#666"/><path d="M138.94,17.36c-.49,0-.78.14-.78.55,0,.6.88.58,1.56.91a1.08,1.08,0,0,1,.64,1.08c0,.83-.62,1.36-1.66,1.36a3,3,0,0,1-1.44-.3l.19-.65a2.5,2.5,0,0,0,1.19.29c.68,0,.91-.28.91-.65,0-.64-.95-.59-1.58-1a1.1,1.1,0,0,1-.57-1c0-.81.6-1.25,1.51-1.25a3.5,3.5,0,0,1,1.34.23l-.18.65A2.83,2.83,0,0,0,138.94,17.36Z" fill="#666"/><path d="M143.33,21.25A2.14,2.14,0,0,1,141,18.93a2.08,2.08,0,0,1,2-2.27c1.11,0,1.84.73,1.84,2.11v.32h-3a1.39,1.39,0,0,0,1.53,1.49,2.83,2.83,0,0,0,1.2-.24l.14.61A3.2,3.2,0,0,1,143.33,21.25ZM141.9,18.5h2.2c-.05-.87-.46-1.22-1.07-1.22S142,17.72,141.9,18.5Z" fill="#666"/><path d="M153.26,15.1h.88v6.07h-.88Z" fill="#666"/><path d="M155.58,21.17V16.8h.83v.62a1.74,1.74,0,0,1,1.41-.76c.95,0,1.42.55,1.42,1.54v3h-.83V18.29c0-.7-.31-1-.89-1a1.38,1.38,0,0,0-1.12.7v3.14Z" fill="#666"/><path d="M163.71,21a2.81,2.81,0,0,1-1.32.28A2.1,2.1,0,0,1,160.17,19a2.18,2.18,0,0,1,2.28-2.3,2.9,2.9,0,0,1,1.28.26l-.21.67a2.14,2.14,0,0,0-1-.24A1.45,1.45,0,0,0,161,19a1.39,1.39,0,0,0,1.45,1.57,2.38,2.38,0,0,0,1.06-.23Z" fill="#666"/><path d="M164.66,16.8h.83v.87a1.86,1.86,0,0,1,1.51-.94v.81a1.72,1.72,0,0,0-1.51.76v2.86h-.83Z" fill="#666"/><path d="M169.79,21.25a2.14,2.14,0,0,1-2.29-2.31,2.08,2.08,0,0,1,2-2.27c1.11,0,1.84.73,1.84,2.11v.32h-3a1.39,1.39,0,0,0,1.53,1.49,2.83,2.83,0,0,0,1.2-.24l.14.61A3.2,3.2,0,0,1,169.79,21.25Zm-1.42-2.75h2.2c-.05-.87-.46-1.22-1.07-1.22S168.48,17.72,168.36,18.5Z" fill="#666"/><path d="M174.57,20.73a1.45,1.45,0,0,1-1.14.53A1.37,1.37,0,0,1,172,19.82a1.42,1.42,0,0,1,1.57-1.41,1.54,1.54,0,0,1,1,.33v-.47c0-.72-.4-1-1.05-1a2.5,2.5,0,0,0-1.07.25l-.18-.59a3,3,0,0,1,1.4-.31c1.18,0,1.74.54,1.74,1.54v3h-.83Zm0-.48v-1a1.34,1.34,0,0,0-.86-.31c-.52,0-.93.24-.93.83a.82.82,0,0,0,.87.89A1.14,1.14,0,0,0,174.57,20.26Z" fill="#666"/><path d="M177.84,17.36c-.49,0-.78.14-.78.55,0,.6.88.58,1.56.91a1.08,1.08,0,0,1,.64,1.08c0,.83-.62,1.36-1.66,1.36a3,3,0,0,1-1.44-.3l.19-.65a2.5,2.5,0,0,0,1.19.29c.68,0,.91-.28.91-.65,0-.64-.95-.59-1.58-1a1.1,1.1,0,0,1-.57-1c0-.81.6-1.25,1.51-1.25a3.5,3.5,0,0,1,1.34.23l-.18.65A2.83,2.83,0,0,0,177.84,17.36Z" fill="#666"/><path d="M182.23,21.25a2.14,2.14,0,0,1-2.29-2.31,2.08,2.08,0,0,1,2-2.27c1.11,0,1.84.73,1.84,2.11v.32h-3a1.39,1.39,0,0,0,1.53,1.49,2.83,2.83,0,0,0,1.2-.24l.14.61A3.2,3.2,0,0,1,182.23,21.25ZM180.8,18.5H183c-.05-.87-.46-1.22-1.07-1.22S180.92,17.72,180.8,18.5Z" fill="#666"/><path d="M37.47,8.35a3.89,3.89,0,0,1-2.11.52,3.54,3.54,0,0,1-3.79-3.78,3.65,3.65,0,0,1,3.8-3.94,4.59,4.59,0,0,1,2,.37L36.93,3a2.89,2.89,0,0,0-1.29-.31,2,2,0,0,0-2.1,2.34,1.94,1.94,0,0,0,2,2.22A2.9,2.9,0,0,0,37,6.91Z" fill="#231f20"/><path d="M38.13,8.75V1h1.81V4a1.94,1.94,0,0,1,1.58-.78c1.27,0,1.73.87,1.73,2V8.75H41.44V5.38c0-.51-.2-.75-.67-.75a.94.94,0,0,0-.83.52v3.6Z" fill="#231f20"/><path d="M46.72,8.29a1.49,1.49,0,0,1-1.22.57,1.59,1.59,0,0,1-1.65-1.72,1.85,1.85,0,0,1,2.87-1.43V5.48c0-.71-.48-.88-1-.88a2.83,2.83,0,0,0-1.2.29l-.36-1.28a4.22,4.22,0,0,1,2-.42c1.8,0,2.45.85,2.45,2.2V8.75H46.72Zm0-.77V6.61a1,1,0,0,0-.57-.18.57.57,0,0,0-.6.64.57.57,0,0,0,.6.64A1,1,0,0,0,46.72,7.53Z" fill="#231f20"/><path d="M49.42,8.75V3.36h1.81V4a1.94,1.94,0,0,1,1.58-.78c1.27,0,1.73.87,1.73,2V8.75H52.73V5.38c0-.51-.2-.75-.67-.75a.94.94,0,0,0-.83.52v3.6Z" fill="#231f20"/><path d="M57.51,10.77c-1.68,0-2.6-.4-2.6-1.22,0-.44.39-.75.85-.95a1.06,1.06,0,0,1-.44-.87,1.31,1.31,0,0,1,.81-1.23,1.64,1.64,0,0,1-.84-1.45,2,2,0,0,1,2.23-1.87,2.4,2.4,0,0,1,1.42.42,2.28,2.28,0,0,1,1.47-.41V4.44a4,4,0,0,0-.83,0,1.36,1.36,0,0,1,.12.61c0,1.14-1,1.76-2.18,1.76a3.2,3.2,0,0,1-.63-.06.35.35,0,0,0-.15.28c0,.17.13.26.41.26h1.51A1.55,1.55,0,0,1,60.41,8.9C60.41,10.18,59.32,10.77,57.51,10.77Zm1.21-1.56c0-.2-.11-.41-.54-.41H56.55a.47.47,0,0,0-.22.39c0,.3.33.49,1.14.49C58.45,9.68,58.72,9.5,58.72,9.21ZM57.5,5.81c.3,0,.61-.16.61-.76s-.31-.79-.61-.79-.61.2-.62.79S57.2,5.81,57.5,5.81Z" fill="#231f20"/><path d="M63.56,8.84c-1.67,0-3-.8-3-2.86a2.63,2.63,0,0,1,2.7-2.8,2.27,2.27,0,0,1,2.39,2.55V6.5H62.38c.13.64.56.94,1.44.94a3.53,3.53,0,0,0,1.37-.32l.27,1.29A3.86,3.86,0,0,1,63.56,8.84ZM62.37,5.39h1.55c0-.59-.24-.92-.72-.92S62.45,4.84,62.37,5.39Z" fill="#231f20"/><path d="M69.2,1a.93.93,0,0,1,1,.95,1,1,0,0,1-1.94,0A.93.93,0,0,1,69.2,1Zm-.91,2.37H70.1V8.75H68.29Z" fill="#231f20"/><path d="M71,8.75V3.36h1.81V4a1.94,1.94,0,0,1,1.58-.78c1.27,0,1.73.87,1.73,2V8.75H74.35V5.38c0-.51-.2-.75-.67-.75a.94.94,0,0,0-.83.52v3.6Z" fill="#231f20"/><path d="M81.65,8.29a1.49,1.49,0,0,1-1.22.57,1.59,1.59,0,0,1-1.65-1.72,1.85,1.85,0,0,1,2.87-1.43V5.48c0-.71-.48-.88-1-.88a2.83,2.83,0,0,0-1.2.29L79,3.61a4.22,4.22,0,0,1,2-.42c1.8,0,2.45.85,2.45,2.2V8.75H81.65Zm0-.77V6.61a1,1,0,0,0-.57-.18.57.57,0,0,0-.6.64.57.57,0,0,0,.6.64A1,1,0,0,0,81.65,7.53Z" fill="#231f20"/><path d="M83.67,3.36h1.84l1,2.87,1-2.87h1.62L87.12,8.8H85.75Z" fill="#231f20"/><path d="M92.18,8.84c-1.67,0-3-.8-3-2.86a2.63,2.63,0,0,1,2.7-2.8,2.27,2.27,0,0,1,2.39,2.55V6.5H91c.13.64.56.94,1.44.94a3.53,3.53,0,0,0,1.37-.32l.27,1.29A3.86,3.86,0,0,1,92.18,8.84ZM91,5.39h1.55c0-.59-.24-.92-.72-.92S91.07,4.84,91,5.39Z" fill="#231f20"/><path d="M94.89,8.75V3.36H96.7v1a2.25,2.25,0,0,1,1.77-1.09V5.07a2.3,2.3,0,0,0-1.77.44V8.75Z" fill="#231f20"/><path d="M101.62,8.29a1.49,1.49,0,0,1-1.22.57,1.59,1.59,0,0,1-1.65-1.72,1.85,1.85,0,0,1,2.87-1.43V5.48c0-.71-.48-.88-1-.88a2.83,2.83,0,0,0-1.2.29L99,3.61a4.22,4.22,0,0,1,2-.42c1.8,0,2.45.85,2.45,2.2V8.75h-1.81Zm0-.77V6.61a1,1,0,0,0-.57-.18.57.57,0,0,0-.6.64.57.57,0,0,0,.6.64A1,1,0,0,0,101.62,7.53Z" fill="#231f20"/><path d="M106.41,10.77c-1.68,0-2.6-.4-2.6-1.22,0-.44.39-.75.85-.95a1.06,1.06,0,0,1-.44-.87A1.31,1.31,0,0,1,105,6.51a1.64,1.64,0,0,1-.84-1.45,2,2,0,0,1,2.23-1.87,2.4,2.4,0,0,1,1.42.42,2.28,2.28,0,0,1,1.47-.41V4.44a4,4,0,0,0-.83,0,1.36,1.36,0,0,1,.12.61c0,1.14-1,1.76-2.18,1.76a3.2,3.2,0,0,1-.63-.06.35.35,0,0,0-.15.28c0,.17.13.26.41.26h1.51a1.55,1.55,0,0,1,1.75,1.56C109.31,10.18,108.22,10.77,106.41,10.77Zm1.21-1.56c0-.2-.11-.41-.54-.41h-1.63a.47.47,0,0,0-.22.39c0,.3.33.49,1.14.49C107.35,9.68,107.62,9.5,107.62,9.21ZM106.4,5.81c.3,0,.61-.16.61-.76s-.31-.79-.61-.79-.61.2-.62.79S106.1,5.81,106.4,5.81Z" fill="#231f20"/><path d="M112.46,8.84c-1.67,0-3-.8-3-2.86a2.63,2.63,0,0,1,2.7-2.8,2.27,2.27,0,0,1,2.39,2.55V6.5h-3.23c.13.64.56.94,1.44.94a3.53,3.53,0,0,0,1.37-.32l.27,1.29A3.86,3.86,0,0,1,112.46,8.84Zm-1.19-3.46h1.55c0-.59-.24-.92-.72-.92S111.35,4.84,111.27,5.39Z" fill="#231f20"/><path d="M116.73,3.36h1.74L119.2,6l1.08-2.74h.81L122.15,6l.73-2.66h1.51L122.76,8.8h-1l-1.12-3-1.24,3h-1Z" fill="#231f20"/><path d="M127.41,8.29a1.49,1.49,0,0,1-1.22.57,1.59,1.59,0,0,1-1.65-1.72,1.85,1.85,0,0,1,2.87-1.43V5.48c0-.71-.48-.88-1-.88a2.83,2.83,0,0,0-1.2.29l-.36-1.28a4.22,4.22,0,0,1,2-.42c1.8,0,2.45.85,2.45,2.2V8.75h-1.81Zm0-.77V6.61a1,1,0,0,0-.57-.18.57.57,0,0,0-.6.64.57.57,0,0,0,.6.64A1,1,0,0,0,127.41,7.53Z" fill="#231f20"/><path d="M132.2,10.77c-1.68,0-2.6-.4-2.6-1.22,0-.44.39-.75.85-.95a1.06,1.06,0,0,1-.44-.87,1.31,1.31,0,0,1,.81-1.23A1.64,1.64,0,0,1,130,5.06a2,2,0,0,1,2.23-1.87,2.4,2.4,0,0,1,1.42.42,2.28,2.28,0,0,1,1.47-.41V4.44a4,4,0,0,0-.83,0,1.36,1.36,0,0,1,.12.61c0,1.14-1,1.76-2.18,1.76a3.2,3.2,0,0,1-.63-.06.35.35,0,0,0-.15.28c0,.17.13.26.41.26h1.51A1.55,1.55,0,0,1,135.1,8.9C135.1,10.18,134,10.77,132.2,10.77Zm1.21-1.56c0-.2-.11-.41-.54-.41h-1.63a.47.47,0,0,0-.22.39c0,.3.33.49,1.14.49C133.14,9.68,133.41,9.5,133.41,9.21Zm-1.22-3.41c.3,0,.61-.16.61-.76s-.31-.79-.61-.79-.61.2-.62.79S131.89,5.81,132.19,5.81Z" fill="#231f20"/><path d="M138.25,8.84c-1.67,0-3-.8-3-2.86a2.63,2.63,0,0,1,2.7-2.8,2.27,2.27,0,0,1,2.39,2.55V6.5h-3.23c.13.64.56.94,1.44.94a3.53,3.53,0,0,0,1.37-.32l.27,1.29A3.86,3.86,0,0,1,138.25,8.84Zm-1.19-3.46h1.55c0-.59-.24-.92-.72-.92S137.14,4.84,137.06,5.39Z" fill="#231f20"/><path d="M143,4.51c-.37,0-.66.08-.66.35s.89.34,1.64.71A1.44,1.44,0,0,1,144.8,7c0,1.22-.91,1.86-2.26,1.86a3.73,3.73,0,0,1-1.9-.4L141,7.22a3.08,3.08,0,0,0,1.38.35c.52,0,.74-.16.74-.39,0-.42-1.15-.32-1.84-.87A1.53,1.53,0,0,1,140.74,5c0-1.2.86-1.79,2.14-1.79a4.18,4.18,0,0,1,1.79.34l-.34,1.23A3.36,3.36,0,0,0,143,4.51Z" fill="#231f20"/><path d="M149.26,8.18v2.47h-1.81V3.36h1.81v.51a2,2,0,0,1,1.48-.68c1.32,0,2.28.89,2.28,2.81s-1,2.88-2.31,2.88A1.72,1.72,0,0,1,149.26,8.18ZM151.19,6c0-1.07-.56-1.39-1-1.39a1.13,1.13,0,0,0-.9.37V7.11a1.19,1.19,0,0,0,.9.35C150.63,7.46,151.19,7.07,151.19,6Z" fill="#231f20"/><path d="M156.44,8.84c-1.67,0-3-.8-3-2.86a2.63,2.63,0,0,1,2.7-2.8,2.27,2.27,0,0,1,2.39,2.55V6.5h-3.23c.13.64.56.94,1.44.94a3.53,3.53,0,0,0,1.37-.32l.27,1.29A3.86,3.86,0,0,1,156.44,8.84Zm-1.19-3.46h1.55c0-.59-.24-.92-.72-.92S155.33,4.84,155.25,5.39Z" fill="#231f20"/><path d="M159.15,8.75V3.36H161v1a2.25,2.25,0,0,1,1.77-1.09V5.07a2.3,2.3,0,0,0-1.77.44V8.75Z" fill="#231f20"/><path d="M168.12,8.84c-1.67,0-3-.8-3-2.86a2.63,2.63,0,0,1,2.7-2.8,2.27,2.27,0,0,1,2.39,2.55V6.5h-3.23c.13.64.56.94,1.44.94a3.53,3.53,0,0,0,1.37-.32L170,8.41A3.86,3.86,0,0,1,168.12,8.84Zm-1.19-3.46h1.55c0-.59-.24-.92-.72-.92S167,4.84,166.93,5.39Z" fill="#231f20"/><path d="M170.83,8.75V3.36h1.81V4a1.69,1.69,0,0,1,1.48-.78,1.4,1.4,0,0,1,1.44.92,1.85,1.85,0,0,1,1.63-.92c1.2,0,1.73.88,1.73,2V8.75h-1.81V5.39c0-.51-.2-.76-.65-.76a.79.79,0,0,0-.68.37V8.75H174V5.39c0-.51-.21-.76-.66-.76a.83.83,0,0,0-.67.33V8.75Z" fill="#231f20"/><path d="M181.62,8.18v2.47h-1.81V3.36h1.81v.51a2,2,0,0,1,1.48-.68c1.32,0,2.28.89,2.28,2.81s-1,2.88-2.31,2.88A1.72,1.72,0,0,1,181.62,8.18ZM183.55,6c0-1.07-.56-1.39-1-1.39a1.13,1.13,0,0,0-.9.37V7.11a1.19,1.19,0,0,0,.9.35C183,7.46,183.55,7.07,183.55,6Z" fill="#231f20"/><path d="M186.08,1h1.81V8.75h-1.81Z" fill="#231f20"/><path d="M191.39,8.9a2.68,2.68,0,0,1-2.81-2.81,2.81,2.81,0,1,1,5.63,0A2.68,2.68,0,0,1,191.39,8.9Zm0-1.41c.51,0,1-.35,1-1.42s-.48-1.47-1-1.47-1,.41-1,1.47S190.9,7.49,191.39,7.49Z" fill="#231f20"/><path d="M196.11,8.24l-1.93-4.88H196L197,6l1.06-2.64h1.65l-2.93,7.29h-1.64Z" fill="#231f20"/><path d="M202.68,8.84c-1.67,0-3-.8-3-2.86a2.63,2.63,0,0,1,2.7-2.8,2.27,2.27,0,0,1,2.39,2.55V6.5H201.5c.13.64.56.94,1.44.94a3.53,3.53,0,0,0,1.37-.32l.27,1.29A3.86,3.86,0,0,1,202.68,8.84Zm-1.19-3.46H203c0-.59-.24-.92-.72-.92S201.57,4.84,201.49,5.39Z" fill="#231f20"/><path d="M208.15,8.84c-1.67,0-3-.8-3-2.86a2.63,2.63,0,0,1,2.7-2.8,2.27,2.27,0,0,1,2.39,2.55V6.5H207c.13.64.56.94,1.44.94a3.53,3.53,0,0,0,1.37-.32L210,8.41A3.86,3.86,0,0,1,208.15,8.84ZM207,5.39h1.55c0-.59-.24-.92-.72-.92S207,4.84,207,5.39Z" fill="#231f20"/><path d="M214.62,5.47a7,7,0,0,0,1.47,4.39v.09h-1.5a6.48,6.48,0,0,1-1.7-4.48A6.5,6.5,0,0,1,214.59,1h1.5V1A7.69,7.69,0,0,0,214.62,5.47Z" fill="#231f20"/><path d="M216.35,8.75V7.65l2-2.24a3,3,0,0,0,.9-1.77.93.93,0,0,0-1.07-1,2.42,2.42,0,0,0-1.41.38l-.43-1.39a3.88,3.88,0,0,1,2.08-.52c1.72,0,2.56.91,2.56,2.29,0,1-.42,1.81-1.6,3l-.82.86h2.38V8.75Z" fill="#231f20"/><path d="M224.77,8.92c-1.58,0-3.08-1-3.08-3.87s1.5-3.95,3.08-3.95,3.09,1.14,3.09,3.95S226.36,8.92,224.77,8.92Zm0-1.48c.71,0,1.17-.66,1.17-2.41s-.46-2.45-1.17-2.45-1.16.69-1.16,2.45S224.07,7.44,224.77,7.44Z" fill="#231f20"/><path d="M231.59,8.92c-1.58,0-3.08-1-3.08-3.87S230,1.1,231.59,1.1s3.09,1.14,3.09,3.95S233.18,8.92,231.59,8.92Zm0-1.48c.71,0,1.17-.66,1.17-2.41s-.46-2.45-1.17-2.45-1.16.69-1.16,2.45S230.89,7.44,231.59,7.44Z" fill="#231f20"/><path d="M235.57,8.75l2.28-6.08h-2.77V1.26h4.79v1.1l-2.4,6.39Z" fill="#231f20"/><path d="M240.43,6.25V5h2.83V6.25Z" fill="#231f20"/><path d="M243.87,8.75V7.65l2-2.24a3,3,0,0,0,.9-1.77.93.93,0,0,0-1.07-1,2.42,2.42,0,0,0-1.41.38l-.43-1.39a3.88,3.88,0,0,1,2.08-.52c1.72,0,2.56.91,2.56,2.29,0,1-.42,1.81-1.6,3l-.82.86h2.38V8.75Z" fill="#231f20"/><path d="M252.29,8.92c-1.58,0-3.08-1-3.08-3.87s1.5-3.95,3.08-3.95,3.09,1.14,3.09,3.95S253.88,8.92,252.29,8.92Zm0-1.48c.71,0,1.17-.66,1.17-2.41s-.46-2.45-1.17-2.45-1.16.69-1.16,2.45S251.59,7.44,252.29,7.44Z" fill="#231f20"/><path d="M257.18,3.25,256,4.1V2.55l1.92-1.35h1.14V8.75h-1.88Z" fill="#231f20"/><path d="M259.9,8.48l.43-1.39a2.88,2.88,0,0,0,1.29.3c.78,0,1.27-.39,1.27-1.14s-.49-1.1-1.39-1.1a2.84,2.84,0,0,0-1,.16l0,0,.45-4h3.6V2.7h-2.26l-.14,1.17c1.72,0,2.64,1,2.64,2.38a2.59,2.59,0,0,1-2.91,2.67A3.93,3.93,0,0,1,259.9,8.48Z" fill="#231f20"/><path d="M265,1h1.5a6.5,6.5,0,0,1,1.7,4.51,6.48,6.48,0,0,1-1.7,4.48H265V9.85a7,7,0,0,0,1.47-4.39A7.69,7.69,0,0,0,265,1Z" fill="#231f20"/></g></svg>