<svg xmlns="http://www.w3.org/2000/svg" viewBox="0 0 300 53"><title>wages-legend</title><g id="Work_area" data-name="Work area"><rect x="131.31" y="29.17" width="17.91" height="8" fill="#fde0ef"/><rect x="113.58" y="29.17" width="17.91" height="8" fill="#e9a3c9"/><rect x="95.85" y="29.17" width="17.91" height="8" fill="#c51b7d"/><rect x="149.41" y="29.17" width="17.91" height="8" fill="#e6f5d0"/><rect x="167.14" y="29.17" width="17.91" height="8" fill="#a1d76a"/><rect x="184.87" y="29.17" width="17.91" height="8" fill="#4d9221"/><line x1="113.84" y1="29.85" x2="113.84" y2="42.85" fill="none" stroke="#666" stroke-linecap="round" stroke-linejoin="round" stroke-width="0.7"/><line x1="131.63" y1="29.85" x2="131.63" y2="42.85" fill="none" stroke="#666" stroke-linecap="round" stroke-linejoin="round" stroke-width="0.7"/><line x1="149.41" y1="29.85" x2="149.41" y2="42.85" fill="none" stroke="#666" stroke-linecap="round" stroke-linejoin="round" stroke-width="0.7"/><line x1="167.19" y1="29.85" x2="167.19" y2="42.85" fill="none" stroke="#666" stroke-linecap="round" stroke-linejoin="round" stroke-width="0.7"/><line x1="184.97" y1="29.85" x2="184.97" y2="42.85" fill="none" stroke="#666" stroke-linecap="round" stroke-linejoin="round" stroke-width="0.7"/><text transform="translate(83.55 51.7)" font-size="9" fill="#656565" font-family="McClatchySansText-Regular, McClatchy Sans Text"><tspan letter-spacing="1.12em">	</tspan><tspan x="11.99" y="0" letter-spacing="0.95em">	</tspan><tspan x="22.42" y="0">-</tspan><tspan x="25.63" y="0" letter-spacing="-0.01em">4</tspan><tspan x="30.31" y="0">%</tspan><tspan x="36.63" y="0" letter-spacing="0.28em">	</tspan><tspan x="41.03" y="0" letter-spacing="-0.03em">-</tspan><tspan x="44.01" y="0">2%</tspan><tspan x="54.52" y="0" letter-spacing="0.75em">	</tspan><tspan x="63.13" y="0">0</tspan><tspan x="68.61" y="0" letter-spacing="0.88em">	</tspan><tspan x="78.41" y="0">2%</tspan><tspan x="88.92" y="0" letter-spacing="0.59em">	</tspan><tspan x="96.15" y="0" letter-spacing="-0.02em">4</tspan><tspan x="100.84" y="0">%</tspan><tspan x="107.16" y="0" letter-spacing="1.87em">	</tspan></text><line x1="152.44" y1="24.17" x2="168.48" y2="24.17" fill="none" stroke="#666" stroke-linecap="round" stroke-linejoin="round" stroke-width="0.7"/><polygon points="171.94 24.17 167.07 26.16 168.22 24.17 167.07 22.18 171.94 24.17" fill="#666"/><line x1="129.67" y1="24.17" x2="145.21" y2="24.17" fill="none" stroke="#666" stroke-linecap="round" stroke-linejoin="round" stroke-width="0.7"/><polygon points="126.21 24.17 131.09 26.16 129.93 24.17 131.09 22.18 126.21 24.17" fill="#666"/><text transform="translate(110.57 21.17)" font-size="9" fill="#666" font-family="McClatchySansText-Regular, McClatchy Sans Text"><tspan letter-spacing="-0.01em">D</tspan><tspan x="5.83" y="0">ec</tspan><tspan x="14.56" y="0" letter-spacing="-0.01em">r</tspan><tspan x="17.69" y="0" letter-spacing="0em">ease</tspan></text><text transform="translate(152.44 21.17)" font-size="9" fill="#666" font-family="McClatchySansText-Regular, McClatchy Sans Text">Inc<tspan x="11.59" y="0" letter-spacing="-0.01em">r</tspan><tspan x="14.71" y="0">ease</tspan></text><text transform="translate(31.15 8.75)" font-size="10" fill="#231f20" font-family="McClatchySans-Bold, McClatchy Sans" font-weight="700" letter-spacing="-0.01em">Cha<tspan x="17.75" y="0" letter-spacing="-0.01em">n</tspan><tspan x="23.7" y="0" letter-spacing="-0.03em">g</tspan><tspan x="29.13" y="0">e in </tspan><tspan x="47.39" y="0" letter-spacing="-0.03em">a</tspan><tspan x="52.48" y="0" letter-spacing="-0.04em">v</tspan><tspan x="57.75" y="0" letter-spacing="-0.01em">e</tspan><tspan x="63.22" y="0" letter-spacing="-0.02em">ra</tspan><tspan x="72.6" y="0" letter-spacing="-0.03em">g</tspan><tspan x="78.03" y="0">e </tspan><tspan x="85.52" y="0" letter-spacing="-0.01em">wa</tspan><tspan x="98.39" y="0" letter-spacing="-0.03em">g</tspan><tspan x="103.82" y="0" letter-spacing="-0.01em">es per empl</tspan><tspan x="157.19" y="0" letter-spacing="-0.03em">o</tspan><tspan x="162.99" y="0" letter-spacing="-0.03em">y</tspan><tspan x="168.25" y="0">ee (</tspan><tspan x="184.94" y="0" letter-spacing="0em">2</tspan><tspan x="190.16" y="0">0</tspan><tspan x="196.98" y="0" letter-spacing="-0.03em">0</tspan><tspan x="203.65" y="0" letter-spacing="-0.01em">7-</tspan><tspan x="212.46" y="0" letter-spacing="-0.01em">2</tspan><tspan x="217.68" y="0">015)</tspan></text></g></svg>
