<svg xmlns="http://www.w3.org/2000/svg" viewBox="0 0 300 53"><title>wages-legend</title><g id="Work_area" data-name="Work area"><rect x="131.31" y="29.17" width="17.91" height="8" fill="#fde0ef"/><rect x="113.58" y="29.17" width="17.91" height="8" fill="#e9a3c9"/><rect x="95.85" y="29.17" width="17.91" height="8" fill="#c51b7d"/><rect x="149.41" y="29.17" width="17.91" height="8" fill="#e6f5d0"/><rect x="167.14" y="29.17" width="17.91" height="8" fill="#a1d76a"/><rect x="184.87" y="29.17" width="17.91" height="8" fill="#4d9221"/><line x1="113.84" y1="29.85" x2="113.84" y2="42.85" fill="none" stroke="#666" stroke-linecap="round" stroke-linejoin="round" stroke-width="0.7"/><line x1="131.63" y1="29.85" x2="131.63" y2="42.85" fill="none" stroke="#666" stroke-linecap="round" stroke-linejoin="round" stroke-width="0.7"/><line x1="149.41" y1="29.85" x2="149.41" y2="42.85" fill="none" stroke="#666" stroke-linecap="round" stroke-linejoin="round" stroke-width="0.7"/><line x1="167.19" y1="29.85" x2="167.19" y2="42.85" fill="none" stroke="#666" stroke-linecap="round" stroke-linejoin="round" stroke-width="0.7"/><line x1="184.97" y1="29.85" x2="184.97" y2="42.85" fill="none" stroke="#666" stroke-linecap="round" stroke-linejoin="round" stroke-width="0.7"/><path d="M106.48,49.49v-.68h2.2v.68Z" fill="#656565"/><path d="M112.11,50.33h-2.7v-.54l2.36-4.16h1.16v4h.79v.66h-.79V51.7h-.82Zm0-4.05-1.93,3.39h1.93Z" fill="#656565"/><path d="M115.52,48.67a1.37,1.37,0,0,1-1.31-1.56c0-1.05.63-1.61,1.31-1.61a1.42,1.42,0,0,1,1.32,1.61A1.38,1.38,0,0,1,115.52,48.67Zm3.26-3h.59L115.3,51.7h-.6Zm-3.26,2.49c.34,0,.63-.29.63-1s-.29-1.05-.63-1.05-.62.33-.62,1.05S115.18,48.12,115.52,48.12Zm3,3.67a1.38,1.38,0,0,1-1.31-1.57c0-1.05.63-1.6,1.31-1.6s1.31.55,1.31,1.6A1.39,1.39,0,0,1,118.54,51.8Zm0-.55c.32,0,.63-.3.63-1s-.31-1.05-.63-1.05-.63.33-.63,1.05S118.2,51.25,118.54,51.25Z" fill="#656565"/><path d="M125.09,49.49v-.68h2.2v.68Z" fill="#656565"/><path d="M127.83,51.7v-.5l1.74-2a2.94,2.94,0,0,0,.93-1.87,1,1,0,0,0-1.14-1.12,2.08,2.08,0,0,0-1.24.38l-.23-.64a2.68,2.68,0,0,1,1.56-.43,1.66,1.66,0,0,1,1.88,1.74A3.76,3.76,0,0,1,130,49.72L128.84,51h2.5v.67Z" fill="#656565"/><path d="M133.4,48.67a1.37,1.37,0,0,1-1.31-1.56c0-1.05.63-1.61,1.31-1.61a1.42,1.42,0,0,1,1.32,1.61A1.38,1.38,0,0,1,133.4,48.67Zm3.26-3h.59l-4.07,6.07h-.6Zm-3.26,2.49c.34,0,.63-.29.63-1s-.29-1.05-.63-1.05-.62.33-.62,1.05S133.07,48.12,133.4,48.12Zm3,3.67a1.38,1.38,0,0,1-1.31-1.57c0-1.05.63-1.6,1.31-1.6s1.31.55,1.31,1.6A1.39,1.39,0,0,1,136.42,51.8Zm0-.55c.32,0,.63-.3.63-1s-.31-1.05-.63-1.05-.63.33-.63,1.05S136.08,51.25,136.42,51.25Z" fill="#656565"/><path d="M149.42,51.82c-1.21,0-2.32-.91-2.31-3.12s1.11-3.19,2.31-3.19,2.33,1,2.32,3.19S150.63,51.82,149.42,51.82Zm0-.68c.82,0,1.43-.77,1.43-2.45s-.61-2.49-1.43-2.49S148,47,148,48.69,148.61,51.14,149.42,51.14Z" fill="#656565"/><path d="M162.23,51.7v-.5l1.74-2a2.94,2.94,0,0,0,.93-1.87,1,1,0,0,0-1.14-1.12,2.08,2.08,0,0,0-1.24.38l-.23-.64a2.68,2.68,0,0,1,1.56-.43,1.66,1.66,0,0,1,1.88,1.74,3.76,3.76,0,0,1-1.31,2.45L163.24,51h2.5v.67Z" fill="#656565"/><path d="M167.8,48.67a1.37,1.37,0,0,1-1.31-1.56c0-1.05.63-1.61,1.31-1.61a1.42,1.42,0,0,1,1.32,1.61A1.38,1.38,0,0,1,167.8,48.67Zm3.26-3h.59l-4.07,6.07H167Zm-3.26,2.49c.34,0,.63-.29.63-1s-.29-1.05-.63-1.05-.62.33-.62,1.05S167.47,48.12,167.8,48.12Zm3,3.67a1.38,1.38,0,0,1-1.31-1.57c0-1.05.63-1.6,1.31-1.6s1.31.55,1.31,1.6A1.39,1.39,0,0,1,170.82,51.8Zm0-.55c.32,0,.63-.3.63-1s-.31-1.05-.63-1.05-.63.33-.63,1.05S170.48,51.25,170.82,51.25Z" fill="#656565"/><path d="M182.63,50.33h-2.7v-.54l2.36-4.16h1.16v4h.79v.66h-.79V51.7h-.82Zm0-4.05-1.93,3.39h1.93Z" fill="#656565"/><path d="M186,48.67a1.37,1.37,0,0,1-1.31-1.56c0-1.05.63-1.61,1.31-1.61a1.42,1.42,0,0,1,1.32,1.61A1.38,1.38,0,0,1,186,48.67Zm3.26-3h.59l-4.07,6.07h-.6ZM186,48.12c.34,0,.63-.29.63-1s-.29-1.05-.63-1.05-.62.33-.62,1.05S185.71,48.12,186,48.12Zm3,3.67a1.38,1.38,0,0,1-1.31-1.57c0-1.05.63-1.6,1.31-1.6s1.31.55,1.31,1.6A1.39,1.39,0,0,1,189.07,51.8Zm0-.55c.32,0,.63-.3.63-1s-.31-1.05-.63-1.05-.63.33-.63,1.05S188.72,51.25,189.07,51.25Z" fill="#656565"/><line x1="152.44" y1="24.17" x2="168.48" y2="24.17" fill="none" stroke="#666" stroke-linecap="round" stroke-linejoin="round" stroke-width="0.7"/><polygon points="171.94 24.17 167.07 26.16 168.22 24.17 167.07 22.18 171.94 24.17" fill="#666"/><line x1="129.67" y1="24.17" x2="145.21" y2="24.17" fill="none" stroke="#666" stroke-linecap="round" stroke-linejoin="round" stroke-width="0.7"/><polygon points="126.21 24.17 131.09 26.16 129.93 24.17 131.09 22.18 126.21 24.17" fill="#666"/><path d="M90.8,15.1h1.72a2.87,2.87,0,0,1,3,3.07,2.81,2.81,0,0,1-3,3H90.8Zm.89.67v4.71h.79a2,2,0,0,0,2.08-2.32,2.1,2.1,0,0,0-2.1-2.39Z" fill="#666"/><path d="M98.48,21.25a2.14,2.14,0,0,1-2.29-2.31,2.08,2.08,0,0,1,2-2.27c1.11,0,1.84.73,1.84,2.11v.32H97a1.39,1.39,0,0,0,1.53,1.49,2.83,2.83,0,0,0,1.2-.24l.14.61A3.2,3.2,0,0,1,98.48,21.25ZM97.06,18.5h2.2c-.05-.87-.46-1.22-1.07-1.22S97.17,17.72,97.06,18.5Z" fill="#666"/><path d="M104.26,21a2.81,2.81,0,0,1-1.32.28A2.1,2.1,0,0,1,100.71,19,2.18,2.18,0,0,1,103,16.7a2.9,2.9,0,0,1,1.28.26l-.21.67a2.14,2.14,0,0,0-1-.24A1.45,1.45,0,0,0,101.56,19,1.39,1.39,0,0,0,103,20.56a2.38,2.38,0,0,0,1.06-.23Z" fill="#666"/><path d="M105.2,16.8H106v.87a1.86,1.86,0,0,1,1.51-.94v.81a1.72,1.72,0,0,0-1.51.76v2.86h-.83Z" fill="#666"/><path d="M110.33,21.25A2.14,2.14,0,0,1,108,18.93a2.08,2.08,0,0,1,2-2.27c1.11,0,1.84.73,1.84,2.11v.32h-3a1.39,1.39,0,0,0,1.53,1.49,2.83,2.83,0,0,0,1.2-.24l.14.61A3.2,3.2,0,0,1,110.33,21.25Zm-1.42-2.75h2.2c-.05-.87-.46-1.22-1.07-1.22S109,17.72,108.91,18.5Z" fill="#666"/><path d="M116.11,21a2.81,2.81,0,0,1-1.32.28A2.1,2.1,0,0,1,112.56,19a2.18,2.18,0,0,1,2.28-2.3,2.9,2.9,0,0,1,1.28.26l-.21.67a2.14,2.14,0,0,0-1-.24A1.45,1.45,0,0,0,113.41,19a1.39,1.39,0,0,0,1.45,1.57,2.38,2.38,0,0,0,1.06-.23Z" fill="#666"/><path d="M117.5,14.92a.47.47,0,0,1,0,.94.47.47,0,1,1,0-.94Zm-.42,1.88h.84v4.37h-.84Z" fill="#666"/><path d="M119.2,21.17V16.8H120v.59a1.48,1.48,0,0,1,1.28-.73,1.11,1.11,0,0,1,1.21.85,1.54,1.54,0,0,1,1.39-.85c.89,0,1.34.55,1.34,1.54v3h-.84V18.3c0-.7-.24-1-.79-1a1.16,1.16,0,0,0-1,.65v3.2h-.84V18.3c0-.7-.25-1-.81-1a1.16,1.16,0,0,0-1,.62v3.22Z" fill="#666"/><path d="M126.88,14.92a.47.47,0,0,1,0,.94.47.47,0,1,1,0-.94Zm-.42,1.88h.84v4.37h-.84Z" fill="#666"/><path d="M130.58,21.25a2.14,2.14,0,0,1-2.29-2.31,2.08,2.08,0,0,1,2-2.27c1.11,0,1.84.73,1.84,2.11v.32h-3a1.39,1.39,0,0,0,1.53,1.49,2.83,2.83,0,0,0,1.2-.24L132,21A3.2,3.2,0,0,1,130.58,21.25Zm-1.42-2.75h2.2c-.05-.87-.46-1.22-1.07-1.22S129.28,17.72,129.16,18.5Z" fill="#666"/><path d="M133.09,21.17V16.8h.83v.62a1.74,1.74,0,0,1,1.41-.76c.95,0,1.42.55,1.42,1.54v3h-.83V18.29c0-.7-.31-1-.89-1a1.38,1.38,0,0,0-1.12.7v3.14Z" fill="#666"/><path d="M138,19.81V17.44h-.56V16.8H138V15.48h.83V16.8h1v.64h-1v2.31c0,.64.22.81.63.81a1.43,1.43,0,0,0,.41-.06v.64a2,2,0,0,1-.57.07C138.5,21.21,138,20.8,138,19.81Z" fill="#666"/><path d="M142.69,21.29A2.16,2.16,0,0,1,140.52,19a2.18,2.18,0,1,1,4.36,0A2.15,2.15,0,0,1,142.69,21.29Zm0-.67c.7,0,1.34-.56,1.34-1.62s-.63-1.68-1.34-1.68-1.33.61-1.33,1.68S142,20.63,142.69,20.63Z" fill="#666"/><path d="M154.9,15h.68l2.22,6.12h-.89l-.53-1.49H154l-.53,1.49h-.78Zm.28,1.26-1,2.73h1.94Z" fill="#666"/><path d="M161.29,20.55a1.61,1.61,0,0,1-1.36.76c-.91,0-1.42-.53-1.42-1.53v-3h.83v2.88c0,.71.29,1,.86,1a1.38,1.38,0,0,0,1.09-.66V16.8h.83v4.37h-.83Z" fill="#666"/><path d="M163.36,21.17V16.8h.83v.59a1.48,1.48,0,0,1,1.28-.73,1.11,1.11,0,0,1,1.21.85,1.54,1.54,0,0,1,1.39-.85c.89,0,1.34.55,1.34,1.54v3h-.84V18.3c0-.7-.24-1-.79-1a1.16,1.16,0,0,0-1,.65v3.2H166V18.3c0-.7-.25-1-.81-1a1.16,1.16,0,0,0-1,.62v3.22Z" fill="#666"/><path d="M172.6,21.25a2.14,2.14,0,0,1-2.29-2.31,2.08,2.08,0,0,1,2-2.27c1.11,0,1.84.73,1.84,2.11v.32h-3a1.39,1.39,0,0,0,1.53,1.49,2.83,2.83,0,0,0,1.2-.24L174,21A3.2,3.2,0,0,1,172.6,21.25Zm-1.42-2.75h2.2c-.05-.87-.46-1.22-1.07-1.22S171.3,17.72,171.18,18.5Z" fill="#666"/><path d="M175.11,21.17V16.8h.83v.62a1.74,1.74,0,0,1,1.41-.76c.95,0,1.42.55,1.42,1.54v3H178V18.29c0-.7-.31-1-.89-1a1.38,1.38,0,0,0-1.12.7v3.14Z" fill="#666"/><path d="M180,19.81V17.44h-.56V16.8H180V15.48h.83V16.8h1v.64h-1v2.31c0,.64.22.81.63.81a1.43,1.43,0,0,0,.41-.06v.64a2,2,0,0,1-.57.07C180.52,21.21,180,20.8,180,19.81Z" fill="#666"/><path d="M184.72,21.29A2.16,2.16,0,0,1,182.54,19a2.18,2.18,0,1,1,4.36,0A2.15,2.15,0,0,1,184.72,21.29Zm0-.67c.7,0,1.34-.56,1.34-1.62s-.63-1.68-1.34-1.68-1.33.61-1.33,1.68S184,20.63,184.72,20.63Z" fill="#666"/><path d="M16.48,8.35a3.89,3.89,0,0,1-2.11.52,3.54,3.54,0,0,1-3.79-3.78,3.65,3.65,0,0,1,3.8-3.94,4.59,4.59,0,0,1,2,.37L15.94,3a2.89,2.89,0,0,0-1.29-.31,2,2,0,0,0-2.1,2.34,1.94,1.94,0,0,0,2,2.22A2.9,2.9,0,0,0,16,6.91Z" fill="#231f20"/><path d="M19.83,8.29a1.49,1.49,0,0,1-1.22.57A1.59,1.59,0,0,1,17,7.15a1.68,1.68,0,0,1,1.83-1.74,1.67,1.67,0,0,1,1,.31V5.48c0-.71-.48-.88-1-.88a2.83,2.83,0,0,0-1.2.29l-.36-1.28a4.22,4.22,0,0,1,2-.42c1.8,0,2.45.85,2.45,2.2V8.74H19.83Zm0-.77V6.61a1,1,0,0,0-.57-.18.57.57,0,0,0-.6.64.57.57,0,0,0,.6.64A1,1,0,0,0,19.83,7.52Z" fill="#231f20"/><path d="M22.53,8.74V3.36h1.81V4a1.69,1.69,0,0,1,1.48-.78,1.4,1.4,0,0,1,1.44.92,1.85,1.85,0,0,1,1.63-.92c1.2,0,1.73.88,1.73,2V8.74H28.81V5.39c0-.51-.2-.76-.65-.76a.79.79,0,0,0-.68.37V8.74H25.67V5.39c0-.51-.21-.76-.66-.76a.83.83,0,0,0-.67.33V8.74Z" fill="#231f20"/><path d="M33.32,8.18v.57H31.51V1h1.81V3.87a2,2,0,0,1,1.48-.68c1.32,0,2.28.89,2.28,2.81s-1,2.88-2.31,2.88A1.72,1.72,0,0,1,33.32,8.18ZM35.25,6c0-1.07-.56-1.39-1-1.39a1.13,1.13,0,0,0-.9.37V7.11a1.19,1.19,0,0,0,.9.35C34.69,7.46,35.25,7.07,35.25,6Z" fill="#231f20"/><path d="M38.64,1a.93.93,0,0,1,1,.95,1,1,0,0,1-1.94,0A.93.93,0,0,1,38.64,1Zm-.91,2.37h1.81V8.74H37.73Z" fill="#231f20"/><path d="M43,8.9A2.68,2.68,0,0,1,40.2,6.09a2.81,2.81,0,1,1,5.63,0A2.68,2.68,0,0,1,43,8.9Zm0-1.41c.51,0,1-.35,1-1.42S43.52,4.6,43,4.6,42,5,42,6.07,42.52,7.48,43,7.48Z" fill="#231f20"/><path d="M48.5,4.51c-.37,0-.66.08-.66.35s.89.34,1.64.71A1.44,1.44,0,0,1,50.32,7c0,1.22-.91,1.86-2.26,1.86a3.73,3.73,0,0,1-1.9-.4l.36-1.26a3.08,3.08,0,0,0,1.38.35c.52,0,.74-.16.74-.39,0-.42-1.15-.32-1.84-.87A1.53,1.53,0,0,1,46.26,5c0-1.2.86-1.79,2.14-1.79a4.18,4.18,0,0,1,1.79.34l-.34,1.23A3.36,3.36,0,0,0,48.5,4.51Z" fill="#231f20"/><path d="M55.73,8.84c-1.67,0-3-.8-3-2.86a2.63,2.63,0,0,1,2.7-2.8,2.27,2.27,0,0,1,2.39,2.55V6.5H54.55c.13.64.56.94,1.44.94a3.53,3.53,0,0,0,1.37-.32l.27,1.29A3.86,3.86,0,0,1,55.73,8.84ZM54.54,5.39h1.55c0-.59-.24-.92-.72-.92S54.62,4.84,54.54,5.39Z" fill="#231f20"/><path d="M58.44,8.74V3.36h1.81V4a1.94,1.94,0,0,1,1.58-.78c1.27,0,1.73.87,1.73,2V8.74H61.75V5.38c0-.51-.2-.75-.67-.75a.94.94,0,0,0-.83.52v3.6Z" fill="#231f20"/><path d="M66.5,1h1.81V8.74H66.5Z" fill="#231f20"/><path d="M71.81,8.9A2.68,2.68,0,0,1,69,6.09a2.81,2.81,0,1,1,5.63,0A2.68,2.68,0,0,1,71.81,8.9Zm0-1.41c.51,0,1-.35,1-1.42s-.48-1.47-1-1.47-1,.41-1,1.47S71.32,7.48,71.81,7.48Z" fill="#231f20"/><path d="M77.3,4.51c-.37,0-.66.08-.66.35s.89.34,1.64.71A1.44,1.44,0,0,1,79.12,7c0,1.22-.91,1.86-2.26,1.86a3.73,3.73,0,0,1-1.9-.4l.36-1.26a3.08,3.08,0,0,0,1.38.35c.52,0,.74-.16.74-.39,0-.42-1.15-.32-1.84-.87A1.53,1.53,0,0,1,75.06,5c0-1.2.86-1.79,2.14-1.79A4.18,4.18,0,0,1,79,3.59l-.34,1.23A3.36,3.36,0,0,0,77.3,4.51Z" fill="#231f20"/><path d="M83.79,4.51c-.37,0-.66.08-.66.35s.89.34,1.64.71A1.44,1.44,0,0,1,85.61,7c0,1.22-.91,1.86-2.26,1.86a3.73,3.73,0,0,1-1.9-.4l.36-1.26a3.08,3.08,0,0,0,1.38.35c.52,0,.74-.16.74-.39,0-.42-1.15-.32-1.84-.87A1.53,1.53,0,0,1,81.55,5c0-1.2.86-1.79,2.14-1.79a4.18,4.18,0,0,1,1.79.34l-.34,1.23A3.36,3.36,0,0,0,83.79,4.51Z" fill="#231f20"/><path d="M88.88,8.29a1.49,1.49,0,0,1-1.22.57A1.59,1.59,0,0,1,86,7.15a1.85,1.85,0,0,1,2.87-1.43V5.48c0-.71-.48-.88-1-.88a2.83,2.83,0,0,0-1.2.29l-.36-1.28a4.22,4.22,0,0,1,2-.42c1.8,0,2.45.85,2.45,2.2V8.74H88.88Zm0-.77V6.61a1,1,0,0,0-.57-.18.57.57,0,0,0-.6.64.57.57,0,0,0,.6.64A1,1,0,0,0,88.88,7.52Z" fill="#231f20"/><path d="M91.62,1h1.81V8.74H91.62Z" fill="#231f20"/><path d="M97,8.29a1.49,1.49,0,0,1-1.22.57,1.59,1.59,0,0,1-1.65-1.72A1.85,1.85,0,0,1,97,5.72V5.48c0-.71-.48-.88-1-.88a2.83,2.83,0,0,0-1.2.29l-.36-1.28a4.22,4.22,0,0,1,2-.42c1.8,0,2.45.85,2.45,2.2V8.74H97Zm0-.77V6.61a1,1,0,0,0-.57-.18.57.57,0,0,0-.6.64.57.57,0,0,0,.6.64A1,1,0,0,0,97,7.52Z" fill="#231f20"/><path d="M99.69,8.74V3.36h1.81v1a2.25,2.25,0,0,1,1.77-1.09V5.07a2.3,2.3,0,0,0-1.77.44V8.74Z" fill="#231f20"/><path d="M104.79,1a.93.93,0,0,1,1,.95,1,1,0,0,1-1.94,0A.93.93,0,0,1,104.79,1Zm-.91,2.37h1.81V8.74h-1.81Z" fill="#231f20"/><path d="M109.16,8.9a2.68,2.68,0,0,1-2.81-2.81,2.81,2.81,0,1,1,5.63,0A2.68,2.68,0,0,1,109.16,8.9Zm0-1.41c.51,0,1-.35,1-1.42s-.48-1.47-1-1.47-1,.41-1,1.47S108.67,7.48,109.16,7.48Z" fill="#231f20"/><path d="M114.65,4.51c-.37,0-.66.08-.66.35s.89.34,1.64.71A1.44,1.44,0,0,1,116.47,7c0,1.22-.91,1.86-2.26,1.86a3.73,3.73,0,0,1-1.9-.4l.36-1.26a3.08,3.08,0,0,0,1.38.35c.52,0,.74-.16.74-.39,0-.42-1.15-.32-1.84-.87A1.53,1.53,0,0,1,112.41,5c0-1.2.86-1.79,2.14-1.79a4.18,4.18,0,0,1,1.79.34L116,4.82A3.36,3.36,0,0,0,114.65,4.51Z" fill="#231f20"/><path d="M120.93,8.18v2.47h-1.81V3.36h1.81v.51a2,2,0,0,1,1.48-.68c1.32,0,2.28.89,2.28,2.81s-1,2.88-2.31,2.88A1.72,1.72,0,0,1,120.93,8.18ZM122.86,6c0-1.07-.56-1.39-1-1.39a1.13,1.13,0,0,0-.9.37V7.11a1.19,1.19,0,0,0,.9.35C122.3,7.46,122.86,7.07,122.86,6Z" fill="#231f20"/><path d="M125.35,8.74V3.36h1.81v1a2.25,2.25,0,0,1,1.77-1.09V5.07a2.3,2.3,0,0,0-1.77.44V8.74Z" fill="#231f20"/><path d="M132,8.9a2.68,2.68,0,0,1-2.81-2.81,2.81,2.81,0,1,1,5.63,0A2.68,2.68,0,0,1,132,8.9Zm0-1.41c.51,0,1-.35,1-1.42s-.48-1.47-1-1.47-1,.41-1,1.47S131.53,7.48,132,7.48Z" fill="#231f20"/><path d="M135.49,8.74V3.36h1.81V4a1.69,1.69,0,0,1,1.48-.78,1.4,1.4,0,0,1,1.44.92,1.85,1.85,0,0,1,1.63-.92c1.2,0,1.73.88,1.73,2V8.74h-1.81V5.39c0-.51-.2-.76-.65-.76a.79.79,0,0,0-.68.37V8.74h-1.81V5.39c0-.51-.21-.76-.66-.76a.83.83,0,0,0-.67.33V8.74Z" fill="#231f20"/><path d="M147.23,8.84c-1.67,0-3-.8-3-2.86a2.63,2.63,0,0,1,2.7-2.8,2.27,2.27,0,0,1,2.39,2.55V6.5H146c.13.64.56.94,1.44.94a3.53,3.53,0,0,0,1.37-.32l.27,1.29A3.86,3.86,0,0,1,147.23,8.84ZM146,5.39h1.55c0-.59-.24-.92-.72-.92S146.12,4.84,146,5.39Z" fill="#231f20"/><path d="M153.42,8.19a2,2,0,0,1-1.48.68c-1.32,0-2.28-.89-2.28-2.81s1-2.88,2.31-2.88a1.72,1.72,0,0,1,1.45.7V1h1.81V8.74h-1.81Zm0-1.11V5a1.19,1.19,0,0,0-.9-.35c-.47,0-1,.39-1,1.46s.56,1.39,1,1.39A1.14,1.14,0,0,0,153.42,7.09Z" fill="#231f20"/><path d="M157.07,1a.93.93,0,0,1,1,.95,1,1,0,0,1-1.94,0A.93.93,0,0,1,157.07,1Zm-.91,2.37H158V8.74h-1.81Z" fill="#231f20"/><path d="M161.44,8.9a2.68,2.68,0,0,1-2.81-2.81,2.81,2.81,0,1,1,5.63,0A2.68,2.68,0,0,1,161.44,8.9Zm0-1.41c.51,0,1-.35,1-1.42s-.48-1.47-1-1.47-1,.41-1,1.47S160.95,7.48,161.44,7.48Z" fill="#231f20"/><path d="M168.74,8.18v2.47h-1.81V3.36h1.81v.51a2,2,0,0,1,1.48-.68c1.32,0,2.28.89,2.28,2.81s-1,2.88-2.31,2.88A1.72,1.72,0,0,1,168.74,8.18ZM170.67,6c0-1.07-.56-1.39-1-1.39a1.13,1.13,0,0,0-.9.37V7.11a1.19,1.19,0,0,0,.9.35C170.11,7.46,170.67,7.07,170.67,6Z" fill="#231f20"/><path d="M175.69,8.9a2.68,2.68,0,0,1-2.81-2.81,2.81,2.81,0,1,1,5.63,0A2.68,2.68,0,0,1,175.69,8.9Zm0-1.41c.51,0,1-.35,1-1.42s-.48-1.47-1-1.47-1,.41-1,1.47S175.2,7.48,175.69,7.48Z" fill="#231f20"/><path d="M179.16,8.74V3.36H181v1a2.25,2.25,0,0,1,1.77-1.09V5.07a2.3,2.3,0,0,0-1.77.44V8.74Z" fill="#231f20"/><path d="M188.13,8.84c-1.67,0-3-.8-3-2.86a2.63,2.63,0,0,1,2.7-2.8,2.27,2.27,0,0,1,2.39,2.55V6.5h-3.23c.13.64.56.94,1.44.94a3.53,3.53,0,0,0,1.37-.32L190,8.4A3.86,3.86,0,0,1,188.13,8.84Zm-1.19-3.46h1.55c0-.59-.24-.92-.72-.92S187,4.84,186.94,5.39Z" fill="#231f20"/><path d="M190.84,8.74V3.36h1.81V4a1.69,1.69,0,0,1,1.48-.78,1.4,1.4,0,0,1,1.44.92,1.85,1.85,0,0,1,1.63-.92c1.2,0,1.73.88,1.73,2V8.74h-1.81V5.39c0-.51-.2-.76-.65-.76a.79.79,0,0,0-.68.37V8.74H194V5.39c0-.51-.21-.76-.66-.76a.83.83,0,0,0-.67.33V8.74Z" fill="#231f20"/><path d="M201.63,8.18v2.47h-1.81V3.36h1.81v.51a2,2,0,0,1,1.48-.68c1.32,0,2.28.89,2.28,2.81s-1,2.88-2.31,2.88A1.72,1.72,0,0,1,201.63,8.18ZM203.56,6c0-1.07-.56-1.39-1-1.39a1.13,1.13,0,0,0-.9.37V7.11a1.19,1.19,0,0,0,.9.35C203,7.46,203.56,7.07,203.56,6Z" fill="#231f20"/><path d="M206.09,1h1.81V8.74h-1.81Z" fill="#231f20"/><path d="M211.63,8.84c-1.67,0-3-.8-3-2.86a2.63,2.63,0,0,1,2.7-2.8,2.27,2.27,0,0,1,2.39,2.55V6.5h-3.23c.13.64.56.94,1.44.94a3.53,3.53,0,0,0,1.37-.32l.27,1.29A3.86,3.86,0,0,1,211.63,8.84Zm-1.19-3.46H212c0-.59-.24-.92-.72-.92S210.52,4.84,210.44,5.39Z" fill="#231f20"/><path d="M216.93,8.29a1.49,1.49,0,0,1-1.22.57,1.59,1.59,0,0,1-1.65-1.72,1.85,1.85,0,0,1,2.87-1.43V5.48c0-.71-.48-.88-1-.88a2.83,2.83,0,0,0-1.2.29l-.36-1.28a4.22,4.22,0,0,1,2-.42c1.8,0,2.45.85,2.45,2.2V8.74h-1.81Zm0-.77V6.61a1,1,0,0,0-.57-.18.57.57,0,0,0-.6.64.57.57,0,0,0,.6.64A1,1,0,0,0,216.93,7.52Z" fill="#231f20"/><path d="M223.11,8.19a2,2,0,0,1-1.48.68c-1.32,0-2.28-.89-2.28-2.81s1-2.88,2.31-2.88a1.72,1.72,0,0,1,1.45.7V1h1.81V8.74h-1.81Zm0-1.11V5a1.19,1.19,0,0,0-.9-.35c-.47,0-1,.39-1,1.46s.56,1.39,1,1.39A1.14,1.14,0,0,0,223.11,7.09Z" fill="#231f20"/><path d="M228.38,8.9a2.68,2.68,0,0,1-2.81-2.81,2.81,2.81,0,1,1,5.63,0A2.68,2.68,0,0,1,228.38,8.9Zm0-1.41c.51,0,1-.35,1-1.42s-.48-1.47-1-1.47-1,.41-1,1.47S227.89,7.48,228.38,7.48Z" fill="#231f20"/><path d="M235.61,5.47a7,7,0,0,0,1.47,4.39v.09h-1.5a6.48,6.48,0,0,1-1.7-4.48A6.5,6.5,0,0,1,235.58,1h1.5V1A7.69,7.69,0,0,0,235.61,5.47Z" fill="#231f20"/><path d="M237.34,8.74V7.65l2-2.24a3,3,0,0,0,.9-1.77.93.93,0,0,0-1.07-1,2.42,2.42,0,0,0-1.41.38l-.43-1.39a3.88,3.88,0,0,1,2.08-.52c1.72,0,2.56.91,2.56,2.29,0,1-.42,1.81-1.6,3l-.82.86h2.38V8.74Z" fill="#231f20"/><path d="M245.76,8.91c-1.58,0-3.08-1-3.08-3.87s1.5-3.95,3.08-3.95,3.09,1.14,3.09,3.95S247.35,8.91,245.76,8.91Zm0-1.48c.71,0,1.17-.66,1.17-2.41s-.46-2.45-1.17-2.45S244.6,3.27,244.6,5,245.06,7.44,245.76,7.44Z" fill="#231f20"/><path d="M252.58,8.91c-1.58,0-3.08-1-3.08-3.87S251,1.1,252.58,1.1s3.09,1.14,3.09,3.95S254.17,8.91,252.58,8.91Zm0-1.48c.71,0,1.17-.66,1.17-2.41s-.46-2.45-1.17-2.45-1.16.69-1.16,2.45S251.88,7.44,252.58,7.44Z" fill="#231f20"/><path d="M256.56,8.74l2.28-6.08h-2.77V1.26h4.79v1.1l-2.4,6.39Z" fill="#231f20"/><path d="M261.42,6.25V5h2.83V6.25Z" fill="#231f20"/><path d="M264.86,8.74V7.65l2-2.24a3,3,0,0,0,.9-1.77.93.93,0,0,0-1.07-1,2.42,2.42,0,0,0-1.41.38l-.43-1.39a3.88,3.88,0,0,1,2.08-.52c1.72,0,2.56.91,2.56,2.29,0,1-.42,1.81-1.6,3l-.82.86h2.38V8.74Z" fill="#231f20"/><path d="M273.28,8.91c-1.58,0-3.08-1-3.08-3.87s1.5-3.95,3.08-3.95,3.09,1.14,3.09,3.95S274.87,8.91,273.28,8.91Zm0-1.48c.71,0,1.17-.66,1.17-2.41s-.46-2.45-1.17-2.45-1.16.69-1.16,2.45S272.58,7.44,273.28,7.44Z" fill="#231f20"/><path d="M278.17,3.25,277,4.1V2.55l1.92-1.35H280V8.74h-1.88Z" fill="#231f20"/><path d="M280.89,8.48l.43-1.39a2.88,2.88,0,0,0,1.29.3c.78,0,1.27-.39,1.27-1.14s-.49-1.1-1.39-1.1a2.84,2.84,0,0,0-1,.16l0,0,.45-4h3.6V2.7h-2.26l-.14,1.17c1.72,0,2.64,1,2.64,2.38a2.59,2.59,0,0,1-2.91,2.67A3.93,3.93,0,0,1,280.89,8.48Z" fill="#231f20"/><path d="M286,1h1.5a6.5,6.5,0,0,1,1.7,4.51,6.48,6.48,0,0,1-1.7,4.48H286V9.85a7,7,0,0,0,1.47-4.39A7.69,7.69,0,0,0,286,1Z" fill="#231f20"/></g></svg>